<?xml version="1.0" encoding="UTF-8" standalone="no"?>
<!-- Created with Inkscape (http://www.inkscape.org/) -->

<svg
   width="512"
   height="512"
   viewBox="0 0 512 512"
   version="1.1"
   id="svg1"
   sodipodi:docname="c_sharp_INKSCAPE.svg"
   inkscape:version="1.3.2 (091e20e, 2023-11-25)"
   xml:space="preserve"
   inkscape:export-filename="../c_sharp_logo.png"
   inkscape:export-xdpi="78.75"
   inkscape:export-ydpi="78.75"
   xmlns:inkscape="http://www.inkscape.org/namespaces/inkscape"
   xmlns:sodipodi="http://sodipodi.sourceforge.net/DTD/sodipodi-0.dtd"
   xmlns="http://www.w3.org/2000/svg"
   xmlns:svg="http://www.w3.org/2000/svg"><sodipodi:namedview
     id="namedview1"
     pagecolor="#505050"
     bordercolor="#ffffff"
     borderopacity="1"
     inkscape:showpageshadow="0"
     inkscape:pageopacity="0"
     inkscape:pagecheckerboard="1"
     inkscape:deskcolor="#505050"
     inkscape:zoom="1.1117597"
     inkscape:cx="202.8316"
     inkscape:cy="289.1812"
     inkscape:window-width="1920"
     inkscape:window-height="1011"
     inkscape:window-x="0"
     inkscape:window-y="0"
     inkscape:window-maximized="1"
     inkscape:current-layer="layer7" /><defs
     id="defs1"><filter
       style="color-interpolation-filters:sRGB"
       id="filter3"
       x="-0.058823884"
       y="-0.058823884"
       width="1.1176478"
       height="1.1176478"><feGaussianBlur
         stdDeviation="10.213423"
         id="feGaussianBlur3" /></filter><filter
       id="filter0_ddddd_1812_34261"
       x="21.5913"
       y="23.6934"
       width="149.817"
       height="181.612"
       filterUnits="userSpaceOnUse"
       color-interpolation-filters="sRGB"><feFlood
         flood-opacity="0"
         result="BackgroundImageFix"
         id="feFlood6" /><feColorMatrix
         in="SourceAlpha"
         type="matrix"
         values="0 0 0 0 0 0 0 0 0 0 0 0 0 0 0 0 0 0 127 0"
         result="hardAlpha"
         id="feColorMatrix6" /><feOffset
         id="feOffset6" /><feColorMatrix
         type="matrix"
         values="0 0 0 0 0 0 0 0 0 0 0 0 0 0 0 0 0 0 0.1 0"
         id="feColorMatrix7" /><feBlend
         mode="normal"
         in2="BackgroundImageFix"
         result="effect1_dropShadow_1812_34261"
         id="feBlend7" /><feColorMatrix
         in="SourceAlpha"
         type="matrix"
         values="0 0 0 0 0 0 0 0 0 0 0 0 0 0 0 0 0 0 127 0"
         result="hardAlpha"
         id="feColorMatrix8" /><feOffset
         dy="2"
         id="feOffset8" /><feGaussianBlur
         stdDeviation="2"
         id="feGaussianBlur8" /><feColorMatrix
         type="matrix"
         values="0 0 0 0 0 0 0 0 0 0 0 0 0 0 0 0 0 0 0.1 0"
         id="feColorMatrix9" /><feBlend
         mode="normal"
         in2="effect1_dropShadow_1812_34261"
         result="effect2_dropShadow_1812_34261"
         id="feBlend9" /><feColorMatrix
         in="SourceAlpha"
         type="matrix"
         values="0 0 0 0 0 0 0 0 0 0 0 0 0 0 0 0 0 0 127 0"
         result="hardAlpha"
         id="feColorMatrix10" /><feOffset
         dx="2"
         dy="7"
         id="feOffset10" /><feGaussianBlur
         stdDeviation="3.5"
         id="feGaussianBlur10" /><feColorMatrix
         type="matrix"
         values="0 0 0 0 0 0 0 0 0 0 0 0 0 0 0 0 0 0 0.09 0"
         id="feColorMatrix11" /><feBlend
         mode="normal"
         in2="effect2_dropShadow_1812_34261"
         result="effect3_dropShadow_1812_34261"
         id="feBlend11" /><feColorMatrix
         in="SourceAlpha"
         type="matrix"
         values="0 0 0 0 0 0 0 0 0 0 0 0 0 0 0 0 0 0 127 0"
         result="hardAlpha"
         id="feColorMatrix12" /><feOffset
         dx="4"
         dy="16"
         id="feOffset12" /><feGaussianBlur
         stdDeviation="5"
         id="feGaussianBlur12" /><feColorMatrix
         type="matrix"
         values="0 0 0 0 0 0 0 0 0 0 0 0 0 0 0 0 0 0 0.05 0"
         id="feColorMatrix13" /><feBlend
         mode="normal"
         in2="effect3_dropShadow_1812_34261"
         result="effect4_dropShadow_1812_34261"
         id="feBlend13" /><feColorMatrix
         in="SourceAlpha"
         type="matrix"
         values="0 0 0 0 0 0 0 0 0 0 0 0 0 0 0 0 0 0 127 0"
         result="hardAlpha"
         id="feColorMatrix14" /><feOffset
         dx="7"
         dy="29"
         id="feOffset14" /><feGaussianBlur
         stdDeviation="6"
         id="feGaussianBlur14" /><feColorMatrix
         type="matrix"
         values="0 0 0 0 0 0 0 0 0 0 0 0 0 0 0 0 0 0 0.01 0"
         id="feColorMatrix15" /><feBlend
         mode="normal"
         in2="effect4_dropShadow_1812_34261"
         result="effect5_dropShadow_1812_34261"
         id="feBlend15" /><feBlend
         mode="normal"
         in="SourceGraphic"
         in2="effect5_dropShadow_1812_34261"
         result="shape"
         id="feBlend16" /></filter><filter
       id="filter1_ddddd_1812_34261"
       x="43.8801"
       y="71.7133"
       width="92.2397"
       height="66.5777"
       filterUnits="userSpaceOnUse"
       color-interpolation-filters="sRGB"><feFlood
         flood-opacity="0"
         result="BackgroundImageFix"
         id="feFlood16" /><feColorMatrix
         in="SourceAlpha"
         type="matrix"
         values="0 0 0 0 0 0 0 0 0 0 0 0 0 0 0 0 0 0 127 0"
         result="hardAlpha"
         id="feColorMatrix16" /><feOffset
         id="feOffset16" /><feColorMatrix
         type="matrix"
         values="0 0 0 0 0 0 0 0 0 0 0 0 0 0 0 0 0 0 0.1 0"
         id="feColorMatrix17" /><feBlend
         mode="normal"
         in2="BackgroundImageFix"
         result="effect1_dropShadow_1812_34261"
         id="feBlend17" /><feColorMatrix
         in="SourceAlpha"
         type="matrix"
         values="0 0 0 0 0 0 0 0 0 0 0 0 0 0 0 0 0 0 127 0"
         result="hardAlpha"
         id="feColorMatrix18" /><feOffset
         dy="1"
         id="feOffset18" /><feGaussianBlur
         stdDeviation="1"
         id="feGaussianBlur18" /><feColorMatrix
         type="matrix"
         values="0 0 0 0 0 0 0 0 0 0 0 0 0 0 0 0 0 0 0.1 0"
         id="feColorMatrix19" /><feBlend
         mode="normal"
         in2="effect1_dropShadow_1812_34261"
         result="effect2_dropShadow_1812_34261"
         id="feBlend19" /><feColorMatrix
         in="SourceAlpha"
         type="matrix"
         values="0 0 0 0 0 0 0 0 0 0 0 0 0 0 0 0 0 0 127 0"
         result="hardAlpha"
         id="feColorMatrix20" /><feOffset
         dy="4"
         id="feOffset20" /><feGaussianBlur
         stdDeviation="2"
         id="feGaussianBlur20" /><feColorMatrix
         type="matrix"
         values="0 0 0 0 0 0 0 0 0 0 0 0 0 0 0 0 0 0 0.09 0"
         id="feColorMatrix21" /><feBlend
         mode="normal"
         in2="effect2_dropShadow_1812_34261"
         result="effect3_dropShadow_1812_34261"
         id="feBlend21" /><feColorMatrix
         in="SourceAlpha"
         type="matrix"
         values="0 0 0 0 0 0 0 0 0 0 0 0 0 0 0 0 0 0 127 0"
         result="hardAlpha"
         id="feColorMatrix22" /><feOffset
         dy="9"
         id="feOffset22" /><feGaussianBlur
         stdDeviation="2.5"
         id="feGaussianBlur22" /><feColorMatrix
         type="matrix"
         values="0 0 0 0 0 0 0 0 0 0 0 0 0 0 0 0 0 0 0.05 0"
         id="feColorMatrix23" /><feBlend
         mode="normal"
         in2="effect3_dropShadow_1812_34261"
         result="effect4_dropShadow_1812_34261"
         id="feBlend23" /><feColorMatrix
         in="SourceAlpha"
         type="matrix"
         values="0 0 0 0 0 0 0 0 0 0 0 0 0 0 0 0 0 0 127 0"
         result="hardAlpha"
         id="feColorMatrix24" /><feOffset
         dy="15"
         id="feOffset24" /><feGaussianBlur
         stdDeviation="3"
         id="feGaussianBlur24" /><feColorMatrix
         type="matrix"
         values="0 0 0 0 0 0 0 0 0 0 0 0 0 0 0 0 0 0 0.01 0"
         id="feColorMatrix25" /><feBlend
         mode="normal"
         in2="effect4_dropShadow_1812_34261"
         result="effect5_dropShadow_1812_34261"
         id="feBlend25" /><feBlend
         mode="normal"
         in="SourceGraphic"
         in2="effect5_dropShadow_1812_34261"
         result="shape"
         id="feBlend26" /></filter><linearGradient
       id="paint0_linear_1812_34261"
       x1="44.3292"
       y1="22.7978"
       x2="197.531"
       y2="204.708"
       gradientUnits="userSpaceOnUse"
       gradientTransform="translate(130.85637,196.38084)"><stop
         offset="0.00520833"
         stop-color="white"
         id="stop26" /><stop
         offset="1"
         stop-color="#D3C7FF"
         id="stop27" /></linearGradient><linearGradient
       id="paint1_linear_1812_34261"
       x1="30.4062"
       y1="45.2832"
       x2="109.459"
       y2="173.862"
       gradientUnits="userSpaceOnUse"
       gradientTransform="translate(130.85637,196.38084)"><stop
         stop-color="#927BE5"
         id="stop28" /><stop
         offset="1"
         stop-color="#512BD4"
         id="stop29" /></linearGradient><linearGradient
       id="paint2_linear_1812_34261"
       x1="39.8502"
       y1="55.9944"
       x2="100.03"
       y2="160.752"
       gradientUnits="userSpaceOnUse"><stop
         stop-color="#927BE5"
         id="stop30" /><stop
         offset="1"
         stop-color="#512BD4"
         id="stop31" /></linearGradient><clipPath
       clipPathUnits="userSpaceOnUse"
       id="clipPath1"><g
         id="g6"
         transform="translate(-130.85637,-196.38084)"><rect
           width="180"
           height="190"
           fill="#ffffff"
           id="rect4"
           x="130.85637"
           y="196.38084" /></g></clipPath><clipPath
       clipPathUnits="userSpaceOnUse"
       id="clipPath7"><g
         id="g8"><rect
           width="180"
           height="190"
           fill="#ffffff"
           id="rect7"
           x="130.85637"
           y="196.38084" /></g></clipPath><clipPath
       clipPathUnits="userSpaceOnUse"
       id="clipPath8"><g
         id="g9"><rect
           width="180"
           height="190"
           fill="#ffffff"
           id="rect8"
           x="130.85637"
           y="196.38084" /></g></clipPath><clipPath
       clipPathUnits="userSpaceOnUse"
       id="clipPath9"><g
         id="g10"><rect
           width="180"
           height="190"
           fill="#ffffff"
           id="rect9"
           x="130.85637"
           y="196.38084" /></g></clipPath><linearGradient
       id="paint2_linear_1812_34261-7"
       x1="39.850201"
       y1="55.9944"
       x2="100.03"
       y2="160.752"
       gradientUnits="userSpaceOnUse"
       gradientTransform="matrix(3.3347161,0,0,3.3347161,-44.12494,-60.795645)"><stop
         stop-color="#927BE5"
         id="stop30-5" /><stop
         offset="1"
         stop-color="#512BD4"
         id="stop31-3" /></linearGradient></defs><g
     inkscape:groupmode="layer"
     id="layer7"
     inkscape:label="SafeArea"
     style="display:none"><rect
       style="fill:#800000;stroke-width:2"
       id="rect1"
       width="512"
       height="512"
       x="0"
       y="0"
       inkscape:label="bg" /><rect
       style="opacity:0.48434;fill:#000000;fill-opacity:1;stroke:none;stroke-width:2.41934;filter:url(#filter3)"
       id="rect2"
       width="416.70514"
       height="416.70514"
       x="47.647438"
       y="47.647438"
       ry="81.419876"
       inkscape:label="shadow" /><rect
       style="fill:#0bc90b;fill-opacity:1;stroke:none;stroke-width:2.41934"
       id="rect3"
       width="416.70514"
       height="416.70514"
       x="47.647438"
       y="47.647438"
       ry="81.419876"
       inkscape:label="bound" /></g><g
     inkscape:groupmode="layer"
     id="layer2"
     inkscape:label="Badge"><path
       d="m 47.884212,170.16779 v 171.65018 c 0,21.24214 11.327364,40.88028 29.730662,51.49468 l 148.653976,85.83226 c 18.40329,10.62774 41.05835,10.62774 59.46165,0 l 148.65298,-85.83226 c 18.40429,-10.62774 29.73232,-30.25254 29.73232,-51.49468 V 170.16779 c 0,-21.24247 -11.32803,-40.87995 -29.73232,-51.49368 L 285.7305,32.85586 c -18.4033,-10.628746 -41.05836,-10.628746 -59.46165,0 L 77.614874,118.67411 c -18.403298,10.62874 -29.730662,30.25121 -29.730662,51.49368 z"
       fill="url(#paint2_linear_1812_34261)"
       id="path4-6"
       style="display:inline;fill:url(#paint2_linear_1812_34261-7);stroke-width:1" /></g><g
     inkscape:groupmode="layer"
     id="layer1"
     inkscape:label="CSharp"><g
       filter="url(#filter1_ddddd_1812_34261)"
       id="g5"
       transform="matrix(3.3347161,0,0,3.3347161,-44.124942,-60.805191)"
       style="fill:none;stroke-width:0.299876"
       clip-path="url(#clipPath1)"><path
         d="m 58.7957,86.0866 v 17.8314 c 0,1.181 0.468,2.318 1.3061,3.151 0.8381,0.838 1.9703,1.306 3.1516,1.306 1.1813,0 2.3181,-0.468 3.1517,-1.306 0.838,-0.838 1.3061,-1.97 1.3061,-3.151 0,-1.182 0.4681,-2.318 1.3061,-3.152 0.8381,-0.8381 1.9704,-1.3061 3.1517,-1.3061 1.1813,0 2.318,0.468 3.1516,1.3061 0.8381,0.838 1.3061,1.97 1.3061,3.152 0,3.548 -1.4086,6.949 -3.9183,9.455 -2.5098,2.509 -5.911,3.918 -9.455,3.918 -3.5439,0 -6.9496,-1.409 -9.4549,-3.918 -2.5097,-2.51 -3.9184,-5.911 -3.9184,-9.455 V 86.0866 c 0,-3.5484 1.4087,-6.9497 3.9184,-9.455 2.5097,-2.5097 5.911,-3.9183 9.4549,-3.9183 3.544,0 6.9497,1.4086 9.455,3.9183 2.5052,2.5098 3.9183,5.911 3.9183,9.455 0,1.1813 -0.468,2.318 -1.3061,3.1516 -0.8381,0.8381 -1.9703,1.3061 -3.1516,1.3061 -1.1813,0 -2.3181,-0.468 -3.1517,-1.3061 -0.838,-0.8381 -1.3061,-1.9703 -1.3061,-3.1516 0,-1.1813 -0.4681,-2.3181 -1.3061,-3.1517 -0.8381,-0.838 -1.9704,-1.3061 -3.1517,-1.3061 -1.1813,0 -2.318,0.4681 -3.1516,1.3061 -0.8381,0.8381 -1.3061,1.9704 -1.3061,3.1517 z M 130.12,103.918 c 0,1.181 -0.468,2.318 -1.306,3.151 -0.838,0.838 -1.971,1.306 -3.152,1.306 h -4.458 v 4.458 c 0,1.181 -0.468,2.318 -1.306,3.152 -0.838,0.833 -1.97,1.306 -3.151,1.306 -1.182,0 -2.318,-0.468 -3.152,-1.306 -0.834,-0.838 -1.306,-1.971 -1.306,-3.152 v -4.458 h -8.916 v 4.458 c 0,1.181 -0.468,2.318 -1.306,3.152 -0.838,0.833 -1.97,1.306 -3.1514,1.306 -1.1813,0 -2.3181,-0.468 -3.1517,-1.306 -0.838,-0.838 -1.3061,-1.971 -1.3061,-3.152 v -4.458 H 90 c -1.1813,0 -2.318,-0.468 -3.1516,-1.306 -0.8381,-0.838 -1.3061,-1.97 -1.3061,-3.151 0,-1.182 0.468,-2.318 1.3061,-3.152 0.8381,-0.8381 1.9703,-1.3061 3.1516,-1.3061 h 4.4578 V 90.5443 H 90 c -1.1813,0 -2.318,-0.468 -3.1516,-1.3061 -0.8381,-0.8381 -1.3061,-1.9703 -1.3061,-3.1516 0,-1.1813 0.468,-2.3181 1.3061,-3.1517 0.8381,-0.838 1.9703,-1.3061 3.1516,-1.3061 h 4.4578 V 77.171 c 0,-1.1813 0.4681,-2.318 1.3061,-3.1516 0.8381,-0.8381 1.9704,-1.3061 3.1517,-1.3061 1.1814,0 2.3184,0.468 3.1514,1.3061 0.838,0.838 1.306,1.9703 1.306,3.1516 v 4.4578 h 8.916 V 77.171 c 0,-1.1813 0.468,-2.318 1.306,-3.1516 0.838,-0.8381 1.97,-1.3061 3.152,-1.3061 1.181,0 2.318,0.468 3.151,1.3061 0.834,0.838 1.306,1.9703 1.306,3.1516 v 4.4578 h 4.458 c 1.181,0 2.318,0.4681 3.152,1.3061 0.833,0.8381 1.306,1.9704 1.306,3.1517 0,1.1813 -0.468,2.318 -1.306,3.1516 -0.838,0.8381 -1.971,1.3061 -3.152,1.3061 h -4.458 v 8.9156 h 4.458 c 1.181,0 2.318,0.468 3.152,1.3061 0.833,0.838 1.306,1.97 1.306,3.152 z M 112.289,90.5443 h -8.916 v 8.9156 h 8.916 z"
         fill="#ffffff"
         id="path5"
         style="stroke-width:0.299876" /></g></g></svg>
