<?xml version="1.0" encoding="UTF-8" standalone="no"?>
<!-- Created with Inkscape (http://www.inkscape.org/) -->

<svg
   width="512"
   height="512"
   viewBox="0 0 512 512"
   version="1.1"
   id="svg5"
   inkscape:version="1.3.2 (091e20e, 2023-11-25)"
   sodipodi:docname="css_logo_INKSCAPE.svg"
   xml:space="preserve"
   inkscape:export-filename="../css_logo.png"
   inkscape:export-xdpi="78.75"
   inkscape:export-ydpi="78.75"
   xmlns:inkscape="http://www.inkscape.org/namespaces/inkscape"
   xmlns:sodipodi="http://sodipodi.sourceforge.net/DTD/sodipodi-0.dtd"
   xmlns="http://www.w3.org/2000/svg"
   xmlns:svg="http://www.w3.org/2000/svg"><sodipodi:namedview
     id="namedview7"
     pagecolor="#505050"
     bordercolor="#ffffff"
     borderopacity="1"
     inkscape:pageshadow="0"
     inkscape:pageopacity="0"
     inkscape:pagecheckerboard="1"
     inkscape:document-units="px"
     showgrid="false"
     inkscape:snap-page="true"
     inkscape:zoom="0.81933594"
     inkscape:cx="266.06913"
     inkscape:cy="272.78188"
     inkscape:window-width="1920"
     inkscape:window-height="1011"
     inkscape:window-x="0"
     inkscape:window-y="0"
     inkscape:window-maximized="1"
     inkscape:current-layer="layer4"
     inkscape:showpageshadow="0"
     inkscape:deskcolor="#505050" /><defs
     id="defs2"><linearGradient
       id="linearGradient29561"
       inkscape:swatch="solid"><stop
         style="stop-color:#f0db4f;stop-opacity:1;"
         offset="0"
         id="stop29559" /></linearGradient><style
       id="style2">
      .cls-1 {
        fill: #393939;
      }

      .cls-2 {
        fill: #654ff0;
      }
    </style><inkscape:path-effect
       effect="fillet_chamfer"
       id="path-effect2522"
       is_visible="false"
       lpeversion="1"
       satellites_param="F,0,0,1,0,23,0,1 @ F,0,0,1,0,23,0,1 @ F,0,0,1,0,23,0,1 @ F,0,0,1,0,23,0,1 @ F,0,0,1,0,23,0,1 @ F,0,0,1,0,23,0,1 @ F,0,0,1,0,23,0,1 @ F,0,0,1,0,23,0,1 @ F,0,0,1,0,23,0,1 @ F,0,0,1,0,23,0,1 @ F,0,0,1,0,23,0,1 @ F,0,0,1,0,23,0,1"
       unit="px"
       method="auto"
       mode="F"
       radius="23"
       chamfer_steps="1"
       flexible="false"
       use_knot_distance="true"
       apply_no_radius="true"
       apply_with_radius="true"
       only_selected="false"
       hide_knots="false"
       nodesatellites_param="F,0,0,1,0,23,0,1 @ F,0,0,1,0,23,0,1 @ F,0,0,1,0,23,0,1 @ F,0,0,1,0,23,0,1 @ F,0,0,1,0,23,0,1 @ F,0,0,1,0,23,0,1 @ F,0,0,1,0,23,0,1 @ F,0,0,1,0,23,0,1 @ F,0,0,1,0,23,0,1 @ F,0,0,1,0,23,0,1 @ F,0,0,1,0,23,0,1 @ F,0,0,1,0,23,0,1" /><inkscape:path-effect
       effect="fillet_chamfer"
       id="path-effect2128"
       is_visible="true"
       lpeversion="1"
       satellites_param="F,0,0,1,0,25,0,1 @ F,0,0,1,0,25,0,1 @ F,0,0,1,0,25,0,1 @ F,0,0,1,0,25,0,1 @ F,0,0,1,0,25,0,1 @ F,0,0,1,0,25,0,1"
       unit="px"
       method="auto"
       mode="F"
       radius="25"
       chamfer_steps="1"
       flexible="false"
       use_knot_distance="true"
       apply_no_radius="true"
       apply_with_radius="true"
       only_selected="false"
       hide_knots="false"
       nodesatellites_param="F,0,0,1,0,25,0,1 @ F,0,0,1,0,25,0,1 @ F,0,0,1,0,25,0,1 @ F,0,0,1,0,25,0,1 @ F,0,0,1,0,25,0,1 @ F,0,0,1,0,25,0,1" /><inkscape:path-effect
       effect="bspline"
       id="path-effect2088"
       is_visible="true"
       lpeversion="1"
       weight="2"
       steps="10"
       helper_size="2"
       apply_no_weight="true"
       apply_with_weight="true"
       only_selected="false" /><mask
       maskUnits="userSpaceOnUse"
       id="mask19989"><path
         id="path19991"
         d="M 236.08144,500.49998 165.0674,459.4999 a 20833883,20833883 0 0 0 -39.83717,-23 L 54.216096,395.49998 A 39.837067,39.837067 0 0 1 34.297524,361.00001 L 34.297612,279 a 20833883,20833883 0 0 0 -10e-7,-46 l -9.3e-5,-81.99999 A 39.837067,39.837067 0 0 1 54.216089,116.50003 L 125.23023,75.5001 a 20833883,20833883 0 0 0 39.83717,-23 l 71.01403,-41.000079 a 39.837067,39.837067 0 0 1 39.83714,0 L 346.93262,52.5001 a 20833883,20833883 0 0 0 39.83717,23 l 71.01412,40.99992 a 39.837067,39.837067 0 0 1 19.91858,34.49997 L 477.7024,233 a 20833883,20833883 0 0 0 0,46 l 9e-5,81.99999 a 39.837067,39.837067 0 0 1 -19.91857,34.49998 l -71.01413,40.99993 a 20833883,20833883 0 0 0 -39.83717,23 l -71.01403,41.00008 a 39.837067,39.837067 0 0 1 -39.83715,0 z"
         style="font-variation-settings:'wght' 800;opacity:1;fill:#ffffff;fill-opacity:1"
         inkscape:label="gmask" /></mask><filter
       style="color-interpolation-filters:sRGB"
       id="filter3"
       x="-0.058823884"
       y="-0.058823884"
       width="1.1176478"
       height="1.1176478"><feGaussianBlur
         stdDeviation="10.213423"
         id="feGaussianBlur3" /></filter><filter
       style="color-interpolation-filters:sRGB"
       id="filter3-5"
       x="-0.058823884"
       y="-0.058823884"
       width="1.1176478"
       height="1.1176478"><feGaussianBlur
         stdDeviation="10.213423"
         id="feGaussianBlur3-9" /></filter><filter
       style="color-interpolation-filters:sRGB"
       id="filter3-5-7"
       x="-0.058823884"
       y="-0.058823884"
       width="1.1176478"
       height="1.1176478"><feGaussianBlur
         stdDeviation="10.213423"
         id="feGaussianBlur3-9-3" /></filter></defs><g
     inkscape:groupmode="layer"
     id="layer3"
     inkscape:label="SafeArea"
     transform="translate(13,4)"
     style="display:none"><rect
       style="fill:#800000;stroke-width:2"
       id="rect1"
       width="512"
       height="512"
       x="0"
       y="0"
       inkscape:label="bg"
       transform="translate(-13,-4)" /><rect
       style="opacity:0.48434;fill:#000000;fill-opacity:1;stroke:none;stroke-width:2.41934;filter:url(#filter3-5-7)"
       id="rect2"
       width="416.70514"
       height="416.70514"
       x="47.647438"
       y="47.647438"
       ry="81.419876"
       inkscape:label="shadow"
       transform="translate(-13,-4)" /><rect
       style="fill:#0bc90b;fill-opacity:1;stroke:none;stroke-width:2.41934"
       id="rect3"
       width="416.70514"
       height="416.70514"
       x="47.647438"
       y="47.647438"
       ry="81.419876"
       inkscape:label="bound"
       transform="translate(-13,-4)" /></g><g
     inkscape:groupmode="layer"
     id="layer1"
     inkscape:label="Square"
     style="display:inline"><path
       fill="#663399"
       d="M 52.695711,52.695714 H 394.24692 a 65.057373,65.057373 0 0 1 65.05737,65.057376 v 276.49383 a 65.057373,65.057373 0 0 1 -65.05737,65.05737 H 117.75308 A 65.057373,65.057373 0 0 1 52.695711,394.24692 Z"
       id="path1"
       style="stroke-width:1"
       inkscape:label="q" /></g><g
     inkscape:groupmode="layer"
     id="layer4"
     inkscape:label="Text"
     style="display:inline"><path
       fill="#ffffff"
       d="m 155.56768,384.89492 v -68.31024 c 0,-27.24277 17.48417,-41.88068 43.91373,-41.88068 26.02295,-0.40661 42.28729,16.67095 41.47407,45.54016 h -30.08903 c 0.81322,-10.97843 -4.06609,-19.1106 -12.19826,-18.704 -10.16521,0 -13.01147,6.91235 -13.01147,19.92383 v 59.36485 c 0,12.60486 4.06608,18.70399 13.01147,19.1106 9.352,0 13.01148,-9.352 12.19826,-19.92382 h 30.08903 c 1.62644,29.68243 -17.07756,47.1666 -43.50711,46.75999 -25.61635,0 -41.88069,-14.2313 -41.88069,-41.88069 z m 96.36624,-4.8793 h 28.05599 c 0.40661,13.01148 4.47269,21.14365 13.41808,21.14365 8.94539,0 12.19826,-5.28591 12.19826,-17.48417 0,-10.16522 -4.4727,-15.85774 -15.45113,-21.14365 l -10.57182,-4.8793 c -18.704,-8.94539 -26.42956,-19.92382 -26.42956,-41.88068 0,-24.39652 15.45113,-41.47408 40.66086,-41.47408 25.20973,0 38.62781,17.48417 39.03442,45.94677 h -27.24277 c 0,-11.79165 -2.43965,-19.92382 -11.38504,-19.92382 -8.13217,0 -12.19826,4.06609 -12.19826,14.2313 0,10.16521 3.65948,14.2313 13.41808,18.29739 l 9.75861,4.47269 c 20.73704,9.75861 29.68243,22.36347 29.68243,45.94677 0,28.05599 -15.85774,43.50712 -41.88069,43.50712 -26.02295,0 -40.66086,-17.89078 -41.06746,-46.75999 z m 91.89353,0 h 28.4626 c 0,13.01148 4.4727,21.14365 13.01148,21.14365 8.53878,0 12.19826,-5.28591 12.19826,-17.48417 0,-10.16522 -4.06609,-15.85774 -15.45113,-21.14365 l -10.57182,-4.8793 c -18.704,-8.94539 -26.02295,-19.92382 -26.02295,-41.88068 0,-24.39652 15.04452,-41.47408 40.66086,-41.47408 25.61634,0 38.2212,17.48417 39.03442,45.94677 H 397.9064 c -0.40661,-11.79165 -2.84626,-19.92382 -11.79165,-19.92382 -8.13218,0 -11.79165,4.06609 -11.79165,14.2313 0,10.16521 3.25287,14.2313 13.01147,18.29739 l 10.16522,4.47269 c 20.33043,9.75861 29.27581,22.36347 29.27581,45.94677 0,28.05599 -15.85773,43.50712 -41.88068,43.50712 -26.02295,0 -40.66086,-17.89078 -41.06747,-46.75999 z"
       id="path2"
       style="stroke-width:1"
       inkscape:label="CSS" /></g></svg>
