<?xml version="1.0" encoding="UTF-8" standalone="no"?>
<!-- Created with Inkscape (http://www.inkscape.org/) -->

<svg
   width="512"
   height="512"
   viewBox="0 0 512 512"
   version="1.1"
   id="svg1"
   sodipodi:docname="dart_logo_INKSCAPE.svg"
   inkscape:version="1.3.2 (091e20e, 2023-11-25)"
   xml:space="preserve"
   inkscape:export-filename="../dart_logo.png"
   inkscape:export-xdpi="78.75"
   inkscape:export-ydpi="78.75"
   xmlns:inkscape="http://www.inkscape.org/namespaces/inkscape"
   xmlns:sodipodi="http://sodipodi.sourceforge.net/DTD/sodipodi-0.dtd"
   xmlns="http://www.w3.org/2000/svg"
   xmlns:svg="http://www.w3.org/2000/svg"><sodipodi:namedview
     id="namedview1"
     pagecolor="#505050"
     bordercolor="#ffffff"
     borderopacity="1"
     inkscape:showpageshadow="0"
     inkscape:pageopacity="0"
     inkscape:pagecheckerboard="1"
     inkscape:deskcolor="#505050"
     inkscape:zoom="0.78613282"
     inkscape:cx="97.947825"
     inkscape:cy="235.96521"
     inkscape:window-width="1920"
     inkscape:window-height="1011"
     inkscape:window-x="0"
     inkscape:window-y="0"
     inkscape:window-maximized="1"
     inkscape:current-layer="layer1" /><defs
     id="defs1"><filter
       style="color-interpolation-filters:sRGB"
       id="filter3"
       x="-0.058823884"
       y="-0.058823884"
       width="1.1176478"
       height="1.1176478"><feGaussianBlur
         stdDeviation="10.213423"
         id="feGaussianBlur3" /></filter></defs><g
     inkscape:groupmode="layer"
     id="layer7"
     inkscape:label="SafeArea"
     style="display:none"><rect
       style="fill:#800000;stroke-width:2"
       id="rect1"
       width="512"
       height="512"
       x="0"
       y="0"
       inkscape:label="bg" /><rect
       style="opacity:0.48434;fill:#000000;fill-opacity:1;stroke:none;stroke-width:2.41934;filter:url(#filter3)"
       id="rect2"
       width="416.70514"
       height="416.70514"
       x="47.647438"
       y="47.647438"
       ry="81.419876"
       inkscape:label="shadow" /><rect
       style="fill:#0bc90b;fill-opacity:1;stroke:none;stroke-width:2.41934"
       id="rect3"
       width="416.70514"
       height="416.70514"
       x="47.647438"
       y="47.647438"
       ry="81.419876"
       inkscape:label="bound" /></g><g
     inkscape:groupmode="layer"
     id="layer1"
     inkscape:label="Dart"><g
       id="g7"
       transform="matrix(0.85646435,0,0,0.85646435,35.958843,35.958836)"
       style="stroke-width:1.1676">
	<path
   fill="#40c4ff"
   d="m 85.53,85.53 v 266.45 c 0,26.39 3.31,32.86 16.45,46.05 L 203.95,500 h 207.24 v -88.82 z"
   id="path1"
   style="stroke-width:1.1676" />
	<path
   fill="#29b6f6"
   d="m 85.53,351.97 c 0,26.39 3.31,32.86 16.45,46.05 l 13.16,13.16 H 411.19 L 85.53,85.53 Z"
   id="path2"
   style="stroke-width:1.1676" />
	<path
   fill="#01579b"
   d="M 85.53,85.53 6.58,250 C 3.76,255.98 0,266.38 0,273.03 c 0,14.36 6.32,29.06 16.45,39.47 l 85.53,85.53 C 88.84,384.84 85.53,378.36 85.53,351.98 Z"
   id="path3"
   style="stroke-width:1.1676" />
	<path
   fill="#55c5f8"
   d="M 105.26,401.32 C 92.12,388.13 88.81,381.65 88.81,355.27 V 88.82 l -3.29,-3.29 v 266.45 c 0,26.39 3.31,32.86 16.45,46.05 l 13.16,13.16 v 0 z"
   id="path4"
   style="stroke-width:1.1676" />
	<path
   fill="#01579b"
   d="M 348.68,85.53 H 85.53 L 411.19,411.19 H 500 V 207.24 L 394.74,101.97 C 379.95,87.13 366.82,85.53 348.68,85.53 Z"
   id="path5"
   style="stroke-width:1.1676" />
	<path
   fill="#40c4ff"
   d="M 394.74,101.97 309.21,16.44 C 301.74,8.95 286.18,0 273.03,0 261.72,0 250.62,2.26 243.43,6.58 L 85.53,85.53 h 263.16 c 18.13,0 31.26,1.6 46.05,16.44 z"
   id="path6"
   style="stroke-width:1.1676" />
	<polygon
   fill="#075087"
   points="411.18,411.18 500,411.18 500,207.24 496.71,203.95 496.71,407.89 407.89,407.89 "
   id="polygon6"
   style="stroke-width:1.1676" />
	<path
   fill="#3379ae"
   d="M 394.74,101.97 C 378.43,85.66 365.06,85.52 345.4,85.52 H 85.53 l 3.29,3.29 H 345.4 c 9.82,0.01 34.59,-1.64 49.34,13.16 z"
   id="path7"
   style="stroke-width:1.1676" />
</g></g></svg>
