<?xml version="1.0" encoding="UTF-8" standalone="no"?>
<!-- Created with Inkscape (http://www.inkscape.org/) -->

<svg
   width="512"
   height="512"
   viewBox="0 0 512 512"
   version="1.1"
   id="svg1"
   sodipodi:docname="generic_sql_logo.svg"
   inkscape:version="1.3.2 (091e20e, 2023-11-25)"
   inkscape:export-filename="../generic_sql_logo.png"
   inkscape:export-xdpi="78.75"
   inkscape:export-ydpi="78.75"
   xmlns:inkscape="http://www.inkscape.org/namespaces/inkscape"
   xmlns:sodipodi="http://sodipodi.sourceforge.net/DTD/sodipodi-0.dtd"
   xmlns="http://www.w3.org/2000/svg"
   xmlns:svg="http://www.w3.org/2000/svg">
  <sodipodi:namedview
     id="namedview1"
     pagecolor="#505050"
     bordercolor="#ffffff"
     borderopacity="1"
     inkscape:showpageshadow="0"
     inkscape:pageopacity="0"
     inkscape:pagecheckerboard="1"
     inkscape:deskcolor="#505050"
     inkscape:zoom="1.1117597"
     inkscape:cx="310.7686"
     inkscape:cy="241.50902"
     inkscape:window-width="1920"
     inkscape:window-height="1011"
     inkscape:window-x="0"
     inkscape:window-y="0"
     inkscape:window-maximized="1"
     inkscape:current-layer="layer1" />
  <defs
     id="defs1">
    <inkscape:path-effect
       effect="fillet_chamfer"
       id="path-effect5"
       is_visible="true"
       lpeversion="1"
       nodesatellites_param="F,0,0,1,0,2000,0,1 @ F,0,0,1,0,2000,0,1 @ F,0,0,1,0,2000,0,1 @ F,0,0,1,0,2000,0,1 @ F,0,0,1,0,2000,0,1 @ F,0,0,1,0,2000,0,1 @ F,0,0,1,0,2000,0,1 @ F,0,0,1,0,2000,0,1 @ F,0,0,1,0,2000,0,1 @ F,0,0,1,0,2000,0,1 @ F,0,0,1,0,2000,0,1 @ F,0,0,1,0,2000,0,1 @ F,0,0,1,0,2000,0,1 @ F,0,0,1,0,2000,0,1 @ F,0,0,1,0,2000,0,1 @ F,0,0,1,0,2000,0,1 @ F,0,0,1,0,2000,0,1 @ F,0,0,1,0,2000,0,1 @ F,0,0,1,0,2000,0,1 @ F,0,0,1,0,2000,0,1 @ F,0,0,1,0,2000,0,1 @ F,0,0,1,0,2000,0,1 @ F,0,0,1,0,2000,0,1 @ F,0,0,1,0,2000,0,1 @ F,0,0,1,0,2000,0,1 @ F,0,0,1,0,2000,0,1 @ F,0,0,1,0,2000,0,1 @ F,0,0,1,0,2000,0,1 @ F,0,0,1,0,2000,0,1 @ F,0,0,1,0,2000,0,1 @ F,0,0,1,0,2000,0,1 @ F,0,0,1,0,2000,0,1 @ F,0,0,1,0,2000,0,1 @ F,0,0,1,0,2000,0,1 @ F,0,0,1,0,2000,0,1 @ F,0,0,1,0,2000,0,1 @ F,0,0,1,0,2000,0,1 @ F,0,0,1,0,2000,0,1 @ F,0,0,1,0,2000,0,1 @ F,0,0,1,0,2000,0,1 @ F,0,0,1,0,2000,0,1 @ F,0,0,1,0,2000,0,1 @ F,0,0,1,0,2000,0,1 @ F,0,0,1,0,2000,0,1 @ F,0,0,1,0,2000,0,1 @ F,0,0,1,0,2000,0,1 @ F,0,0,1,0,2000,0,1 @ F,0,0,1,0,2000,0,1 @ F,0,0,1,0,2000,0,1 @ F,0,0,1,0,2000,0,1 @ F,0,0,1,0,2000,0,1 @ F,0,0,1,0,2000,0,1 @ F,0,0,1,0,2000,0,1 @ F,0,0,1,0,2000,0,1 @ F,0,0,1,0,2000,0,1 @ F,0,0,1,0,2000,0,1 @ F,0,0,1,0,2000,0,1 @ F,0,0,1,0,2000,0,1 @ F,0,0,1,0,2000,0,1 | F,0,0,1,0,2000,0,1 @ F,0,0,1,0,2000,0,1 @ F,0,0,1,0,2000,0,1 | F,0,0,1,0,2000,0,1 @ F,0,0,1,0,2000,0,1 @ F,0,0,1,0,2000,0,1 | F,0,0,1,0,2000,0,1 @ F,0,0,1,0,2000,0,1 | F,0,0,1,0,2000,0,1 @ F,0,0,1,0,2000,0,1 @ F,0,0,1,0,2000,0,1"
       radius="2000"
       unit="px"
       method="auto"
       mode="F"
       chamfer_steps="1"
       flexible="false"
       use_knot_distance="true"
       apply_no_radius="true"
       apply_with_radius="true"
       only_selected="false"
       hide_knots="false" />
    <inkscape:path-effect
       effect="fillet_chamfer"
       id="path-effect4"
       is_visible="true"
       lpeversion="1"
       nodesatellites_param="F,0,0,1,0,16,0,1 @ F,0,0,1,0,16,0,1 @ F,0,0,1,0,16,0,1 @ F,0,0,1,0,16,0,1 @ F,0,0,1,0,16,0,1 @ F,0,0,1,0,16,0,1 | F,0,0,1,0,16,0,1 @ F,0,0,1,0,16,0,1 @ F,0,0,1,0,16,0,1 @ F,0,0,1,0,16,0,1 @ F,0,0,1,0,16,0,1 @ F,0,0,1,0,16,0,1 | F,0,0,1,0,16,0,1 @ F,0,0,1,0,16,0,1 @ F,0,0,1,0,16,0,1 @ F,0,0,1,0,16,0,1 @ F,0,0,1,0,16,0,1 @ F,0,0,1,0,16,0,1 | F,0,0,1,0,16,0,1 @ F,0,0,1,0,16,0,1 @ F,0,0,1,0,16,0,1 @ F,0,0,1,0,16,0,1 @ F,0,0,1,0,16,0,1 @ F,0,0,1,0,16,0,1"
       radius="15"
       unit="px"
       method="auto"
       mode="F"
       chamfer_steps="1"
       flexible="false"
       use_knot_distance="true"
       apply_no_radius="true"
       apply_with_radius="true"
       only_selected="false"
       hide_knots="false" />
    <filter
       style="color-interpolation-filters:sRGB"
       id="filter3"
       x="-0.058823884"
       y="-0.058823884"
       width="1.1176478"
       height="1.1176478">
      <feGaussianBlur
         stdDeviation="10.213423"
         id="feGaussianBlur3" />
    </filter>
  </defs>
  <g
     inkscape:groupmode="layer"
     id="layer7"
     inkscape:label="SafeArea"
     style="display:none">
    <rect
       style="fill:#800000;stroke-width:2"
       id="rect1"
       width="512"
       height="512"
       x="0"
       y="0"
       inkscape:label="bg" />
    <rect
       style="opacity:0.48434;fill:#000000;fill-opacity:1;stroke:none;stroke-width:2.41934;filter:url(#filter3)"
       id="rect2"
       width="416.70514"
       height="416.70514"
       x="47.647438"
       y="47.647438"
       ry="81.419876"
       inkscape:label="shadow" />
    <rect
       style="display:inline;fill:#0bc90b;fill-opacity:1;stroke:none;stroke-width:2.41934"
       id="rect3"
       width="416.70514"
       height="416.70514"
       x="47.647438"
       y="47.647438"
       ry="81.419876"
       inkscape:label="bound" />
  </g>
  <g
     inkscape:groupmode="layer"
     id="layer1"
     inkscape:label="DB">
    <path
       id="path4"
       style="display:none;fill:#a93200;fill-opacity:1;stroke-width:4.00001;stroke-linecap:round;stroke-linejoin:round"
       d="m 251.14648,31.701172 c -1.10474,0.01669 -2.2097,0.03409 -3.31445,0.05078 -25.80761,0.5407 -51.64937,3.138232 -76.81445,9.013672 -14.71291,3.490539 -29.29386,8.053797 -42.70703,15.132813 -7.21653,3.863404 -14.17976,8.576401 -19.35547,15.005859 -3.33706,4.231827 -5.65014,9.624073 -5.01172,15.099609 0.12802,1.476747 0.58669,3.067975 1,4.371094 -1.99743,-1.184919 -4.84644,-0.529193 -6.023438,1.505859 -1.296117,2.064739 -0.96159,4.603902 -1.097656,6.923829 -0.007,17.461923 -0.03562,34.924743 0.02344,52.386723 0.190748,7.93242 0.618922,16.03905 3.404294,23.55078 0.31022,0.57163 0.4632,1.00062 -0.34375,1.07226 -2.162375,0.92741 -3.006665,3.43903 -2.988278,5.63282 -0.219352,5.30848 -0.0484,10.62225 -0.103516,15.93359 0.01369,13.39275 -0.04617,26.78753 0.04883,40.17969 0.199659,7.73361 0.684383,15.63181 3.423834,22.94336 0.23488,0.5895 0.49018,1.17136 0.77147,1.74023 -2.282857,0.24919 -3.809029,2.44276 -4.033194,4.60156 -0.389326,4.78234 -0.141045,9.58945 -0.210938,14.38282 0.01487,14.3594 -0.04901,28.72125 0.04883,43.08007 0.199659,7.73362 0.684383,15.63181 3.423832,22.94336 0.23425,0.61272 0.54271,1.24719 0.79687,1.81836 -2.294103,0.23751 -3.834805,2.4375 -4.058592,4.60547 -0.389326,4.78234 -0.141045,9.58946 -0.210938,14.38281 0.01487,14.35942 -0.04901,28.72127 0.04883,43.08008 0.199659,7.73362 0.684383,15.63181 3.42383,22.94336 1.18368,3.07537 3.08797,5.82747 5.4043,8.1582 6.54207,6.91974 14.83407,11.88822 23.34765,16 13.38245,6.39807 27.6796,10.66013 42.10938,13.95508 22.32654,5.01847 45.16405,7.53807 68.01562,8.36524 11.32969,0.35957 22.67245,0.3326 34,-0.0859 23.05554,-0.95646 46.09122,-3.65503 68.57032,-8.94727 14.07899,-3.34892 27.9976,-7.71805 40.99414,-14.15039 8.42959,-4.21409 16.57867,-9.3966 22.8496,-16.52539 2.12626,-2.39711 3.72268,-5.23804 4.66993,-8.29883 2.25907,-6.79201 2.67039,-14.01443 2.875,-21.11718 0.14482,-7.48714 0.0144,-14.97681 0.0625,-22.46485 -0.0173,-10.95392 0.046,-21.91035 -0.0469,-32.86328 -0.0437,-1.75646 -0.12197,-3.96963 -1.41406,-5.46094 -0.68586,-0.86078 -1.7094,-1.44333 -2.80469,-1.57031 3.08908,-6.75468 3.7745,-14.28059 4.11328,-21.61133 0.29674,-8.03808 0.0859,-16.08369 0.15235,-24.125 -0.0179,-11.35392 0.0472,-22.70957 -0.0469,-34.0625 -0.0437,-1.75644 -0.12197,-3.96964 -1.41406,-5.46093 -0.67876,-0.85028 -1.68674,-1.43304 -2.76953,-1.56446 3.07197,-6.76779 3.74846,-14.29816 4.08203,-21.63476 0.29097,-8.00488 0.0824,-16.0174 0.14844,-24.02539 -0.0179,-11.35392 0.0472,-22.70958 -0.0469,-34.0625 -0.0437,-1.75646 -0.12197,-3.96964 -1.41406,-5.46094 -0.58691,-0.72975 -1.41096,-1.27124 -2.32617,-1.48242 2.90158,-7.08238 3.43296,-14.83074 3.70117,-22.39649 0.18441,-7.75329 0.0328,-15.51102 0.0859,-23.26562 -0.0174,-11.02059 0.0462,-22.04291 -0.0469,-33.062503 -0.0437,-1.756456 -0.12197,-3.969638 -1.41406,-5.460937 -1.30801,-1.717483 -3.87241,-2.052335 -5.70508,-1.017579 1.46745,-3.972486 1.56224,-8.462594 0.0293,-12.43164 -2.17746,-5.981341 -6.78141,-10.68767 -11.68555,-14.566406 -7.97405,-6.228918 -17.22116,-10.577365 -26.60156,-14.238282 -16.24242,-6.200758 -33.28169,-10.06919 -50.42383,-12.789062 -22.20872,-3.486416 -44.72091,-4.875493 -67.19141,-4.65625 z"
       sodipodi:nodetypes="cccccccccccccccccccccccccccccccccccccccccccccccccccccccccccc" />
    <path
       id="path1"
       style="display:none;fill:#ffff00;stroke-width:4.00001;stroke-linecap:round;stroke-linejoin:round"
       d="m 252.7793,35.677734 c -9.77732,0.08888 -19.44282,0.481955 -29.19922,1.232422 -1.46144,0.124342 -3.23529,0.269205 -4.68946,0.388672 -14.31131,1.275864 -28.56346,3.313662 -42.60742,6.365234 -1.17672,0.26311 -2.52788,0.555962 -3.70703,0.837891 -12.88515,3.016969 -25.63938,6.881585 -37.63476,12.527344 -7.33047,3.503385 -14.49396,7.67453 -20.28516,13.445312 -3.19374,3.252877 -6.00898,7.225385 -6.69336,11.830079 -0.51956,3.57241 0.57886,7.18791 2.46484,10.207031 3.09563,4.969197 7.70673,8.777621 12.50782,12.023441 7.90286,5.26089 16.65026,9.10518 25.56445,12.29687 2.64721,0.94647 5.57987,1.90927 8.26172,2.73242 7.57124,2.32025 15.40288,4.24998 23.2207,5.85157 4.00273,0.8205 7.8803,1.5333 11.89844,2.18359 12.7071,2.10761 25.53307,3.44723 38.38672,4.24414 4.07599,0.24012 8.3377,0.44934 12.49023,0.57422 8.19241,0.24695 16.54316,0.26521 24.79492,0.0469 6.18338,-0.1574 12.49959,-0.4806 18.74024,-0.92578 4.74194,-0.33246 9.6066,-0.78068 14.39844,-1.29101 4.05462,-0.44336 8.28863,-0.97089 12.39843,-1.55664 2.89036,-0.42339 5.97389,-0.89774 8.92969,-1.40235 7.52016,-1.29696 15.05329,-2.83885 22.39649,-4.70312 3.15033,-0.7964 6.25382,-1.64866 9.28125,-2.55078 11.34581,-3.42881 22.56172,-7.63661 32.73242,-13.79688 5.33582,-3.33838 10.53548,-7.19113 14.23828,-12.355468 2.34159,-3.285198 3.94665,-7.334869 3.39844,-11.425781 -0.50932,-4.058223 -2.8172,-7.646518 -5.46289,-10.664062 -3.13795,-3.477072 -6.88871,-6.348791 -10.80664,-8.890625 -0.82225,-0.529691 -1.8787,-1.180416 -2.81446,-1.72461 -10.42917,-6.027368 -21.82761,-10.17484 -33.36133,-13.53125 -10.33826,-2.96188 -20.872,-5.21262 -31.48047,-6.960937 -1.44112,-0.23229 -2.98664,-0.480679 -4.46874,-0.699219 -9.10024,-1.379512 -18.27714,-2.39187 -27.41016,-3.091797 -6.62597,-0.511022 -13.17953,-0.849859 -19.81836,-1.048828 -5.14837,-0.14144 -10.45798,-0.201017 -15.66406,-0.167969 z m -150.15821,58.09375 c -0.73849,0.08406 -0.80664,2.122742 -0.80664,6.541016 v 46.8125 c 0,8.83655 0.27069,23.84149 5.63672,30.65039 16.72523,21.22246 68.89597,37.22624 132.55274,39.54492 8.8302,0.32164 23.16198,0.32164 31.99218,0 63.65677,-2.31868 115.82751,-18.32246 132.55274,-39.54492 5.36603,-6.8089 5.63672,-21.81384 5.63672,-30.65039 v -46.8125 c 0,-8.836547 -0.27069,-8.158508 -5.63672,-1.349609 -16.72523,21.222459 -68.89597,37.226239 -132.55274,39.544919 -8.8302,0.32164 -23.16198,0.32164 -31.99218,0 -63.65678,-2.31868 -115.82751,-18.32246 -132.55274,-39.544919 -2.68301,-3.404449 -4.09158,-5.275464 -4.83008,-5.191407 z m 0,85.667966 c -0.73849,0.0841 -0.80664,2.12275 -0.80664,6.54102 v 46.8125 c 0,8.83655 0.27069,23.84149 5.63672,30.65039 16.72523,21.22245 68.89597,37.22624 132.55274,39.54492 8.8302,0.32164 23.16198,0.32164 31.99218,0 63.65677,-2.31868 115.82751,-18.32246 132.55274,-39.54492 5.36603,-6.8089 5.63672,-21.81384 5.63672,-30.65039 v -46.8125 c 0,-8.83655 -0.27069,-8.15851 -5.63672,-1.34961 -16.72523,21.22245 -68.89597,37.22624 -132.55274,39.54492 -8.8302,0.32164 -23.16198,0.32164 -31.99218,0 -63.65677,-2.31868 -115.82751,-18.32246 -132.55274,-39.54492 -2.68301,-3.40445 -4.09158,-5.27546 -4.83008,-5.19141 z m 0,86.74805 c -0.73849,0.0841 -0.80664,2.12274 -0.80664,6.54102 v 46.8125 c 0,8.83654 0.27069,23.84149 5.63672,30.65039 16.72522,21.22245 68.89596,37.22623 132.55274,39.54492 8.8302,0.32164 23.16198,0.32164 31.99218,0 63.65678,-2.31869 115.82752,-18.32246 132.55274,-39.54492 5.36603,-6.8089 5.63672,-21.81385 5.63672,-30.65039 v -46.8125 c 0,-8.83655 -0.27069,-8.15851 -5.63672,-1.34961 -16.72522,21.22245 -68.89596,37.22623 -132.55274,39.54492 -8.8302,0.32164 -23.16198,0.32164 -31.99218,0 -63.65678,-2.31869 -115.82752,-18.32246 -132.55274,-39.54492 -2.68301,-3.40445 -4.09158,-5.27547 -4.83008,-5.19141 z m 0,86.83008 c -0.73849,0.084 -0.80664,2.12274 -0.80664,6.54101 v 46.8125 c 0,8.83655 0.27069,23.84149 5.63672,30.65039 16.72522,21.22246 68.89596,37.22624 132.55274,39.54493 8.8302,0.32163 23.16198,0.32163 31.99218,0 63.65678,-2.31869 115.82752,-18.32247 132.55274,-39.54493 5.36603,-6.80889 5.63672,-21.81384 5.63672,-30.65039 v -46.8125 c 0,-8.83654 -0.27069,-8.15851 -5.63672,-1.34961 -16.72522,21.22246 -68.89596,37.22624 -132.55274,39.54493 -8.8302,0.32163 -23.16198,0.32163 -31.99218,0 -63.65678,-2.31869 -115.82752,-18.32247 -132.55274,-39.54493 -2.68301,-3.40444 -4.09158,-5.27546 -4.83008,-5.1914 z" />
    <path
       id="path5-5"
       style="fill:#753702;fill-opacity:1;stroke-width:4;stroke-linecap:round;stroke-linejoin:round"
       d="m 253.49805,13.177734 c -26.29583,0.194113 -52.63433,2.367812 -78.44727,7.494141 -15.42236,3.112893 -30.71879,7.259069 -45.15234,13.595703 -8.13238,3.653776 -16.07558,8.019439 -22.73069,14.018751 -4.81983,4.398619 -8.986063,9.928936 -10.311903,16.439191 -0.769931,4.024766 -0.345561,8.142293 -0.457396,12.211199 0.0055,122.181961 -0.0058,244.364231 0.01016,366.546001 0.08783,5.68071 2.542107,11.08998 6.064841,15.46331 4.88151,6.06663 11.37646,10.60407 18.11955,14.38009 12.42186,6.82328 25.9703,11.31958 39.65016,14.85561 23.99526,6.0891 48.68353,9.08161 73.37793,10.32218 28.00042,1.31931 56.13886,0.23873 83.90882,-3.64233 16.54637,-2.37674 32.99506,-5.75145 48.90506,-10.93201 10.2711,-3.37992 20.36293,-7.54213 29.54159,-13.30848 6.12155,-3.8988 11.89848,-8.66202 15.81641,-14.84961 2.55874,-4.10763 4.03818,-8.94173 3.80859,-13.80312 -0.003,-124.50984 0.007,-249.0199 -0.0115,-373.529608 -0.16479,-6.600035 -3.55001,-12.71557 -8.00006,-17.427076 -6.44561,-6.87299 -14.72002,-11.689536 -23.16731,-15.685974 -13.79935,-6.40732 -28.51723,-10.589318 -43.35463,-13.798081 -23.36833,-4.99764 -47.2357,-7.396206 -71.10131,-8.147427 -5.48783,-0.166145 -10.97849,-0.223285 -16.46869,-0.20246 z" />
    <path
       id="path5"
       style="display:inline;fill:#fff116;fill-opacity:1;stroke-width:4;stroke-linecap:round;stroke-linejoin:round"
       d="m 249.92969,18.828077 c -2.54457,0.05715 -5.10116,0.08151 -7.57227,0.167969 -21.09297,0.638564 -42.17137,2.635677 -62.91797,6.546875 -13.07605,2.497713 -26.0495,5.728997 -38.54492,10.357422 -8.01534,2.987029 -15.87793,6.536632 -23.01953,11.279296 -4.48721,3.022913 -8.76632,6.541657 -11.86914,11.019532 -2.35849,3.375827 -3.9062,7.490171 -3.53516,11.654296 0.30459,4.163925 2.36752,7.995458 4.97461,11.177735 3.94997,4.778666 9.06874,8.431743 14.37305,11.566403 9.29429,5.39501 19.40566,9.218945 29.64844,12.382825 16.89616,5.11974 34.3221,8.32084 51.83008,10.45703 13.46385,1.62272 27.00579,2.55287 40.56054,2.92773 1.41438,0.0244 3.06663,0.0593 4.57227,0.0879 6.57994,0.11268 13.16134,0.0656 19.74023,-0.0898 1.41385,-0.0445 3.06523,-0.10108 4.57031,-0.15039 20.12282,-0.74142 40.22459,-2.73642 60.01758,-6.48438 12.97706,-2.48424 25.84944,-5.69798 38.25391,-10.2832 8.0479,-2.994805 15.94378,-6.553235 23.11328,-11.314455 4.48721,-3.022916 8.76632,-6.54166 11.86914,-11.019535 2.22121,-3.171662 3.68979,-6.971369 3.59766,-10.882813 -0.13216,-5.226484 -3.01374,-9.93583 -6.50586,-13.646484 -1.21752,-1.307372 -2.56535,-2.536847 -3.85938,-3.625 -7.07596,-5.824278 -15.37461,-9.943836 -23.81445,-13.398437 -8.97744,-3.636026 -18.44906,-6.474356 -27.85742,-8.783203 -12.89987,-3.14329 -26.0063,-5.362583 -39.13867,-6.939454 -19.41754,-2.319046 -38.90917,-3.248974 -58.48633,-3.007812 z M 100.39844,84.677686 V 140.89253 A 155.60152,51.867168 0 0 0 256,192.75972 155.60152,51.867168 0 0 0 411.60156,140.89253 V 84.691358 c -1.4221,2.254508 -3.12186,4.345757 -4.98437,6.218747 -5.90394,5.91895 -13.17177,10.266575 -20.63281,13.929695 -11.83792,5.69467 -24.43852,9.64379 -37.17188,12.77539 -19.67897,4.76048 -39.80627,7.50321 -59.98633,8.96289 -26.0985,1.82458 -52.35625,1.51605 -78.39062,-1.10156 -20.58424,-2.11314 -41.10354,-5.57865 -60.92578,-11.60938 -11.74243,-3.62341 -23.32993,-8.12945 -33.74805,-14.726565 -5.91908,-3.83272 -11.54946,-8.45821 -15.36328,-14.462889 z m 0,74.382814 v 56.21485 A 155.60152,51.867168 0 0 0 256,267.14253 155.60152,51.867168 0 0 0 411.60156,215.27535 v -56.20117 c -1.4221,2.2545 -3.12186,4.34576 -4.98437,6.21875 -5.90394,5.91894 -13.17177,10.26657 -20.63281,13.92968 -11.83792,5.69468 -24.43852,9.6438 -37.17188,12.77539 -19.67897,4.76048 -39.80627,7.50322 -59.98633,8.96289 -26.0985,1.82458 -52.35625,1.51605 -78.39062,-1.10156 -20.58424,-2.11314 -41.10354,-5.57865 -60.92578,-11.60937 -11.74243,-3.62342 -23.32993,-8.12946 -33.74805,-14.72657 -5.91908,-3.83272 -11.54946,-8.45821 -15.36328,-14.46289 z m 0,74.8418 v 56.21484 A 155.60152,51.867168 0 0 0 256,341.98433 155.60152,51.867168 0 0 0 411.60156,290.11714 v -56.20117 c -1.4221,2.25451 -3.12186,4.34576 -4.98437,6.21875 -5.90394,5.91895 -13.17177,10.26657 -20.63281,13.92969 -11.83792,5.69467 -24.43852,9.64379 -37.17188,12.77539 -19.67897,4.76048 -39.80627,7.50321 -59.98633,8.96289 -26.0985,1.82458 -52.35625,1.51605 -78.39062,-1.10156 -20.58424,-2.11314 -41.10354,-5.57865 -60.92578,-11.60938 -11.74243,-3.62341 -23.32993,-8.12946 -33.74805,-14.72656 -5.91908,-3.83272 -11.54946,-8.45822 -15.36328,-14.46289 z m 0,75.41016 V 365.5273 A 155.60152,51.867168 0 0 0 256,417.39449 155.60152,51.867168 0 0 0 411.60156,365.5273 v -56.20117 c -1.4221,2.25451 -3.12186,4.34576 -4.98437,6.21875 -5.90394,5.91894 -13.17177,10.26657 -20.63281,13.92969 -11.83792,5.69467 -24.43852,9.64379 -37.17188,12.77539 -19.67897,4.76047 -39.80627,7.50321 -59.98633,8.96289 -26.0985,1.82458 -52.35625,1.51604 -78.39062,-1.10156 -20.58424,-2.11314 -41.10354,-5.57866 -60.92578,-11.60938 -11.74243,-3.62342 -23.32993,-8.12946 -33.74805,-14.72656 -5.91908,-3.83273 -11.54946,-8.45822 -15.36328,-14.46289 z m 0,75.81445 v 56.21484 A 155.60152,51.867168 0 0 0 256,493.20894 155.60152,51.867168 0 0 0 411.60156,441.34175 v -56.20117 c -1.4221,2.25451 -3.12186,4.34576 -4.98437,6.21875 -5.90394,5.91895 -13.17177,10.26657 -20.63281,13.92969 -11.83792,5.69467 -24.43852,9.64379 -37.17188,12.77539 -19.67897,4.76048 -39.80627,7.50321 -59.98633,8.96289 -26.0985,1.82458 -52.35625,1.51605 -78.39062,-1.10156 -20.58424,-2.11314 -41.10354,-5.57865 -60.92578,-11.60938 -11.74243,-3.62341 -23.32993,-8.12946 -33.74805,-14.72656 -5.91908,-3.83273 -11.54946,-8.45822 -15.36328,-14.46289 z" />
  </g>
</svg>
