<?xml version="1.0" encoding="UTF-8" standalone="no"?>
<!-- Created with Inkscape (http://www.inkscape.org/) -->

<svg
   width="512"
   height="512"
   viewBox="0 0 512 512"
   version="1.1"
   id="svg1"
   sodipodi:docname="go_logo_INKSCAPE.svg"
   inkscape:version="1.3.2 (091e20e, 2023-11-25)"
   xml:space="preserve"
   inkscape:export-filename="../go_logo.png"
   inkscape:export-xdpi="78.75"
   inkscape:export-ydpi="78.75"
   xmlns:inkscape="http://www.inkscape.org/namespaces/inkscape"
   xmlns:sodipodi="http://sodipodi.sourceforge.net/DTD/sodipodi-0.dtd"
   xmlns="http://www.w3.org/2000/svg"
   xmlns:svg="http://www.w3.org/2000/svg"><sodipodi:namedview
     id="namedview1"
     pagecolor="#505050"
     bordercolor="#ffffff"
     borderopacity="1"
     inkscape:showpageshadow="0"
     inkscape:pageopacity="0"
     inkscape:pagecheckerboard="1"
     inkscape:deskcolor="#505050"
     inkscape:zoom="1.1117597"
     inkscape:cx="174.49814"
     inkscape:cy="265.79485"
     inkscape:window-width="1920"
     inkscape:window-height="1011"
     inkscape:window-x="0"
     inkscape:window-y="0"
     inkscape:window-maximized="1"
     inkscape:current-layer="layer1" /><defs
     id="defs1"><filter
       style="color-interpolation-filters:sRGB"
       id="filter3"
       x="-0.058823884"
       y="-0.058823884"
       width="1.1176478"
       height="1.1176478"><feGaussianBlur
         stdDeviation="10.213423"
         id="feGaussianBlur3" /></filter></defs><g
     inkscape:groupmode="layer"
     id="layer7"
     inkscape:label="SafeArea"
     style="display:none"><rect
       style="fill:#800000;stroke-width:2"
       id="rect1"
       width="512"
       height="512"
       x="0"
       y="0"
       inkscape:label="bg" /><rect
       style="opacity:0.48434;fill:#000000;fill-opacity:1;stroke:none;stroke-width:2.41934;filter:url(#filter3)"
       id="rect2"
       width="416.70514"
       height="416.70514"
       x="47.647438"
       y="47.647438"
       ry="81.419876"
       inkscape:label="shadow" /><rect
       style="fill:#0bc90b;fill-opacity:1;stroke:none;stroke-width:2.41934"
       id="rect3"
       width="416.70514"
       height="416.70514"
       x="47.647438"
       y="47.647438"
       ry="81.419876"
       inkscape:label="bound" /></g><g
     inkscape:groupmode="layer"
     id="layer1"
     inkscape:label="Go"><g
       id="g14"
       transform="matrix(2.3813387,0,0,2.3813387,-59.0572,-20.789749)"
       style="stroke-width:0.419932">
	<g
   id="g3"
   style="stroke-width:0.419932">
		<g
   id="g2"
   style="stroke-width:0.419932">
			<g
   id="g1"
   style="stroke-width:0.419932">
				<path
   class="st4"
   d="m 40.2,101.1 c -0.4,0 -0.5,-0.2 -0.3,-0.5 L 42,97.9 c 0.2,-0.3 0.7,-0.5 1.1,-0.5 h 35.7 c 0.4,0 0.5,0.3 0.3,0.6 l -1.7,2.6 c -0.2,0.3 -0.7,0.6 -1,0.6 z"
   id="path1"
   style="stroke-width:0.419932" />
			</g>
		</g>
	</g>
	<g
   id="g6"
   style="stroke-width:0.419932">
		<g
   id="g5"
   style="stroke-width:0.419932">
			<g
   id="g4"
   style="stroke-width:0.419932">
				<path
   class="st4"
   d="m 25.1,110.3 c -0.4,0 -0.5,-0.2 -0.3,-0.5 l 2.1,-2.7 c 0.2,-0.3 0.7,-0.5 1.1,-0.5 h 45.6 c 0.4,0 0.6,0.3 0.5,0.6 l -0.8,2.4 c -0.1,0.4 -0.5,0.6 -0.9,0.6 z"
   id="path3"
   style="stroke-width:0.419932" />
			</g>
		</g>
	</g>
	<g
   id="g9"
   style="stroke-width:0.419932">
		<g
   id="g8"
   style="stroke-width:0.419932">
			<g
   id="g7"
   style="stroke-width:0.419932">
				<path
   class="st4"
   d="m 49.3,119.5 c -0.4,0 -0.5,-0.3 -0.3,-0.6 l 1.4,-2.5 c 0.2,-0.3 0.6,-0.6 1,-0.6 h 20 c 0.4,0 0.6,0.3 0.6,0.7 l -0.2,2.4 c 0,0.4 -0.4,0.7 -0.7,0.7 z"
   id="path6"
   style="stroke-width:0.419932" />
			</g>
		</g>
	</g>
	<g
   id="g13"
   style="stroke-width:0.419932">
		<g
   id="CXHf1q_3_"
   style="stroke-width:0.419932">
			<g
   id="g12"
   style="stroke-width:0.419932">
				<g
   id="g10"
   style="stroke-width:0.419932">
					<path
   class="st4"
   d="m 153.1,99.3 c -6.3,1.6 -10.6,2.8 -16.8,4.4 -1.5,0.4 -1.6,0.5 -2.9,-1 -1.5,-1.7 -2.6,-2.8 -4.7,-3.8 -6.3,-3.1 -12.4,-2.2 -18.1,1.5 -6.8,4.4 -10.3,10.9 -10.2,19 0.1,8 5.6,14.6 13.5,15.7 6.8,0.9 12.5,-1.5 17,-6.6 0.9,-1.1 1.7,-2.3 2.7,-3.7 -3.6,0 -8.1,0 -19.3,0 -2.1,0 -2.6,-1.3 -1.9,-3 1.3,-3.1 3.7,-8.3 5.1,-10.9 0.3,-0.6 1,-1.6 2.5,-1.6 5.1,0 23.9,0 36.4,0 -0.2,2.7 -0.2,5.4 -0.6,8.1 -1.1,7.2 -3.8,13.8 -8.2,19.6 -7.2,9.5 -16.6,15.4 -28.5,17 -9.8,1.3 -18.9,-0.6 -26.9,-6.6 -7.4,-5.6 -11.6,-13 -12.7,-22.2 -1.3,-10.9 1.9,-20.7 8.5,-29.3 7.1,-9.3 16.5,-15.2 28,-17.3 9.4,-1.7 18.4,-0.6 26.5,4.9 5.3,3.5 9.1,8.3 11.6,14.1 0.6,0.9 0.2,1.4 -1,1.7 z"
   id="path9"
   style="stroke-width:0.419932" />
				</g>
				<g
   id="g11"
   style="stroke-width:0.419932">
					<path
   class="st4"
   d="m 186.2,154.6 c -9.1,-0.2 -17.4,-2.8 -24.4,-8.8 -5.9,-5.1 -9.6,-11.6 -10.8,-19.3 -1.8,-11.3 1.3,-21.3 8.1,-30.2 7.3,-9.6 16.1,-14.6 28,-16.7 10.2,-1.8 19.8,-0.8 28.5,5.1 7.9,5.4 12.8,12.7 14.1,22.3 1.7,13.5 -2.2,24.5 -11.5,33.9 -6.6,6.7 -14.7,10.9 -24,12.8 -2.7,0.5 -5.4,0.6 -8,0.9 z M 210,114.2 c -0.1,-1.3 -0.1,-2.3 -0.3,-3.3 -1.8,-9.9 -10.9,-15.5 -20.4,-13.3 -9.3,2.1 -15.3,8 -17.5,17.4 -1.8,7.8 2,15.7 9.2,18.9 5.5,2.4 11,2.1 16.3,-0.6 7.9,-4.1 12.2,-10.5 12.7,-19.1 z"
   id="path10"
   style="stroke-width:0.419932" />
				</g>
			</g>
		</g>
	</g>
</g></g><style
     type="text/css"
     id="style1">
	.st0{fill:#2DBCAF;}
	.st1{fill:#5DC9E1;}
	.st2{fill:#FDDD00;}
	.st3{fill:#CE3262;}
	.st4{fill:#00ACD7;}
	.st5{fill:#FFFFFF;}
</style></svg>
