<?xml version="1.0" encoding="UTF-8" standalone="no"?>
<!-- Created with Inkscape (http://www.inkscape.org/) -->

<svg
   width="512"
   height="512"
   viewBox="0 0 512 512"
   version="1.1"
   id="svg1"
   sodipodi:docname="java_logo_INKSCAPE.svg"
   inkscape:version="1.3.2 (091e20e, 2023-11-25)"
   xml:space="preserve"
   inkscape:export-filename="../java_logo.png"
   inkscape:export-xdpi="78.75"
   inkscape:export-ydpi="78.75"
   xmlns:inkscape="http://www.inkscape.org/namespaces/inkscape"
   xmlns:sodipodi="http://sodipodi.sourceforge.net/DTD/sodipodi-0.dtd"
   xmlns="http://www.w3.org/2000/svg"
   xmlns:svg="http://www.w3.org/2000/svg"><sodipodi:namedview
     id="namedview1"
     pagecolor="#505050"
     bordercolor="#ffffff"
     borderopacity="1"
     inkscape:showpageshadow="0"
     inkscape:pageopacity="0"
     inkscape:pagecheckerboard="1"
     inkscape:deskcolor="#505050"
     inkscape:zoom="1.1117597"
     inkscape:cx="246.90587"
     inkscape:cy="249.6043"
     inkscape:window-width="1920"
     inkscape:window-height="1011"
     inkscape:window-x="0"
     inkscape:window-y="0"
     inkscape:window-maximized="1"
     inkscape:current-layer="layer1" /><defs
     id="defs1"><filter
       style="color-interpolation-filters:sRGB"
       id="filter3"
       x="-0.058823884"
       y="-0.058823884"
       width="1.1176478"
       height="1.1176478"><feGaussianBlur
         stdDeviation="10.213423"
         id="feGaussianBlur3" /></filter></defs><g
     inkscape:groupmode="layer"
     id="layer7"
     inkscape:label="SafeArea"
     style="display:none"><rect
       style="fill:#800000;stroke-width:2"
       id="rect1"
       width="512"
       height="512"
       x="0"
       y="0"
       inkscape:label="bg" /><rect
       style="opacity:0.48434;fill:#000000;fill-opacity:1;stroke:none;stroke-width:2.41934;filter:url(#filter3)"
       id="rect2"
       width="416.70514"
       height="416.70514"
       x="47.647438"
       y="47.647438"
       ry="81.419876"
       inkscape:label="shadow" /><rect
       style="fill:#0bc90b;fill-opacity:1;stroke:none;stroke-width:2.41934"
       id="rect3"
       width="416.70514"
       height="416.70514"
       x="47.647438"
       y="47.647438"
       ry="81.419876"
       inkscape:label="bound" /></g><g
     inkscape:groupmode="layer"
     id="layer1"
     inkscape:label="Java"><path
       id="path388"
       style="font-variation-settings:'wght' 700;fill:#196d80;fill-opacity:1;stroke-width:22.5309"
       d="m 392.31504,257.69664 c -11.5652,0.0752 -20.88504,4.31915 -20.88504,4.31915 0,0 12.96441,1.23454 19.19523,3.06718 8.4828,2.49503 23.52958,16.00356 13.3535,39.96147 -10.90339,25.67026 -50.67242,47.46221 -50.67242,47.46221 0,0 17.92506,-4.21826 41.47965,-16.10604 16.09465,-8.12283 49.07082,-35.03362 28.52442,-63.39223 -8.83799,-12.19838 -20.79074,-15.37809 -30.99534,-15.31174 z m -189.89945,5.45449 c 0,0 -44.7022,0.64894 -69.15475,14.88929 -17.01803,9.91073 12.55734,19.81566 35.65771,24.69593 27.26932,5.76102 97.42212,8.08098 130.98479,4.19153 33.56267,-3.88945 61.87625,-14.63406 61.87625,-14.63406 l -12.77703,-8.63609 c 0,0 -62.64279,11.31535 -91.58,11.08501 -28.93721,-0.23036 -90.53419,-4.54352 -97.1269,-12.72421 -7.40392,-9.18731 42.11994,-18.8674 42.11993,-18.8674 z m -19.69909,56.51856 c 0,0 -40.03703,3.15342 -33.67527,18.44274 4.39808,10.57002 57.46021,21.62798 111.3627,19.53188 52.21307,-2.03042 80.69963,-14.51305 80.69963,-14.51305 l -18.57475,-10.38311 c 0,0 -34.53325,7.54657 -74.54764,8.32146 -39.92743,0.77319 -62.08509,-6.8334 -68.31866,-10.9882 -5.45771,-3.63767 3.05399,-10.41172 3.05399,-10.41172 z m 14.60325,53.95084 c 0,0 -34.54861,4.14371 -26.44295,18.95099 5.43836,9.93475 44.25778,17.80981 86.59417,17.2986 36.96964,-0.44642 62.3823,-13.3689 62.3823,-13.3689 l -20.65402,-13.02785 c 0,0 -14.91469,4.27988 -42.96044,5.39069 -28.04576,1.11082 -47.22213,-1.46404 -56.40195,-5.84834 -9.17982,-4.38431 -2.51711,-9.39519 -2.51711,-9.39519 z m -44.84388,15.55597 c 0,0 -10.9328,0.61556 -19.05662,2.45331 -4.45866,1.00862 -34.216197,6.65845 -46.821928,19.58468 -12.605729,12.92622 7.180764,21.88107 23.362558,27.6729 15.17518,5.43156 61.89764,15.01399 122.76016,15.05871 47.11289,0.0346 98.99725,-4.88774 129.4974,-13.63953 24.04763,-6.90027 34.53655,-16.42658 35.5455,-22.73547 1.00894,-6.30891 -5.61291,-10.54154 -5.61291,-10.54154 0,0 -3.7635,6.25747 -11.45246,11.45245 -7.68894,5.19498 -22.5739,9.40248 -45.17391,14.2226 -20.22304,4.31316 -79.32423,9.9043 -131.7813,5.29828 -45.95049,-4.03473 -85.80415,-14.68536 -86.36314,-26.52217 -0.55898,-11.83681 35.09665,-22.30422 35.09665,-22.30422 z m 264.58132,39.69082 c -10e-6,0 -7.17043,7.64571 -16.41188,13.12907 -9.24145,5.48334 -37.22865,18.42695 -105.25694,26.32853 -67.9871,7.89679 -153.31762,-3.82188 -153.31762,-3.82188 0,0 38.89311,11.31958 86.18712,13.57132 30.78762,1.46583 73.49427,-0.673 101.23042,-5.04304 27.73615,-4.37005 61.64738,-12.81625 78.39593,-28.04475 12.77966,-11.61981 9.17297,-16.11925 9.17297,-16.11925 z"
       inkscape:label="cup" /><path
       id="path486"
       style="font-variation-settings:'wght' 700;fill:#e6892e;fill-opacity:1;stroke-width:22.5309"
       d="m 300.74385,-5.8981904e-8 c 0,0 6.28106,14.906715058981903 -1.45218,40.6237460589819 -7.73325,25.71703 -41.94523,51.803942 -63.06879,70.925984 -21.12356,19.12203 -55.46235,41.71737 -48.1289,83.51378 7.33346,41.79639 61.61881,68.31205 61.61881,68.31205 0,0 -24.39166,-24.13998 -34.75121,-54.91456 -11.23913,-33.38751 10.48944,-56.27885 35.21547,-77.3662 24.72603,-21.08735 55.56702,-50.784129 62.49232,-83.665592 C 318.39956,20.222081 300.74385,-5.898195e-8 300.74385,-5.8981904e-8 Z M 347.35895,98.605491 c 0,0 -42.77569,10.691649 -73.38589,41.132009 -25.42422,25.28316 -21.73729,56.89446 -6.33901,76.92175 14.15002,18.40375 17.95981,34.66067 14.05539,43.78114 -3.90442,9.12046 -8.72191,17.96088 -8.72191,17.96088 0,0 30.45202,-14.88001 34.61038,-42.25415 2.79086,-18.37202 -24.7814,-42.57753 -24.40108,-64.25255 0.51203,-29.18212 28.1793,-49.56234 36.11977,-54.86175 16.59955,-11.0784 28.06235,-18.427329 28.06235,-18.427329 z"
       inkscape:label="smoke" /></g></svg>
