<?xml version="1.0" encoding="UTF-8" standalone="no"?>
<!-- Created with Inkscape (http://www.inkscape.org/) -->

<svg
   width="512"
   height="512"
   viewBox="0 0 512 512"
   version="1.1"
   id="svg5"
   inkscape:version="1.3.2 (091e20e, 2023-11-25)"
   sodipodi:docname="javascript_logo_INKSCAPE.svg"
   xml:space="preserve"
   inkscape:export-filename="../javascript_logo.png"
   inkscape:export-xdpi="78.75"
   inkscape:export-ydpi="78.75"
   xmlns:inkscape="http://www.inkscape.org/namespaces/inkscape"
   xmlns:sodipodi="http://sodipodi.sourceforge.net/DTD/sodipodi-0.dtd"
   xmlns="http://www.w3.org/2000/svg"
   xmlns:svg="http://www.w3.org/2000/svg"><sodipodi:namedview
     id="namedview7"
     pagecolor="#505050"
     bordercolor="#ffffff"
     borderopacity="1"
     inkscape:pageshadow="0"
     inkscape:pageopacity="0"
     inkscape:pagecheckerboard="1"
     inkscape:document-units="px"
     showgrid="false"
     inkscape:snap-page="true"
     inkscape:zoom="1.158716"
     inkscape:cx="239.92074"
     inkscape:cy="285.22951"
     inkscape:window-width="1920"
     inkscape:window-height="1011"
     inkscape:window-x="0"
     inkscape:window-y="0"
     inkscape:window-maximized="1"
     inkscape:current-layer="layer4"
     inkscape:showpageshadow="0"
     inkscape:deskcolor="#505050" /><defs
     id="defs2"><linearGradient
       id="linearGradient29561"
       inkscape:swatch="solid"><stop
         style="stop-color:#f0db4f;stop-opacity:1;"
         offset="0"
         id="stop29559" /></linearGradient><style
       id="style2">
      .cls-1 {
        fill: #393939;
      }

      .cls-2 {
        fill: #654ff0;
      }
    </style><inkscape:path-effect
       effect="fillet_chamfer"
       id="path-effect2522"
       is_visible="false"
       lpeversion="1"
       satellites_param="F,0,0,1,0,23,0,1 @ F,0,0,1,0,23,0,1 @ F,0,0,1,0,23,0,1 @ F,0,0,1,0,23,0,1 @ F,0,0,1,0,23,0,1 @ F,0,0,1,0,23,0,1 @ F,0,0,1,0,23,0,1 @ F,0,0,1,0,23,0,1 @ F,0,0,1,0,23,0,1 @ F,0,0,1,0,23,0,1 @ F,0,0,1,0,23,0,1 @ F,0,0,1,0,23,0,1"
       unit="px"
       method="auto"
       mode="F"
       radius="23"
       chamfer_steps="1"
       flexible="false"
       use_knot_distance="true"
       apply_no_radius="true"
       apply_with_radius="true"
       only_selected="false"
       hide_knots="false"
       nodesatellites_param="F,0,0,1,0,23,0,1 @ F,0,0,1,0,23,0,1 @ F,0,0,1,0,23,0,1 @ F,0,0,1,0,23,0,1 @ F,0,0,1,0,23,0,1 @ F,0,0,1,0,23,0,1 @ F,0,0,1,0,23,0,1 @ F,0,0,1,0,23,0,1 @ F,0,0,1,0,23,0,1 @ F,0,0,1,0,23,0,1 @ F,0,0,1,0,23,0,1 @ F,0,0,1,0,23,0,1" /><inkscape:path-effect
       effect="fillet_chamfer"
       id="path-effect2128"
       is_visible="true"
       lpeversion="1"
       satellites_param="F,0,0,1,0,25,0,1 @ F,0,0,1,0,25,0,1 @ F,0,0,1,0,25,0,1 @ F,0,0,1,0,25,0,1 @ F,0,0,1,0,25,0,1 @ F,0,0,1,0,25,0,1"
       unit="px"
       method="auto"
       mode="F"
       radius="25"
       chamfer_steps="1"
       flexible="false"
       use_knot_distance="true"
       apply_no_radius="true"
       apply_with_radius="true"
       only_selected="false"
       hide_knots="false"
       nodesatellites_param="F,0,0,1,0,25,0,1 @ F,0,0,1,0,25,0,1 @ F,0,0,1,0,25,0,1 @ F,0,0,1,0,25,0,1 @ F,0,0,1,0,25,0,1 @ F,0,0,1,0,25,0,1" /><inkscape:path-effect
       effect="bspline"
       id="path-effect2088"
       is_visible="true"
       lpeversion="1"
       weight="2"
       steps="10"
       helper_size="2"
       apply_no_weight="true"
       apply_with_weight="true"
       only_selected="false" /><mask
       maskUnits="userSpaceOnUse"
       id="mask19989"><path
         id="path19991"
         d="M 236.08144,500.49998 165.0674,459.4999 a 20833883,20833883 0 0 0 -39.83717,-23 L 54.216096,395.49998 A 39.837067,39.837067 0 0 1 34.297524,361.00001 L 34.297612,279 a 20833883,20833883 0 0 0 -10e-7,-46 l -9.3e-5,-81.99999 A 39.837067,39.837067 0 0 1 54.216089,116.50003 L 125.23023,75.5001 a 20833883,20833883 0 0 0 39.83717,-23 l 71.01403,-41.000079 a 39.837067,39.837067 0 0 1 39.83714,0 L 346.93262,52.5001 a 20833883,20833883 0 0 0 39.83717,23 l 71.01412,40.99992 a 39.837067,39.837067 0 0 1 19.91858,34.49997 L 477.7024,233 a 20833883,20833883 0 0 0 0,46 l 9e-5,81.99999 a 39.837067,39.837067 0 0 1 -19.91857,34.49998 l -71.01413,40.99993 a 20833883,20833883 0 0 0 -39.83717,23 l -71.01403,41.00008 a 39.837067,39.837067 0 0 1 -39.83715,0 z"
         style="font-variation-settings:'wght' 800;opacity:1;fill:#ffffff;fill-opacity:1"
         inkscape:label="gmask" /></mask><filter
       style="color-interpolation-filters:sRGB"
       id="filter3"
       x="-0.058823884"
       y="-0.058823884"
       width="1.1176478"
       height="1.1176478"><feGaussianBlur
         stdDeviation="10.213423"
         id="feGaussianBlur3" /></filter><filter
       style="color-interpolation-filters:sRGB"
       id="filter3-5"
       x="-0.058823884"
       y="-0.058823884"
       width="1.1176478"
       height="1.1176478"><feGaussianBlur
         stdDeviation="10.213423"
         id="feGaussianBlur3-9" /></filter><filter
       style="color-interpolation-filters:sRGB"
       id="filter3-5-7"
       x="-0.058823884"
       y="-0.058823884"
       width="1.1176478"
       height="1.1176478"><feGaussianBlur
         stdDeviation="10.213423"
         id="feGaussianBlur3-9-3" /></filter></defs><g
     inkscape:groupmode="layer"
     id="layer3"
     inkscape:label="SafeArea"
     transform="translate(13,4)"
     style="display:none"><rect
       style="fill:#800000;stroke-width:2"
       id="rect1"
       width="512"
       height="512"
       x="0"
       y="0"
       inkscape:label="bg"
       transform="translate(-13,-4)" /><rect
       style="opacity:0.48434;fill:#000000;fill-opacity:1;stroke:none;stroke-width:2.41934;filter:url(#filter3-5-7)"
       id="rect2"
       width="416.70514"
       height="416.70514"
       x="47.647438"
       y="47.647438"
       ry="81.419876"
       inkscape:label="shadow"
       transform="translate(-13,-4)" /><rect
       style="fill:#0bc90b;fill-opacity:1;stroke:none;stroke-width:2.41934"
       id="rect3"
       width="416.70514"
       height="416.70514"
       x="47.647438"
       y="47.647438"
       ry="81.419876"
       inkscape:label="bound"
       transform="translate(-13,-4)" /></g><g
     inkscape:groupmode="layer"
     id="layer1"
     inkscape:label="Square"
     style="display:inline"><rect
       style="font-variation-settings:'wght' 800;fill:#f0db4f;fill-opacity:1;stroke-width:2.17116"
       id="rect23768"
       width="429.36914"
       height="429.36914"
       x="41.31543"
       y="297.31543"
       ry="0"
       transform="matrix(0.94699069,0,0,0.94699069,13.570384,-228.85923)"
       inkscape:label="q" /></g><g
     inkscape:groupmode="layer"
     id="layer4"
     inkscape:label="Text"
     style="display:inline"><path
       id="j"
       style="display:inline;fill:#323330;fill-opacity:1;stroke:none;stroke-width:0.999999"
       d="m 362.13976,237.18351 c -34.11878,0 -55.95406,21.83719 -55.95406,50.49581 0,31.11521 18.28824,45.8534 45.85692,57.58776 l 9.55006,4.09684 c 17.46882,7.64003 27.84089,12.28051 27.84089,25.38152 0,10.91808 -10.09591,18.83414 -25.92861,18.83414 -18.83225,0 -29.47676,-9.82543 -37.66701,-23.20075 l -31.11332,18.01477 c 11.18898,22.10932 34.11622,39.02969 69.59844,39.02969 36.30026,0 63.32081,-18.8314 63.32081,-53.22368 0,-31.93245 -18.28658,-46.12391 -50.76682,-60.0446 l -9.55258,-4.09432 c -16.37486,-7.09709 -23.47177,-11.73665 -23.47177,-23.20074 0,-9.27857 7.09645,-16.37477 18.28705,-16.37477 10.91711,0 18.01251,4.63961 24.56342,16.37477 l 29.75064,-19.10516 C 403.8998,245.64628 386.43138,237.18351 362.13976,237.18351 Z m -126.38069,2.18457 v 129.92037 c 0,19.10429 -7.91597,24.01632 -20.47161,24.01632 -13.09859,0 -18.55904,-9.00485 -24.56216,-19.64846 l -31.11584,18.83036 c 9.00707,19.10379 26.74942,34.93409 57.31547,34.93409 33.8461,0 57.04446,-18.015 57.04446,-57.59153 V 239.36808 Z m -76.14961,153.11859 c -4e-4,-6.5e-4 -6.4e-4,-0.002 -0.001,-0.003 v 0.004 z"
       inkscape:label="JS" /></g></svg>
