<?xml version="1.0" encoding="UTF-8" standalone="no"?>
<!-- Created with Inkscape (http://www.inkscape.org/) -->

<svg
   width="512"
   height="512"
   viewBox="0 0 512 512"
   version="1.1"
   id="svg1"
   sodipodi:docname="objective_c_logo.svg"
   inkscape:version="1.3.2 (091e20e, 2023-11-25)"
   xml:space="preserve"
   inkscape:export-filename="../objective_c_logo.png"
   inkscape:export-xdpi="78.75"
   inkscape:export-ydpi="78.75"
   xmlns:inkscape="http://www.inkscape.org/namespaces/inkscape"
   xmlns:sodipodi="http://sodipodi.sourceforge.net/DTD/sodipodi-0.dtd"
   xmlns:xlink="http://www.w3.org/1999/xlink"
   xmlns="http://www.w3.org/2000/svg"
   xmlns:svg="http://www.w3.org/2000/svg"><sodipodi:namedview
     id="namedview1"
     pagecolor="#505050"
     bordercolor="#ffffff"
     borderopacity="1"
     inkscape:showpageshadow="0"
     inkscape:pageopacity="0"
     inkscape:pagecheckerboard="1"
     inkscape:deskcolor="#505050"
     inkscape:zoom="2.2235193"
     inkscape:cx="249.15457"
     inkscape:cy="263.77104"
     inkscape:window-width="1920"
     inkscape:window-height="1011"
     inkscape:window-x="0"
     inkscape:window-y="0"
     inkscape:window-maximized="1"
     inkscape:current-layer="layer3" /><defs
     id="defs1"><rect
       x="-212.76799"
       y="88.415577"
       width="699.6627"
       height="177.78685"
       id="rect4" /><linearGradient
       id="linearGradient1"
       inkscape:collect="always"><stop
         style="stop-color:#145ddd;stop-opacity:1;"
         offset="0"
         id="stop1" /><stop
         style="stop-color:#15b6ed;stop-opacity:1;"
         offset="1"
         id="stop2" /></linearGradient><filter
       style="color-interpolation-filters:sRGB"
       id="filter3"
       x="-0.058823884"
       y="-0.058823884"
       width="1.1176478"
       height="1.1176478"><feGaussianBlur
         stdDeviation="10.213423"
         id="feGaussianBlur3" /></filter><linearGradient
       inkscape:collect="always"
       xlink:href="#linearGradient1"
       id="linearGradient2"
       x1="256"
       y1="462.11972"
       x2="256"
       y2="49.88028"
       gradientUnits="userSpaceOnUse" /><filter
       style="color-interpolation-filters:sRGB;"
       inkscape:label="Drop Shadow"
       id="filter69"
       x="-0.062431835"
       y="-0.16493848"
       width="1.1269738"
       height="1.364968"><feFlood
         result="flood"
         in="SourceGraphic"
         flood-opacity="0.227451"
         flood-color="rgb(28,32,55)"
         id="feFlood68" /><feGaussianBlur
         result="blur"
         in="SourceGraphic"
         stdDeviation="5.000000"
         id="feGaussianBlur68" /><feOffset
         result="offset"
         in="blur"
         dx="5.718215"
         dy="7.305053"
         id="feOffset68" /><feComposite
         result="comp1"
         operator="in"
         in="flood"
         in2="offset"
         id="feComposite68" /><feComposite
         result="fbSourceGraphic"
         operator="over"
         in="SourceGraphic"
         in2="comp1"
         id="feComposite69" /><feColorMatrix
         result="fbSourceGraphicAlpha"
         in="fbSourceGraphic"
         values="0 0 0 -1 0 0 0 0 -1 0 0 0 0 -1 0 0 0 0 1 0"
         id="feColorMatrix121" /><feFlood
         id="feFlood121"
         result="flood"
         in="fbSourceGraphic"
         flood-opacity="0.411765"
         flood-color="rgb(44,149,232)" /><feGaussianBlur
         id="feGaussianBlur121"
         result="blur"
         in="fbSourceGraphic"
         stdDeviation="2.000000" /><feOffset
         id="feOffset121"
         result="offset"
         in="blur"
         dx="-4.981990"
         dy="-3.076324" /><feComposite
         id="feComposite121"
         result="comp1"
         operator="out"
         in="flood"
         in2="offset" /><feComposite
         id="feComposite122"
         result="comp2"
         operator="atop"
         in="comp1"
         in2="fbSourceGraphic" /></filter><linearGradient
       id="a"
       x1="256"
       x2="256"
       y1="462.11972"
       y2="49.88028"
       gradientTransform="translate(-3.8853508e-5,-3.8853508e-5)"
       gradientUnits="userSpaceOnUse"><stop
         stop-color="#145ddd"
         offset="0"
         id="stop1-3" /><stop
         stop-color="#15b6ed"
         offset="1"
         id="stop2-6" /></linearGradient></defs><g
     inkscape:groupmode="layer"
     id="layer7"
     inkscape:label="SafeArea"
     style="display:none"><rect
       style="fill:#800000;stroke-width:2"
       id="rect1"
       width="512"
       height="512"
       x="0"
       y="0"
       inkscape:label="bg" /><rect
       style="opacity:0.48434;fill:#000000;fill-opacity:1;stroke:none;stroke-width:2.41934;filter:url(#filter3)"
       id="rect2"
       width="416.70514"
       height="416.70514"
       x="47.647438"
       y="47.647438"
       ry="81.419876"
       inkscape:label="shadow" /><rect
       style="fill:#0bc90b;fill-opacity:1;stroke:none;stroke-width:2.41934"
       id="rect3"
       width="416.70514"
       height="416.70514"
       x="47.647438"
       y="47.647438"
       ry="81.419876"
       inkscape:label="bound" /></g><g
     inkscape:groupmode="layer"
     id="layer1"
     inkscape:label="BG"><rect
       style="display:inline;fill:url(#linearGradient2);fill-opacity:1;stroke-width:1"
       id="rect17561"
       width="412.23944"
       height="412.23944"
       x="49.88028"
       y="49.88028"
       ry="91.794853"
       inkscape:label="rect" /></g><g
     inkscape:groupmode="layer"
     id="layer3"
     inkscape:label="ObjC"><path
       d="m 86.44237,318.01482 h 23.00471 a 4.8309316,4.8309316 0 0 0 4.83093,-4.83093 v -3.91561 a 4.8309316,4.8309316 0 0 0 -4.83093,-4.83093 h -7.27636 a 4.8309316,4.8309316 0 0 1 -4.830933,-4.83093 v -86.72469 a 4.8309316,4.8309316 0 0 1 4.830933,-4.83093 h 7.27636 a 4.8309316,4.8309316 0 0 0 4.83093,-4.83093 v -3.91561 a 4.8309316,4.8309316 0 0 0 -4.83093,-4.83093 H 86.44237 a 4.8309316,4.8309316 0 0 0 -4.830932,4.83093 v 113.87963 a 4.8309316,4.8309316 0 0 0 4.830932,4.83093 z m 73.94073,-23.12243 c 16.35071,-1.86694 27.54306,-13.30453 29.33937,-29.99512 0.28537,-2.65146 0.28715,-6.99282 -0.005,-9.6435 -1.72611,-15.66739 -11.97123,-26.061 -27.3183,-27.84142 -2.6488,-0.30729 -6.99164,-0.3052 -9.64179,-0.009 -16.47115,1.84172 -27.68714,13.20579 -29.47618,30.00062 -0.28247,2.6518 -0.28437,6.99305 0.008,9.64365 1.72195,15.59462 11.91014,26.06973 27.45179,27.84568 2.64936,0.30275 6.99228,0.30148 9.64169,-8e-4 z m -8.11412,-14.89315 c -6.10545,-1.7456 -10.28721,-6.94566 -11.51983,-14.44095 -0.43247,-2.62978 -0.43419,-6.99136 -0.01,-9.62258 1.14307,-7.08754 4.89502,-11.89902 10.46121,-13.59795 2.54248,-0.77602 6.9816,-0.76694 9.53522,-0.0252 6.12121,1.77798 10.30915,7.08185 11.53057,14.69864 0.422,2.63163 0.42717,6.99384 -0.0154,9.62179 -1.16215,6.9006 -4.9048,11.64705 -10.44452,13.33227 -2.54326,0.77367 -6.98045,0.76504 -9.5374,0.034 z m 88.24336,14.82834 c 14.32657,-2.03946 24.01536,-13.26613 25.60422,-29.52543 0.25938,-2.65436 0.2601,-6.99287 -0.003,-9.64684 -1.53527,-15.49607 -10.53384,-26.09466 -23.72238,-28.15047 -2.63359,-0.41052 -6.99086,-0.41173 -9.62505,-0.005 -3.2444,0.50121 -6.22363,1.52028 -8.87122,3.02397 -2.31586,1.31528 -3.92641,0.6368 -3.92641,-2.03125 V 199.3041 a 4.8309316,4.8309316 0 0 0 -4.83093,-4.83093 h -7.0075 a 4.8309316,4.8309316 0 0 0 -4.83093,4.83093 v 89.68216 a 4.8309316,4.8309316 0 0 0 4.83093,4.83093 h 1.36143 a 7.5855094,7.5855094 0 0 0 6.87386,-4.37771 c 0.43086,-0.92325 2.22033,-0.0149 4.40627,1.50537 2.86155,1.99009 6.23185,3.2955 10.11087,3.87399 2.63646,0.39318 6.99046,0.38429 9.62968,0.009 z m -16.88781,-51.04286 c 1.13014,-0.65592 2.36219,-1.16009 3.66521,-1.51251 2.56805,-0.69456 6.98631,-0.70058 9.55834,-0.0198 6.38227,1.68927 10.59283,6.9025 11.80008,14.62325 0.41176,2.63339 0.41445,6.99299 -0.004,9.62524 -1.11757,7.03126 -4.7879,11.82371 -10.46232,13.49104 -2.55111,0.7496 -6.97846,0.72672 -9.54809,0.0376 -1.91146,-0.51258 -3.67769,-1.34038 -5.2389,-2.46095 -2.15881,-1.5495 -3.42625,-5.54098 -3.42625,-8.20903 v -17.6275 c 0,-2.66805 1.36122,-6.61556 3.65586,-7.94737 z m 54.00576,78.99225 c 10.33403,-5.30218 17.2035,-14.23297 18.85914,-24.41837 0.42762,-2.63063 0.38758,-6.97299 0.38758,-9.64104 v -55.40242 a 4.8309316,4.8309316 0 0 0 -4.83094,-4.83093 h -7.54521 a 4.8309316,4.8309316 0 0 0 -4.83093,4.83093 v 56.209 c 0,2.66805 0.0446,7.02187 -0.51736,9.62493 -1.03852,4.81071 -3.59695,9.34168 -7.27897,12.89172 -1.91801,1.84927 -2.75514,4.92938 -1.50981,7.28896 l 0.5986,1.13418 c 1.24533,2.35958 4.29529,3.53038 6.6679,2.31304 z m 15.49195,-107.28632 c 2.23515,-0.94929 3.92251,-2.62349 4.87883,-4.87595 1.03568,-2.43939 1.03011,-6.98614 0.009,-9.43232 -0.95551,-2.28938 -2.64863,-4.00874 -4.89383,-4.98493 -2.42963,-1.05638 -6.9809,-1.05669 -9.42533,-0.0319 -2.31489,0.97048 -4.04706,2.70266 -5.01754,5.01756 -1.02479,2.44442 -1.03037,6.99329 0.009,9.43088 0.97143,2.27784 2.69802,3.96437 5.00287,4.90801 2.45361,1.00456 6.99737,1.00464 9.43663,-0.0313 z m 80.93104,79.44999 c 4.36087,-0.40525 8.50383,-1.36483 12.30591,-2.85412 2.48267,-0.97248 3.72301,-4.09428 2.91404,-6.63673 l -0.83454,-2.62284 c -0.80896,-2.54245 -3.44921,-3.72007 -6.00765,-2.96874 -1.55703,0.45723 -3.11083,0.81013 -4.62887,1.05404 -2.6315,0.4228 -6.99785,0.47273 -9.61207,-0.0393 -7.74169,-1.51643 -12.62919,-6.88066 -13.93394,-15.31209 -0.40762,-2.63408 -0.41336,-6.99409 0.009,-9.62567 1.23327,-7.68641 5.60155,-12.42795 12.71526,-13.83504 2.6132,-0.51689 6.97563,-0.46069 9.6198,-0.1185 1.88287,0.24366 3.79248,0.62117 5.65524,1.11915 2.57599,0.68865 5.14276,-0.57443 5.8318,-3.15197 l 1.13436,-4.24336 c 0.68904,-2.57754 -0.72247,-5.58126 -3.26733,-6.37712 -3.13014,-0.9789 -6.48348,-1.63804 -9.88484,-1.95991 -2.6552,-0.25126 -6.99431,-0.26061 -9.64563,0.0259 -16.81821,1.81738 -28.00644,13.2516 -29.75545,30.41233 -0.27041,2.65315 -0.27273,6.99287 8.1e-4,9.64566 1.64699,15.9601 11.65657,25.8558 27.73669,27.47409 2.65353,0.26705 6.99166,0.26104 9.64732,0.0143 z m 56.35588,18.24325 V 199.30426 a 4.8309316,4.8309316 0 0 0 -4.83093,-4.83093 h -23.00471 a 4.8309316,4.8309316 0 0 0 -4.83093,4.83093 v 3.91561 a 4.8309316,4.8309316 0 0 0 4.83093,4.83093 h 7.27636 a 4.8309316,4.8309316 0 0 1 4.83093,4.83093 v 86.72469 a 4.8309316,4.8309316 0 0 1 -4.83093,4.83093 h -7.27636 a 4.8309316,4.8309316 0 0 0 -4.83093,4.83093 v 3.91561 a 4.8309316,4.8309316 0 0 0 4.83093,4.83093 h 23.00471 a 4.8309316,4.8309316 0 0 0 4.83093,-4.83093 z"
       fill="#ffffff"
       stroke-linecap="square"
       stroke-width="4"
       style="paint-order:markers stroke fill"
       aria-label="[obj c]"
       id="path2" /></g></svg>
