<?xml version="1.0" encoding="UTF-8" standalone="no"?>
<!-- Created with Inkscape (http://www.inkscape.org/) -->

<svg
   width="512"
   height="512"
   viewBox="0 0 512 512"
   version="1.1"
   id="svg5"
   xml:space="preserve"
   inkscape:version="1.3.2 (091e20e, 2023-11-25)"
   sodipodi:docname="python_logo_INKSCAPE.svg"
   inkscape:export-filename="../python_logo.png"
   inkscape:export-xdpi="78.75"
   inkscape:export-ydpi="78.75"
   xmlns:inkscape="http://www.inkscape.org/namespaces/inkscape"
   xmlns:sodipodi="http://sodipodi.sourceforge.net/DTD/sodipodi-0.dtd"
   xmlns:xlink="http://www.w3.org/1999/xlink"
   xmlns="http://www.w3.org/2000/svg"
   xmlns:svg="http://www.w3.org/2000/svg"><sodipodi:namedview
     id="namedview7"
     pagecolor="#505050"
     bordercolor="#ffffff"
     borderopacity="1"
     inkscape:showpageshadow="0"
     inkscape:pageopacity="0"
     inkscape:pagecheckerboard="1"
     inkscape:deskcolor="#505050"
     inkscape:document-units="px"
     showgrid="false"
     inkscape:zoom="1.6386719"
     inkscape:cx="245.32062"
     inkscape:cy="261.49225"
     inkscape:window-width="1920"
     inkscape:window-height="1011"
     inkscape:window-x="0"
     inkscape:window-y="0"
     inkscape:window-maximized="1"
     inkscape:current-layer="svg5" /><defs
     id="defs2"><linearGradient
       inkscape:collect="always"
       id="linearGradient5334"><stop
         style="stop-color:#ffe873;stop-opacity:1;"
         offset="0.34940866"
         id="stop5330" /><stop
         style="stop-color:#ffd43b;stop-opacity:1;"
         offset="0.74900627"
         id="stop5332" /></linearGradient><linearGradient
       inkscape:collect="always"
       id="linearGradient5050"><stop
         style="stop-color:#4685b7;stop-opacity:1;"
         offset="0.42981386"
         id="stop5046" /><stop
         style="stop-color:#306998;stop-opacity:1;"
         offset="1"
         id="stop5048" /></linearGradient><linearGradient
       inkscape:collect="always"
       xlink:href="#linearGradient5050"
       id="linearGradient5052"
       x1="56.705078"
       y1="204.03809"
       x2="315.80328"
       y2="302.17691"
       gradientUnits="userSpaceOnUse" /><linearGradient
       inkscape:collect="always"
       xlink:href="#linearGradient5334"
       id="linearGradient5336"
       x1="254.76758"
       y1="153.68652"
       x2="452.42773"
       y2="460.07617"
       gradientUnits="userSpaceOnUse" /><inkscape:path-effect
       effect="fillet_chamfer"
       id="path-effect2522"
       is_visible="false"
       lpeversion="1"
       satellites_param="F,0,0,1,0,23,0,1 @ F,0,0,1,0,23,0,1 @ F,0,0,1,0,23,0,1 @ F,0,0,1,0,23,0,1 @ F,0,0,1,0,23,0,1 @ F,0,0,1,0,23,0,1 @ F,0,0,1,0,23,0,1 @ F,0,0,1,0,23,0,1 @ F,0,0,1,0,23,0,1 @ F,0,0,1,0,23,0,1 @ F,0,0,1,0,23,0,1 @ F,0,0,1,0,23,0,1"
       unit="px"
       method="auto"
       mode="F"
       radius="23"
       chamfer_steps="1"
       flexible="false"
       use_knot_distance="true"
       apply_no_radius="true"
       apply_with_radius="true"
       only_selected="false"
       hide_knots="false"
       nodesatellites_param="F,0,0,1,0,23,0,1 @ F,0,0,1,0,23,0,1 @ F,0,0,1,0,23,0,1 @ F,0,0,1,0,23,0,1 @ F,0,0,1,0,23,0,1 @ F,0,0,1,0,23,0,1 @ F,0,0,1,0,23,0,1 @ F,0,0,1,0,23,0,1 @ F,0,0,1,0,23,0,1 @ F,0,0,1,0,23,0,1 @ F,0,0,1,0,23,0,1 @ F,0,0,1,0,23,0,1" /><inkscape:path-effect
       effect="fillet_chamfer"
       id="path-effect2128"
       is_visible="true"
       lpeversion="1"
       satellites_param="F,0,0,1,0,25,0,1 @ F,0,0,1,0,25,0,1 @ F,0,0,1,0,25,0,1 @ F,0,0,1,0,25,0,1 @ F,0,0,1,0,25,0,1 @ F,0,0,1,0,25,0,1"
       unit="px"
       method="auto"
       mode="F"
       radius="25"
       chamfer_steps="1"
       flexible="false"
       use_knot_distance="true"
       apply_no_radius="true"
       apply_with_radius="true"
       only_selected="false"
       hide_knots="false"
       nodesatellites_param="F,0,0,1,0,25,0,1 @ F,0,0,1,0,25,0,1 @ F,0,0,1,0,25,0,1 @ F,0,0,1,0,25,0,1 @ F,0,0,1,0,25,0,1 @ F,0,0,1,0,25,0,1" /><inkscape:path-effect
       effect="bspline"
       id="path-effect2088"
       is_visible="true"
       lpeversion="1"
       weight="2"
       steps="10"
       helper_size="2"
       apply_no_weight="true"
       apply_with_weight="true"
       only_selected="false" /><mask
       maskUnits="userSpaceOnUse"
       id="mask19989"><path
         id="path19991"
         d="M 236.08144,500.49998 165.0674,459.4999 a 20833883,20833883 0 0 0 -39.83717,-23 L 54.216096,395.49998 A 39.837067,39.837067 0 0 1 34.297524,361.00001 L 34.297612,279 a 20833883,20833883 0 0 0 -10e-7,-46 l -9.3e-5,-81.99999 A 39.837067,39.837067 0 0 1 54.216089,116.50003 L 125.23023,75.5001 a 20833883,20833883 0 0 0 39.83717,-23 l 71.01403,-41.000079 a 39.837067,39.837067 0 0 1 39.83714,0 L 346.93262,52.5001 a 20833883,20833883 0 0 0 39.83717,23 l 71.01412,40.99992 a 39.837067,39.837067 0 0 1 19.91858,34.49997 L 477.7024,233 a 20833883,20833883 0 0 0 0,46 l 9e-5,81.99999 a 39.837067,39.837067 0 0 1 -19.91857,34.49998 l -71.01413,40.99993 a 20833883,20833883 0 0 0 -39.83717,23 l -71.01403,41.00008 a 39.837067,39.837067 0 0 1 -39.83715,0 z"
         style="font-variation-settings:'wght' 800;opacity:1;fill:#ffffff;fill-opacity:1"
         inkscape:label="gmask" /></mask><filter
       style="color-interpolation-filters:sRGB"
       id="filter3"
       x="-0.058823884"
       y="-0.058823884"
       width="1.1176478"
       height="1.1176478"><feGaussianBlur
         stdDeviation="10.213423"
         id="feGaussianBlur3" /></filter><inkscape:path-effect
       effect="fillet_chamfer"
       id="path-effect2522-3"
       is_visible="false"
       lpeversion="1"
       satellites_param="F,0,0,1,0,23,0,1 @ F,0,0,1,0,23,0,1 @ F,0,0,1,0,23,0,1 @ F,0,0,1,0,23,0,1 @ F,0,0,1,0,23,0,1 @ F,0,0,1,0,23,0,1 @ F,0,0,1,0,23,0,1 @ F,0,0,1,0,23,0,1 @ F,0,0,1,0,23,0,1 @ F,0,0,1,0,23,0,1 @ F,0,0,1,0,23,0,1 @ F,0,0,1,0,23,0,1"
       unit="px"
       method="auto"
       mode="F"
       radius="23"
       chamfer_steps="1"
       flexible="false"
       use_knot_distance="true"
       apply_no_radius="true"
       apply_with_radius="true"
       only_selected="false"
       hide_knots="false"
       nodesatellites_param="F,0,0,1,0,23,0,1 @ F,0,0,1,0,23,0,1 @ F,0,0,1,0,23,0,1 @ F,0,0,1,0,23,0,1 @ F,0,0,1,0,23,0,1 @ F,0,0,1,0,23,0,1 @ F,0,0,1,0,23,0,1 @ F,0,0,1,0,23,0,1 @ F,0,0,1,0,23,0,1 @ F,0,0,1,0,23,0,1 @ F,0,0,1,0,23,0,1 @ F,0,0,1,0,23,0,1" /><inkscape:path-effect
       effect="fillet_chamfer"
       id="path-effect2128-6"
       is_visible="true"
       lpeversion="1"
       satellites_param="F,0,0,1,0,25,0,1 @ F,0,0,1,0,25,0,1 @ F,0,0,1,0,25,0,1 @ F,0,0,1,0,25,0,1 @ F,0,0,1,0,25,0,1 @ F,0,0,1,0,25,0,1"
       unit="px"
       method="auto"
       mode="F"
       radius="25"
       chamfer_steps="1"
       flexible="false"
       use_knot_distance="true"
       apply_no_radius="true"
       apply_with_radius="true"
       only_selected="false"
       hide_knots="false"
       nodesatellites_param="F,0,0,1,0,25,0,1 @ F,0,0,1,0,25,0,1 @ F,0,0,1,0,25,0,1 @ F,0,0,1,0,25,0,1 @ F,0,0,1,0,25,0,1 @ F,0,0,1,0,25,0,1" /><inkscape:path-effect
       effect="bspline"
       id="path-effect2088-1"
       is_visible="true"
       lpeversion="1"
       weight="2"
       steps="10"
       helper_size="2"
       apply_no_weight="true"
       apply_with_weight="true"
       only_selected="false" /><mask
       maskUnits="userSpaceOnUse"
       id="mask19989-2"><path
         id="path19991-9"
         d="M 236.08144,500.49998 165.0674,459.4999 a 20833883,20833883 0 0 0 -39.83717,-23 L 54.216096,395.49998 A 39.837067,39.837067 0 0 1 34.297524,361.00001 L 34.297612,279 a 20833883,20833883 0 0 0 -10e-7,-46 l -9.3e-5,-81.99999 A 39.837067,39.837067 0 0 1 54.216089,116.50003 L 125.23023,75.5001 a 20833883,20833883 0 0 0 39.83717,-23 l 71.01403,-41.000079 a 39.837067,39.837067 0 0 1 39.83714,0 L 346.93262,52.5001 a 20833883,20833883 0 0 0 39.83717,23 l 71.01412,40.99992 a 39.837067,39.837067 0 0 1 19.91858,34.49997 L 477.7024,233 a 20833883,20833883 0 0 0 0,46 l 9e-5,81.99999 a 39.837067,39.837067 0 0 1 -19.91857,34.49998 l -71.01413,40.99993 a 20833883,20833883 0 0 0 -39.83717,23 l -71.01403,41.00008 a 39.837067,39.837067 0 0 1 -39.83715,0 z"
         style="font-variation-settings:'wght' 800;opacity:1;fill:#ffffff;fill-opacity:1"
         inkscape:label="gmask" /></mask><filter
       style="color-interpolation-filters:sRGB"
       id="filter3-3"
       x="-0.058823884"
       y="-0.058823884"
       width="1.1176478"
       height="1.1176478"><feGaussianBlur
         stdDeviation="10.213423"
         id="feGaussianBlur3-1" /></filter></defs><g
     id="g2"
     style="display:inline"
     transform="matrix(1.0710955,0,0,1.0710955,-18.098518,-18.274244)"><path
       id="path2711"
       style="opacity:1;fill:url(#linearGradient5336);fill-opacity:1"
       d="m 299.4707,458.07617 c 33.79841,-5.84521 52.29883,-21.32484 52.29883,-50.29883 v -41.01562 h -97.4043 v -12.74414 h 97.4043 10.70312 33.65625 c 28.97399,0 49.8141,-24.91122 54.29883,-52.29883 0,0 4,-16.5927 4,-44.70899 0,-24.36054 -4,-44.70898 -4,-44.70898 C 446.80814,182.35027 425.10289,160 396.1289,160 h -30.86914 v 41.04297 c 0,33.90393 -27.29332,61.19922 -61.19726,61.19922 h -98.14258 c -0.57266,0 -1.13824,-0.0275 -1.70703,-0.043 -27.65751,1.45033 -49.50781,24.12693 -49.50781,52.1582 v 93.41995 c 0,28.97399 19.67106,42.98062 52.29882,50.29883 0,0 21.78408,4 46.2334,4 24.32529,0 46.2334,-4 46.2334,-4 z"
       sodipodi:nodetypes="sscccccsscsscssscssscs"
       inkscape:label="yellow_python" /><path
       id="rect419"
       style="opacity:1;fill:url(#linearGradient5052);fill-opacity:1"
       d="m 209.66211,56 c -33.79841,5.845206 -52.29883,21.32484 -52.29883,50.29883 v 41.01562 h 97.4043 v 12.74414 h -97.4043 -10.70312 -33.65625 c -28.973993,0 -49.814104,24.91122 -54.298832,52.29883 0,0 -4,16.5927 -4,44.70899 0,24.36054 4,44.70898 4,44.70898 3.61959,29.95051 25.324839,52.30078 54.298832,52.30078 h 30.86914 V 313.0332 c 0,-33.90393 27.29332,-61.19922 61.19726,-61.19922 h 98.14258 c 0.57266,0 1.13824,0.0275 1.70703,0.043 27.65751,-1.45033 49.50781,-24.12693 49.50781,-52.1582 v -93.41995 c 0,-28.97399 -19.67106,-42.980619 -52.29882,-50.29883 0,0 -21.78408,-4 -46.2334,-4 -24.32529,0 -46.2334,4 -46.2334,4 z"
       sodipodi:nodetypes="sscccccsscsscssscssscs"
       inkscape:label="blue_python" /><circle
       style="opacity:1;fill:#ffffff;fill-opacity:1;stroke-width:0.937667"
       id="circle2713"
       cx="-308.28149"
       cy="-409.98032"
       r="18.664532"
       transform="scale(-1)"
       inkscape:label="yellow_python_eye" /><circle
       style="opacity:1;fill:#ffffff;fill-opacity:1;stroke-width:0.937667"
       id="path2709"
       cx="200.85132"
       cy="104.09586"
       r="18.664532"
       inkscape:label="blue_python_eye" /></g></svg>
