<?xml version="1.0" encoding="UTF-8" standalone="no"?>
<!-- Created with Inkscape (http://www.inkscape.org/) -->

<svg
   width="512"
   height="512"
   viewBox="0 0 512 512"
   version="1.1"
   id="svg5"
   inkscape:version="1.3.2 (091e20e, 2023-11-25)"
   sodipodi:docname="typescript_logo_INKSCAPE.svg"
   xml:space="preserve"
   inkscape:export-filename="../typescript_logo.png"
   inkscape:export-xdpi="78.75"
   inkscape:export-ydpi="78.75"
   xmlns:inkscape="http://www.inkscape.org/namespaces/inkscape"
   xmlns:sodipodi="http://sodipodi.sourceforge.net/DTD/sodipodi-0.dtd"
   xmlns="http://www.w3.org/2000/svg"
   xmlns:svg="http://www.w3.org/2000/svg"><sodipodi:namedview
     id="namedview7"
     pagecolor="#505050"
     bordercolor="#ffffff"
     borderopacity="1"
     inkscape:pageshadow="0"
     inkscape:pageopacity="0"
     inkscape:pagecheckerboard="1"
     inkscape:document-units="px"
     showgrid="false"
     inkscape:snap-page="true"
     inkscape:zoom="1.158716"
     inkscape:cx="220.07118"
     inkscape:cy="251.57157"
     inkscape:window-width="1920"
     inkscape:window-height="1011"
     inkscape:window-x="0"
     inkscape:window-y="0"
     inkscape:window-maximized="1"
     inkscape:current-layer="layer4"
     inkscape:showpageshadow="0"
     inkscape:deskcolor="#505050" /><defs
     id="defs2"><linearGradient
       id="linearGradient29561"
       inkscape:swatch="solid"><stop
         style="stop-color:#f0db4f;stop-opacity:1;"
         offset="0"
         id="stop29559" /></linearGradient><style
       id="style2">
      .cls-1 {
        fill: #393939;
      }

      .cls-2 {
        fill: #654ff0;
      }
    </style><inkscape:path-effect
       effect="fillet_chamfer"
       id="path-effect2522"
       is_visible="false"
       lpeversion="1"
       satellites_param="F,0,0,1,0,23,0,1 @ F,0,0,1,0,23,0,1 @ F,0,0,1,0,23,0,1 @ F,0,0,1,0,23,0,1 @ F,0,0,1,0,23,0,1 @ F,0,0,1,0,23,0,1 @ F,0,0,1,0,23,0,1 @ F,0,0,1,0,23,0,1 @ F,0,0,1,0,23,0,1 @ F,0,0,1,0,23,0,1 @ F,0,0,1,0,23,0,1 @ F,0,0,1,0,23,0,1"
       unit="px"
       method="auto"
       mode="F"
       radius="23"
       chamfer_steps="1"
       flexible="false"
       use_knot_distance="true"
       apply_no_radius="true"
       apply_with_radius="true"
       only_selected="false"
       hide_knots="false"
       nodesatellites_param="F,0,0,1,0,23,0,1 @ F,0,0,1,0,23,0,1 @ F,0,0,1,0,23,0,1 @ F,0,0,1,0,23,0,1 @ F,0,0,1,0,23,0,1 @ F,0,0,1,0,23,0,1 @ F,0,0,1,0,23,0,1 @ F,0,0,1,0,23,0,1 @ F,0,0,1,0,23,0,1 @ F,0,0,1,0,23,0,1 @ F,0,0,1,0,23,0,1 @ F,0,0,1,0,23,0,1" /><inkscape:path-effect
       effect="fillet_chamfer"
       id="path-effect2128"
       is_visible="true"
       lpeversion="1"
       satellites_param="F,0,0,1,0,25,0,1 @ F,0,0,1,0,25,0,1 @ F,0,0,1,0,25,0,1 @ F,0,0,1,0,25,0,1 @ F,0,0,1,0,25,0,1 @ F,0,0,1,0,25,0,1"
       unit="px"
       method="auto"
       mode="F"
       radius="25"
       chamfer_steps="1"
       flexible="false"
       use_knot_distance="true"
       apply_no_radius="true"
       apply_with_radius="true"
       only_selected="false"
       hide_knots="false"
       nodesatellites_param="F,0,0,1,0,25,0,1 @ F,0,0,1,0,25,0,1 @ F,0,0,1,0,25,0,1 @ F,0,0,1,0,25,0,1 @ F,0,0,1,0,25,0,1 @ F,0,0,1,0,25,0,1" /><inkscape:path-effect
       effect="bspline"
       id="path-effect2088"
       is_visible="true"
       lpeversion="1"
       weight="2"
       steps="10"
       helper_size="2"
       apply_no_weight="true"
       apply_with_weight="true"
       only_selected="false" /><mask
       maskUnits="userSpaceOnUse"
       id="mask19989"><path
         id="path19991"
         d="M 236.08144,500.49998 165.0674,459.4999 a 20833883,20833883 0 0 0 -39.83717,-23 L 54.216096,395.49998 A 39.837067,39.837067 0 0 1 34.297524,361.00001 L 34.297612,279 a 20833883,20833883 0 0 0 -10e-7,-46 l -9.3e-5,-81.99999 A 39.837067,39.837067 0 0 1 54.216089,116.50003 L 125.23023,75.5001 a 20833883,20833883 0 0 0 39.83717,-23 l 71.01403,-41.000079 a 39.837067,39.837067 0 0 1 39.83714,0 L 346.93262,52.5001 a 20833883,20833883 0 0 0 39.83717,23 l 71.01412,40.99992 a 39.837067,39.837067 0 0 1 19.91858,34.49997 L 477.7024,233 a 20833883,20833883 0 0 0 0,46 l 9e-5,81.99999 a 39.837067,39.837067 0 0 1 -19.91857,34.49998 l -71.01413,40.99993 a 20833883,20833883 0 0 0 -39.83717,23 l -71.01403,41.00008 a 39.837067,39.837067 0 0 1 -39.83715,0 z"
         style="font-variation-settings:'wght' 800;opacity:1;fill:#ffffff;fill-opacity:1"
         inkscape:label="gmask" /></mask><filter
       style="color-interpolation-filters:sRGB"
       id="filter3"
       x="-0.058823884"
       y="-0.058823884"
       width="1.1176478"
       height="1.1176478"><feGaussianBlur
         stdDeviation="10.213423"
         id="feGaussianBlur3" /></filter><filter
       style="color-interpolation-filters:sRGB"
       id="filter3-5"
       x="-0.058823884"
       y="-0.058823884"
       width="1.1176478"
       height="1.1176478"><feGaussianBlur
         stdDeviation="10.213423"
         id="feGaussianBlur3-9" /></filter><filter
       style="color-interpolation-filters:sRGB"
       id="filter3-5-7"
       x="-0.058823884"
       y="-0.058823884"
       width="1.1176478"
       height="1.1176478"><feGaussianBlur
         stdDeviation="10.213423"
         id="feGaussianBlur3-9-3" /></filter></defs><g
     inkscape:groupmode="layer"
     id="layer3"
     inkscape:label="SafeArea"
     transform="translate(13,4)"
     style="display:none"><rect
       style="fill:#800000;stroke-width:2"
       id="rect1"
       width="512"
       height="512"
       x="0"
       y="0"
       inkscape:label="bg"
       transform="translate(-13,-4)" /><rect
       style="opacity:0.48434;fill:#000000;fill-opacity:1;stroke:none;stroke-width:2.41934;filter:url(#filter3-5-7)"
       id="rect2"
       width="416.70514"
       height="416.70514"
       x="47.647438"
       y="47.647438"
       ry="81.419876"
       inkscape:label="shadow"
       transform="translate(-13,-4)" /><rect
       style="fill:#0bc90b;fill-opacity:1;stroke:none;stroke-width:2.41934"
       id="rect3"
       width="416.70514"
       height="416.70514"
       x="47.647438"
       y="47.647438"
       ry="81.419876"
       inkscape:label="bound"
       transform="translate(-13,-4)" /></g><g
     inkscape:groupmode="layer"
     id="layer1"
     inkscape:label="Square"
     style="display:inline"><rect
       style="opacity:1;fill:#3178c6;fill-opacity:1;stroke:none;stroke-width:3.99109;stroke-dashoffset:37.7689;paint-order:markers stroke fill"
       id="rect1397"
       width="429.36914"
       height="429.36914"
       x="41.315434"
       y="41.315434"
       ry="41.521206"
       inkscape:label="q"
       transform="matrix(0.94699069,0,0,0.94699069,13.57038,13.570383)" /></g><g
     inkscape:groupmode="layer"
     id="layer4"
     inkscape:label="Text"
     style="display:inline"><path
       clip-rule="evenodd"
       d="m 304.39516,376.25449 v 39.75631 c 6.46285,3.31323 14.10662,5.79735 22.93129,7.45396 8.82468,1.65662 18.12506,2.48492 27.90272,2.48492 9.5291,0 18.5809,-0.9109 27.15701,-2.73349 8.5761,-1.82179 16.09598,-4.8245 22.55883,-9.00733 6.46285,-4.18203 11.57961,-9.64901 15.34947,-16.39935 3.76987,-6.75034 5.6552,-15.09455 5.6552,-25.03343 0,-7.20618 -1.07688,-13.52132 -3.23143,-18.94621 -2.15455,-5.42489 -5.26129,-10.2494 -9.32182,-14.47352 -4.05973,-4.22412 -8.92791,-8.01384 -14.60376,-11.36836 -5.67584,-3.35452 -12.07675,-6.52242 -19.20272,-9.50368 -5.22,-2.15376 -9.90156,-4.24477 -14.04467,-6.27385 -4.14312,-2.02986 -7.66442,-4.10023 -10.56468,-6.2119 -2.90026,-2.11245 -5.1374,-4.3488 -6.71142,-6.70904 -1.57402,-2.36103 -2.36183,-5.03178 -2.36183,-8.01384 0,-2.73269 0.70442,-5.19696 2.11325,-7.39202 1.40884,-2.19505 3.39741,-4.07879 5.96571,-5.65281 2.5691,-1.57322 5.71714,-2.79543 9.44571,-3.66503 3.72937,-0.86961 7.87169,-1.30401 12.42936,-1.30401 3.31402,0 6.81466,0.24857 10.50194,0.74492 3.68727,0.49714 7.39519,1.2635 11.12455,2.29829 3.72857,1.03558 7.35311,2.34038 10.87519,3.91361 3.5213,1.57402 6.77337,3.39581 9.75623,5.46698 V 248.5381 c -6.04831,-2.31894 -12.65649,-4.03749 -19.82376,-5.15567 -7.16727,-1.11817 -15.39156,-1.67726 -24.67129,-1.67726 -9.4465,0 -18.39507,1.01494 -26.84649,3.04401 -8.45142,2.02907 -15.88791,5.19696 -22.31026,9.50368 -6.42156,4.30751 -11.49623,9.79434 -15.2248,16.46209 -3.72856,6.66695 -5.59325,14.6387 -5.59325,23.91525 0,11.84406 3.41806,21.94892 10.25416,30.31458 6.83532,8.36486 17.21336,15.44636 31.13415,21.2445 5.46857,2.23635 10.56467,4.4306 15.28753,6.58436 4.72285,2.15375 8.80403,4.3901 12.24193,6.70904 3.43871,2.31894 6.15234,4.84515 8.14171,7.57864 1.98857,2.7327 2.98285,5.83865 2.98285,9.31785 0,2.56751 -0.62182,4.9484 -1.86468,7.14345 -1.24286,2.19505 -3.12819,4.09944 -5.6552,5.71475 -2.527,1.61532 -5.67584,2.87803 -9.4457,3.78893 -3.77066,0.91169 -8.18221,1.36674 -13.23702,1.36674 -8.6174,0 -17.15141,-1.51128 -25.60363,-4.53463 -8.45142,-3.02257 -16.28182,-7.55721 -23.49038,-13.60392 z m -66.83549,-97.95296 h 51.00078 V 245.67596 H 146.40628 v 32.62557 h 50.75143 v 145.26568 h 40.40196 z"
       fill="#ffffff"
       fill-rule="evenodd"
       id="path2"
       style="stroke-width:0.999995"
       inkscape:label="TS" /></g></svg>
