<?xml version="1.0" encoding="UTF-8" standalone="no"?>
<!-- Created with Inkscape (http://www.inkscape.org/) -->

<svg
   width="512"
   height="512"
   viewBox="0 0 512 512"
   version="1.1"
   id="svg1"
   sodipodi:docname="visual_basic_logo_INKSCAPE.svg"
   inkscape:version="1.3.2 (091e20e, 2023-11-25)"
   xml:space="preserve"
   inkscape:export-filename="../visual_basic_logo.png"
   inkscape:export-xdpi="78.75"
   inkscape:export-ydpi="78.75"
   xmlns:inkscape="http://www.inkscape.org/namespaces/inkscape"
   xmlns:sodipodi="http://sodipodi.sourceforge.net/DTD/sodipodi-0.dtd"
   xmlns="http://www.w3.org/2000/svg"
   xmlns:svg="http://www.w3.org/2000/svg"><sodipodi:namedview
     id="namedview1"
     pagecolor="#505050"
     bordercolor="#ffffff"
     borderopacity="1"
     inkscape:showpageshadow="0"
     inkscape:pageopacity="0"
     inkscape:pagecheckerboard="1"
     inkscape:deskcolor="#505050"
     inkscape:zoom="1.1117597"
     inkscape:cx="171.79972"
     inkscape:cy="273.89012"
     inkscape:window-width="1920"
     inkscape:window-height="1011"
     inkscape:window-x="0"
     inkscape:window-y="0"
     inkscape:window-maximized="1"
     inkscape:current-layer="layer2" /><defs
     id="defs1"><filter
       style="color-interpolation-filters:sRGB"
       id="filter3"
       x="-0.058823884"
       y="-0.058823884"
       width="1.1176478"
       height="1.1176478"><feGaussianBlur
         stdDeviation="10.213423"
         id="feGaussianBlur3" /></filter><style
       type="text/css"
       id="style1">.cls-1{fill:#004e8c;}.cls-2,.cls-3{fill:#fff;}.cls-2{opacity:0.1;}</style><clipPath
       clipPathUnits="userSpaceOnUse"
       id="clipPath4"><circle
         class="cls-1"
         cx="-246.28305"
         cy="253.14005"
         r="205.4926"
         id="circle5"
         style="fill:#ffffff;stroke-width:0.999998" /></clipPath></defs><g
     inkscape:groupmode="layer"
     id="layer7"
     inkscape:label="SafeArea"
     style="display:none"><rect
       style="fill:#800000;stroke-width:2"
       id="rect1"
       width="512"
       height="512"
       x="0"
       y="0"
       inkscape:label="bg" /><rect
       style="opacity:0.48434;fill:#000000;fill-opacity:1;stroke:none;stroke-width:2.41934;filter:url(#filter3)"
       id="rect2"
       width="416.70514"
       height="416.70514"
       x="47.647438"
       y="47.647438"
       ry="81.419876"
       inkscape:label="shadow" /><rect
       style="fill:#0bc90b;fill-opacity:1;stroke:none;stroke-width:2.41934"
       id="rect3"
       width="416.70514"
       height="416.70514"
       x="47.647438"
       y="47.647438"
       ry="81.419876"
       inkscape:label="bound" /></g><g
     inkscape:groupmode="layer"
     id="layer2"
     inkscape:label="Circle"><g
       id="g4"
       clip-path="url(#clipPath4)"
       inkscape:label="c"
       transform="matrix(1.0136919,0,0,1.0136919,505.70151,-0.4638911)"
       style="stroke-width:0.986493"><rect
         style="fill:#004e8c;fill-opacity:1;stroke:none;stroke-width:4.93247;stroke-opacity:1"
         id="rect4"
         width="410.9852"
         height="410.9852"
         x="-451.77563"
         y="47.647446" /><path
         style="fill:#195f97;fill-opacity:1;stroke:none;stroke-width:4.93247;stroke-opacity:1"
         d="M -451.77563,47.647446 V 458.63263 h 410.985194 z"
         id="path4" /></g></g><g
     inkscape:groupmode="layer"
     id="layer1"
     inkscape:label="Text"><path
       id="path2"
       style="stroke-width:0.999998"
       class="cls-3"
       d="m 243.80864,173.79608 -46.34868,130.19209 a 71.60525,71.60525 0 0 0 -3.64494,14.84109 h -0.45537 a 77.268574,77.268574 0 0 0 -3.32023,-14.51638 l -45.56664,-130.1921 h -21.41622 l 59.49698,164.04188 h 21.41622 l 60.47306,-164.04188 z m 44.2639,0.3247 v 164.04188 h 47.65143 a 56.242669,56.242669 0 0 0 38.08077,-13.01961 42.898053,42.898053 0 0 0 15.10241,-34.10914 38.536643,38.536643 0 0 0 -9.9607,-27.536 41.726331,41.726331 0 0 0 -26.55794,-12.49889 v -0.45537 a 40.749896,40.749896 0 0 0 20.83018,-14.64706 39.903652,39.903652 0 0 0 7.74722,-24.21575 33.654467,33.654467 0 0 0 -12.4989,-27.14398 51.035014,51.035014 0 0 0 -33.71911,-10.41608 z m 41.33763,17.12189 c 20.9608,0 31.44029,7.96235 31.44029,23.88907 a 26.493942,26.493942 0 0 1 -9.04799,21.48156 37.364921,37.364921 0 0 1 -24.67112,7.81256 H 307.60194 V 191.4367 Z m -21.80823,70.43179 21.80823,0.0654 c 26.38543,0 39.57754,9.67767 39.57754,29.03276 a 27.405282,27.405282 0 0 1 -9.30933,21.93693 39.057409,39.057409 0 0 1 -26.03723,8.00659 h -26.03921 z"
       inkscape:label="VB" /></g></svg>
