<?xml version="1.0" encoding="UTF-8" standalone="no"?>
<!-- Created with Inkscape (http://www.inkscape.org/) -->

<svg
   width="512"
   height="512"
   viewBox="0 0 512 512"
   version="1.1"
   id="svg1"
   sodipodi:docname="zig_logo_INKSCAPE.svg"
   inkscape:version="1.3.2 (091e20e, 2023-11-25)"
   xml:space="preserve"
   inkscape:export-filename="../zig_logo.png"
   inkscape:export-xdpi="78.75"
   inkscape:export-ydpi="78.75"
   xmlns:inkscape="http://www.inkscape.org/namespaces/inkscape"
   xmlns:sodipodi="http://sodipodi.sourceforge.net/DTD/sodipodi-0.dtd"
   xmlns="http://www.w3.org/2000/svg"
   xmlns:svg="http://www.w3.org/2000/svg"><sodipodi:namedview
     id="namedview1"
     pagecolor="#505050"
     bordercolor="#ffffff"
     borderopacity="1"
     inkscape:showpageshadow="0"
     inkscape:pageopacity="0"
     inkscape:pagecheckerboard="1"
     inkscape:deskcolor="#505050"
     inkscape:zoom="1.1117597"
     inkscape:cx="196.08554"
     inkscape:cy="285.5833"
     inkscape:window-width="1920"
     inkscape:window-height="1011"
     inkscape:window-x="0"
     inkscape:window-y="0"
     inkscape:window-maximized="1"
     inkscape:current-layer="layer1" /><defs
     id="defs1"><filter
       style="color-interpolation-filters:sRGB"
       id="filter3"
       x="-0.058823884"
       y="-0.058823884"
       width="1.1176478"
       height="1.1176478"><feGaussianBlur
         stdDeviation="10.213423"
         id="feGaussianBlur3" /></filter></defs><g
     inkscape:groupmode="layer"
     id="layer7"
     inkscape:label="SafeArea"
     style="display:none"><rect
       style="fill:#800000;stroke-width:2"
       id="rect1"
       width="512"
       height="512"
       x="0"
       y="0"
       inkscape:label="bg" /><rect
       style="opacity:0.48434;fill:#000000;fill-opacity:1;stroke:none;stroke-width:2.41934;filter:url(#filter3)"
       id="rect2"
       width="416.70514"
       height="416.70514"
       x="47.647438"
       y="47.647438"
       ry="81.419876"
       inkscape:label="shadow" /><rect
       style="fill:#0bc90b;fill-opacity:1;stroke:none;stroke-width:2.41934"
       id="rect3"
       width="416.70514"
       height="416.70514"
       x="47.647438"
       y="47.647438"
       ry="81.419876"
       inkscape:label="bound" /></g><g
     inkscape:groupmode="layer"
     id="layer1"
     inkscape:label="Zig"><g
       fill="#f7a41d"
       id="g12"
       transform="matrix(2.8738286,0,0,2.8738286,36.152124,54.83201)"
       style="stroke-width:0.347968"><g
         id="g3"
         style="stroke-width:0.347968"><polygon
           points="19,30 46,22 28,44 "
           id="polygon1"
           style="stroke-width:0.347968" /><polygon
           points="33,33 28,44 22,44 22,95 31,95 20,100 12,117 0,117 0,22 46,22 "
           shape-rendering="crispEdges"
           id="polygon2"
           style="stroke-width:0.347968" /><polygon
           points="4,106 31,95 12,117 "
           id="polygon3"
           style="stroke-width:0.347968" /></g><g
         id="g8"
         style="stroke-width:0.347968"><polygon
           points="37,44 56,22 62,36 "
           id="polygon4"
           style="stroke-width:0.347968" /><polygon
           points="111,22 111,44 37,44 56,32 56,22 "
           shape-rendering="crispEdges"
           id="polygon5"
           style="stroke-width:0.347968" /><polygon
           points="90,104 116,95 97,117 "
           id="polygon6"
           style="stroke-width:0.347968" /><polygon
           points="100,104 97,117 42,117 42,95 116,95 "
           shape-rendering="crispEdges"
           id="polygon7"
           style="stroke-width:0.347968" /><polygon
           points="101,22 150,0 52,117 3,140 "
           id="polygon8"
           style="stroke-width:0.347968" /></g><g
         id="g11"
         style="stroke-width:0.347968"><polygon
           points="122,45 141,22 140,40 "
           id="polygon9"
           style="stroke-width:0.347968" /><polygon
           points="153,117 106,117 120,105 125,95 131,95 131,45 122,45 132,36 141,22 153,22 "
           shape-rendering="crispEdges"
           id="polygon10"
           style="stroke-width:0.347968" /><polygon
           points="106,117 125,95 130,110 "
           id="polygon11"
           style="stroke-width:0.347968" /></g></g></g></svg>
