<?xml version="1.0" encoding="UTF-8" standalone="no"?>
<!-- Created with Inkscape (http://www.inkscape.org/) -->

<svg
   width="512"
   height="512"
   viewBox="0 0 512 512"
   version="1.1"
   id="svg1"
   sodipodi:docname="android_logo.svg"
   inkscape:version="1.3.2 (091e20e, 2023-11-25)"
   xml:space="preserve"
   inkscape:export-filename="../android_logo.png"
   inkscape:export-xdpi="78.75"
   inkscape:export-ydpi="78.75"
   xmlns:inkscape="http://www.inkscape.org/namespaces/inkscape"
   xmlns:sodipodi="http://sodipodi.sourceforge.net/DTD/sodipodi-0.dtd"
   xmlns="http://www.w3.org/2000/svg"
   xmlns:svg="http://www.w3.org/2000/svg"><sodipodi:namedview
     id="namedview1"
     pagecolor="#505050"
     bordercolor="#ffffff"
     borderopacity="1"
     inkscape:showpageshadow="0"
     inkscape:pageopacity="0"
     inkscape:pagecheckerboard="1"
     inkscape:deskcolor="#505050"
     inkscape:zoom="1.1117597"
     inkscape:cx="272.54091"
     inkscape:cy="284.68382"
     inkscape:window-width="1920"
     inkscape:window-height="1011"
     inkscape:window-x="0"
     inkscape:window-y="0"
     inkscape:window-maximized="1"
     inkscape:current-layer="layer1" /><defs
     id="defs1"><filter
       style="color-interpolation-filters:sRGB"
       id="filter3"
       x="-0.058823884"
       y="-0.058823884"
       width="1.1176478"
       height="1.1176478"><feGaussianBlur
         stdDeviation="10.213423"
         id="feGaussianBlur3" /></filter><filter
       style="color-interpolation-filters:sRGB"
       id="filter3-5"
       x="-0.058823884"
       y="-0.058823884"
       width="1.1176478"
       height="1.1176478"><feGaussianBlur
         stdDeviation="10.213423"
         id="feGaussianBlur3-3" /></filter><style
       id="style1">.cls-1{fill:#3ddc84;}</style></defs><g
     inkscape:groupmode="layer"
     id="layer7"
     inkscape:label="SafeArea"
     style="display:none"><rect
       style="fill:#800000;stroke-width:2"
       id="rect1"
       width="512"
       height="512"
       x="0"
       y="0"
       inkscape:label="bg" /><rect
       style="opacity:0.48434;fill:#000000;fill-opacity:1;stroke:none;stroke-width:2.41934;filter:url(#filter3)"
       id="rect2"
       width="416.70514"
       height="416.70514"
       x="47.647438"
       y="47.647438"
       ry="81.419876"
       inkscape:label="shadow" /><rect
       style="fill:#0bc90b;fill-opacity:1;stroke:none;stroke-width:2.41934"
       id="rect3"
       width="416.70514"
       height="416.70514"
       x="47.647438"
       y="47.647438"
       ry="81.419876"
       inkscape:label="bound" /></g><g
     inkscape:groupmode="layer"
     id="layer1"
     inkscape:label="Android"><path
       id="path1"
       style="stroke-width:0.352102"
       class="cls-1"
       d="m 93.750779,64.151723 a 8.8648266,8.8648266 0 0 0 -5.832265,13.10866 L 130.52947,151.06959 C 57.364278,190.86429 7.3201357,264.93205 1.7723841e-7,352.44423 H 512 C 504.67183,264.93205 454.63169,190.86429 381.47054,151.06959 L 424.07703,77.27152 A 8.8660972,8.8660972 0 1 0 408.72639,68.397214 L 365.58057,143.12684 C 332.58773,128.06873 295.5331,119.6819 255.99554,119.6819 c -39.53756,0 -76.58773,8.39889 -109.58056,23.44494 L 103.27361,68.397214 a 8.8648266,8.8648266 0 0 0 -9.522831,-4.245491 z" /><path
       id="rect1-5"
       style="display:inline;fill:#f1f1f3;stroke-width:1"
       d="m 135.13155,237.06705 a 21.32162,21.32162 0 0 0 3.04204,42.42597 21.345726,21.345726 0 0 0 21.31885,-21.32553 21.32162,21.32162 0 0 0 -24.36089,-21.10044 z m 235.65059,0 a 21.32162,21.32162 0 0 0 3.04427,42.42597 21.349744,21.349744 0 0 0 21.31662,-21.32553 21.32162,21.32162 0 0 0 -24.36089,-21.10044 z" /></g></svg>
