<?xml version="1.0" encoding="UTF-8" standalone="no"?>
<!-- Created with Inkscape (http://www.inkscape.org/) -->

<svg
   width="512"
   height="512"
   viewBox="0 0 512 512"
   version="1.1"
   id="svg1"
   sodipodi:docname="ios_logo.svg"
   inkscape:version="1.3.2 (091e20e, 2023-11-25)"
   xml:space="preserve"
   inkscape:export-filename="../ios_logo.png"
   inkscape:export-xdpi="78.75"
   inkscape:export-ydpi="78.75"
   xmlns:inkscape="http://www.inkscape.org/namespaces/inkscape"
   xmlns:sodipodi="http://sodipodi.sourceforge.net/DTD/sodipodi-0.dtd"
   xmlns="http://www.w3.org/2000/svg"
   xmlns:svg="http://www.w3.org/2000/svg"><sodipodi:namedview
     id="namedview1"
     pagecolor="#505050"
     bordercolor="#ffffff"
     borderopacity="1"
     inkscape:showpageshadow="0"
     inkscape:pageopacity="0"
     inkscape:pagecheckerboard="1"
     inkscape:deskcolor="#505050"
     inkscape:zoom="1.1117597"
     inkscape:cx="314.81623"
     inkscape:cy="291.87962"
     inkscape:window-width="1920"
     inkscape:window-height="1011"
     inkscape:window-x="0"
     inkscape:window-y="0"
     inkscape:window-maximized="1"
     inkscape:current-layer="layer1" /><defs
     id="defs1"><filter
       style="color-interpolation-filters:sRGB"
       id="filter3"
       x="-0.058823884"
       y="-0.058823884"
       width="1.1176478"
       height="1.1176478"><feGaussianBlur
         stdDeviation="10.213423"
         id="feGaussianBlur3" /></filter><linearGradient
       id="linearGradient29561"
       inkscape:swatch="solid"><stop
         style="stop-color:#f0db4f;stop-opacity:1;"
         offset="0"
         id="stop29559" /></linearGradient><style
       id="style2">
      .cls-1 {
        fill: #393939;
      }

      .cls-2 {
        fill: #654ff0;
      }
    </style><inkscape:path-effect
       effect="fillet_chamfer"
       id="path-effect2522"
       is_visible="false"
       lpeversion="1"
       satellites_param="F,0,0,1,0,23,0,1 @ F,0,0,1,0,23,0,1 @ F,0,0,1,0,23,0,1 @ F,0,0,1,0,23,0,1 @ F,0,0,1,0,23,0,1 @ F,0,0,1,0,23,0,1 @ F,0,0,1,0,23,0,1 @ F,0,0,1,0,23,0,1 @ F,0,0,1,0,23,0,1 @ F,0,0,1,0,23,0,1 @ F,0,0,1,0,23,0,1 @ F,0,0,1,0,23,0,1"
       unit="px"
       method="auto"
       mode="F"
       radius="23"
       chamfer_steps="1"
       flexible="false"
       use_knot_distance="true"
       apply_no_radius="true"
       apply_with_radius="true"
       only_selected="false"
       hide_knots="false"
       nodesatellites_param="F,0,0,1,0,23,0,1 @ F,0,0,1,0,23,0,1 @ F,0,0,1,0,23,0,1 @ F,0,0,1,0,23,0,1 @ F,0,0,1,0,23,0,1 @ F,0,0,1,0,23,0,1 @ F,0,0,1,0,23,0,1 @ F,0,0,1,0,23,0,1 @ F,0,0,1,0,23,0,1 @ F,0,0,1,0,23,0,1 @ F,0,0,1,0,23,0,1 @ F,0,0,1,0,23,0,1" /><inkscape:path-effect
       effect="fillet_chamfer"
       id="path-effect2128"
       is_visible="true"
       lpeversion="1"
       satellites_param="F,0,0,1,0,25,0,1 @ F,0,0,1,0,25,0,1 @ F,0,0,1,0,25,0,1 @ F,0,0,1,0,25,0,1 @ F,0,0,1,0,25,0,1 @ F,0,0,1,0,25,0,1"
       unit="px"
       method="auto"
       mode="F"
       radius="25"
       chamfer_steps="1"
       flexible="false"
       use_knot_distance="true"
       apply_no_radius="true"
       apply_with_radius="true"
       only_selected="false"
       hide_knots="false"
       nodesatellites_param="F,0,0,1,0,25,0,1 @ F,0,0,1,0,25,0,1 @ F,0,0,1,0,25,0,1 @ F,0,0,1,0,25,0,1 @ F,0,0,1,0,25,0,1 @ F,0,0,1,0,25,0,1" /><inkscape:path-effect
       effect="bspline"
       id="path-effect2088"
       is_visible="true"
       lpeversion="1"
       weight="2"
       steps="10"
       helper_size="2"
       apply_no_weight="true"
       apply_with_weight="true"
       only_selected="false" /><mask
       maskUnits="userSpaceOnUse"
       id="mask19989"><path
         id="path19991"
         d="M 236.08144,500.49998 165.0674,459.4999 a 20833883,20833883 0 0 0 -39.83717,-23 L 54.216096,395.49998 A 39.837067,39.837067 0 0 1 34.297524,361.00001 L 34.297612,279 a 20833883,20833883 0 0 0 -10e-7,-46 l -9.3e-5,-81.99999 A 39.837067,39.837067 0 0 1 54.216089,116.50003 L 125.23023,75.5001 a 20833883,20833883 0 0 0 39.83717,-23 l 71.01403,-41.000079 a 39.837067,39.837067 0 0 1 39.83714,0 L 346.93262,52.5001 a 20833883,20833883 0 0 0 39.83717,23 l 71.01412,40.99992 a 39.837067,39.837067 0 0 1 19.91858,34.49997 L 477.7024,233 a 20833883,20833883 0 0 0 0,46 l 9e-5,81.99999 a 39.837067,39.837067 0 0 1 -19.91857,34.49998 l -71.01413,40.99993 a 20833883,20833883 0 0 0 -39.83717,23 l -71.01403,41.00008 a 39.837067,39.837067 0 0 1 -39.83715,0 z"
         style="font-variation-settings:'wght' 800;opacity:1;fill:#ffffff;fill-opacity:1"
         inkscape:label="gmask" /></mask><filter
       style="color-interpolation-filters:sRGB"
       id="filter3-3"
       x="-0.058823884"
       y="-0.058823884"
       width="1.1176478"
       height="1.1176478"><feGaussianBlur
         stdDeviation="10.213423"
         id="feGaussianBlur3-6" /></filter></defs><g
     inkscape:groupmode="layer"
     id="layer7"
     inkscape:label="SafeArea"
     style="display:none"><rect
       style="fill:#800000;stroke-width:2"
       id="rect1"
       width="512"
       height="512"
       x="0"
       y="0"
       inkscape:label="bg" /><rect
       style="opacity:0.48434;fill:#000000;fill-opacity:1;stroke:none;stroke-width:2.41934;filter:url(#filter3)"
       id="rect2"
       width="416.70514"
       height="416.70514"
       x="47.647438"
       y="47.647438"
       ry="81.419876"
       inkscape:label="shadow" /><rect
       style="fill:#0bc90b;fill-opacity:1;stroke:none;stroke-width:2.41934"
       id="rect3"
       width="416.70514"
       height="416.70514"
       x="47.647438"
       y="47.647438"
       ry="81.419876"
       inkscape:label="bound" /></g><g
     inkscape:groupmode="layer"
     id="layer1"
     inkscape:label="IOS"><path
       id="path3"
       style="display:inline;fill:#f1f1f3;fill-opacity:1;stroke-width:5;stroke:#000000;stroke-opacity:1;stroke-dasharray:none;paint-order:stroke fill markers"
       d="m 164.51367,52.695312 c -19.94925,10e-7 -36.08805,1.270073 -49.17578,5.082032 C 103.13962,61.335172 94.2449,66.926592 86.748047,72.644531 73.787386,82.68269 64.640196,96.786055 60.701172,106.82422 c -7.878049,20.33044 -8.00586,43.20401 -8.00586,57.68945 v 182.97266 c 0,14.48544 0.127811,37.35717 8.00586,57.56055 3.939024,10.03815 13.086214,24.27055 26.046875,34.18164 7.496853,5.71794 16.391573,11.18229 28.589843,14.86718 13.08773,3.93903 29.22653,5.20899 49.17578,5.20899 h 182.97266 c 19.94925,0 36.08805,-1.27007 49.17578,-5.08203 12.19827,-3.55783 21.09299,-9.14926 28.58984,-14.86719 12.96067,-10.03816 22.10785,-24.14153 26.04688,-34.17969 7.87804,-20.33045 8.00586,-43.20401 8.00586,-57.68945 V 164.51367 c 0,-14.48544 -0.12782,-37.35717 -8.00586,-57.56055 C 447.3598,96.914967 438.21262,82.682578 425.25195,72.771484 417.88217,67.053546 408.86038,61.58919 396.66211,57.904297 383.57438,53.965272 367.56265,52.695312 347.48633,52.695312 Z" /><path
       id="rect1-7"
       style="display:inline;fill:#1d1d1f;fill-opacity:1"
       d="m 217.75391,185.47852 c -41.93156,0 -68.10743,29.48009 -68.10743,76.36718 0,46.8871 26.17587,76.23828 68.10743,76.23828 41.93154,0 68.10742,-29.35118 68.10742,-76.23828 0,-46.88709 -26.17588,-76.36718 -68.10742,-76.36718 z m 131.76562,0.12695 c -30.62274,0 -52.0957,17.15436 -52.0957,41.42383 0,20.96578 12.83323,34.43383 42.43945,40.78711 l 16.39063,3.55859 c 20.45751,4.44729 28.71679,12.70591 28.71679,25.03125 0,14.61251 -14.61129,25.0332 -34.56054,25.0332 -21.21991,0 -35.96099,-9.65785 -38.1211,-25.54101 h -18.42383 c 1.77892,25.54012 23.25276,42.05859 55.52735,42.05859 32.90992,0.12707 54.38476,-16.89971 54.38476,-44.21875 0,-20.83871 -12.19941,-33.16397 -42.94922,-39.89844 l -16.39062,-3.55859 c -20.20338,-4.44729 -28.08203,-12.45073 -28.08203,-24.01367 0,-15.12078 14.23178,-24.01563 32.65625,-24.01563 19.31392,0 32.02002,9.90958 33.67187,26.04688 h 18.42579 c -0.88946,-25.03187 -22.1107,-42.69336 -51.58985,-42.69336 z m -131.76562,16.90039 c 30.24154,0 49.17382,22.8721 49.17382,59.33984 0,36.34068 -18.93228,59.33789 -49.17382,59.33789 -30.24155,0 -49.17579,-22.99721 -49.17579,-59.33789 0,-36.46774 18.93424,-59.33984 49.17579,-59.33984 z m -94.0293,10.03711 c -5.71794,0 -10.41992,4.57492 -10.41992,10.41992 0,5.71793 4.70198,10.41992 10.41992,10.41992 5.845,-0.12706 10.41992,-4.70199 10.41992,-10.41992 0,-5.71794 -4.57492,-10.41992 -10.41992,-10.41992 z m -9.02149,34.94336 v 88.18359 h 18.16993 v -88.18359 z" /></g></svg>
