<?xml version="1.0" encoding="UTF-8" standalone="no"?>
<!-- Created with Inkscape (http://www.inkscape.org/) -->

<svg
   width="512"
   height="512"
   viewBox="0 0 512 512"
   version="1.1"
   id="svg1"
   sodipodi:docname="linux_tux.svg"
   inkscape:version="1.3.2 (091e20e, 2023-11-25)"
   xml:space="preserve"
   inkscape:export-filename="../linux_tux_line.png"
   inkscape:export-xdpi="78.75"
   inkscape:export-ydpi="78.75"
   xmlns:inkscape="http://www.inkscape.org/namespaces/inkscape"
   xmlns:sodipodi="http://sodipodi.sourceforge.net/DTD/sodipodi-0.dtd"
   xmlns="http://www.w3.org/2000/svg"
   xmlns:svg="http://www.w3.org/2000/svg"><sodipodi:namedview
     id="namedview1"
     pagecolor="#505050"
     bordercolor="#ffffff"
     borderopacity="1"
     inkscape:showpageshadow="0"
     inkscape:pageopacity="0"
     inkscape:pagecheckerboard="1"
     inkscape:deskcolor="#505050"
     inkscape:zoom="1.5722656"
     inkscape:cx="277.94285"
     inkscape:cy="277.62484"
     inkscape:window-width="1920"
     inkscape:window-height="1011"
     inkscape:window-x="0"
     inkscape:window-y="0"
     inkscape:window-maximized="1"
     inkscape:current-layer="layer2" /><defs
     id="defs1"><filter
       style="color-interpolation-filters:sRGB"
       id="filter3"
       x="-0.058823884"
       y="-0.058823884"
       width="1.1176478"
       height="1.1176478"><feGaussianBlur
         stdDeviation="10.213423"
         id="feGaussianBlur3" /></filter><filter
       style="color-interpolation-filters:sRGB"
       id="filter3-5"
       x="-0.058823884"
       y="-0.058823884"
       width="1.1176478"
       height="1.1176478"><feGaussianBlur
         stdDeviation="10.213423"
         id="feGaussianBlur3-3" /></filter><inkscape:path-effect
       is_visible="true"
       id="path-effect29672-0"
       effect="spiro" /><inkscape:path-effect
       is_visible="true"
       id="path-effect29678-1"
       effect="spiro" /><inkscape:path-effect
       is_visible="true"
       id="path-effect29678-4-6"
       effect="spiro" /><inkscape:path-effect
       is_visible="true"
       id="path-effect28714-5"
       effect="spiro" /><inkscape:path-effect
       is_visible="true"
       id="path-effect29721-2"
       effect="spiro" /><inkscape:path-effect
       is_visible="true"
       id="path-effect28463-8-0"
       effect="spiro" /><inkscape:path-effect
       is_visible="true"
       id="path-effect28463-0-7"
       effect="spiro" /><linearGradient
       id="linearGradient28799-5-5"><stop
         id="stop28801-1-9"
         offset="0"
         style="stop-color:#fefefc;stop-opacity:1;" /><stop
         style="stop-color:#fefefc;stop-opacity:1"
         offset="0.75733864"
         id="stop28807-2-6" /><stop
         id="stop28803-6-3"
         offset="1"
         style="stop-color:#d4d4d4;stop-opacity:1" /></linearGradient><inkscape:path-effect
       is_visible="true"
       id="path-effect28797-8-1"
       effect="spiro" /><inkscape:path-effect
       is_visible="true"
       id="path-effect28797-81"
       effect="spiro" /><inkscape:path-effect
       is_visible="true"
       id="path-effect28273-4-2"
       effect="spiro" /><linearGradient
       id="linearGradient28853-5"><stop
         id="stop28855-3"
         offset="0"
         style="stop-color:#020204;stop-opacity:1" /><stop
         style="stop-color:#020204;stop-opacity:1"
         offset="0.73448181"
         id="stop28865-0" /><stop
         id="stop28857-9"
         offset="1"
         style="stop-color:#5c5c5c;stop-opacity:1;" /></linearGradient><inkscape:path-effect
       is_visible="true"
       id="path-effect28851-0"
       effect="spiro" /><inkscape:path-effect
       is_visible="true"
       id="path-effect28881-6"
       effect="spiro" /><linearGradient
       id="linearGradient28935-8"><stop
         id="stop28937-7"
         offset="0"
         style="stop-color:#949494;stop-opacity:0.39215687;" /><stop
         style="stop-color:#949494;stop-opacity:1;"
         offset="0.5"
         id="stop28943-3" /><stop
         id="stop28939-8"
         offset="1"
         style="stop-color:#949494;stop-opacity:0.39215687;" /></linearGradient><linearGradient
       id="linearGradient28976-3"><stop
         id="stop28978-7"
         offset="0"
         style="stop-color:#747474;stop-opacity:1" /><stop
         style="stop-color:#8c8c8c;stop-opacity:1;"
         offset="0.125"
         id="stop29259-5" /><stop
         style="stop-color:#a4a4a4;stop-opacity:1;"
         offset="0.25"
         id="stop29257-0" /><stop
         style="stop-color:#d4d4d4;stop-opacity:1"
         offset="0.5"
         id="stop28984-4" /><stop
         id="stop28986-0"
         offset="0.61919296"
         style="stop-color:#d4d4d4;stop-opacity:1" /><stop
         id="stop28980-2"
         offset="1"
         style="stop-color:#7c7c7c;stop-opacity:1" /></linearGradient><inkscape:path-effect
       is_visible="true"
       id="path-effect28974-8"
       effect="spiro" /><clipPath
       id="clipPath29028-5"
       clipPathUnits="userSpaceOnUse"><path
         sodipodi:nodetypes="aaaaaaaa"
         inkscape:connector-curvature="0"
         id="path29030-7"
         d="m 85.75,122.36218 c -2.780425,1.91023 -5.110569,4.57487 -6.25,7.75 -1.436029,4.00163 -0.885838,8.48071 0.5,12.5 1.419488,4.11688 3.793788,8.04098 7.37932,10.51234 1.792766,1.23567 3.868091,2.08301 6.030402,2.33859 2.162311,0.25558 4.409274,-0.0949 6.340278,-1.10093 2.35312,-1.22596 4.14782,-3.37278 5.26217,-5.78076 1.11436,-2.40798 1.5888,-5.0701 1.73783,-7.71924 0.18989,-3.37546 -0.14047,-6.80646 -1.25,-10 -1.20527,-3.46909 -3.39005,-6.67055 -6.472754,-8.6666 -1.541351,-0.99803 -3.291947,-1.68356 -5.110883,-1.93515 -1.818936,-0.25158 -3.704766,-0.0633 -5.416363,0.60175 -0.975471,0.37901 -1.887438,0.9074 -2.75,1.5"
         style="fill:url(#radialGradient29032);fill-opacity:1;stroke:none" /></clipPath><linearGradient
       id="linearGradient29336-6"><stop
         id="stop29338-1"
         offset="0"
         style="stop-color:#646464;stop-opacity:0" /><stop
         style="stop-color:#646464;stop-opacity:0.5825243"
         offset="0.30628255"
         id="stop29344-7" /><stop
         id="stop29354-5"
         offset="0.47000006"
         style="stop-color:#646464;stop-opacity:1" /><stop
         style="stop-color:#646464;stop-opacity:0.25728154"
         offset="0.72834015"
         id="stop29356-3" /><stop
         id="stop29340-6"
         offset="1"
         style="stop-color:#646464;stop-opacity:0;" /></linearGradient><inkscape:path-effect
       is_visible="true"
       id="path-effect29455-3"
       effect="spiro" /><linearGradient
       id="linearGradient29477-3"><stop
         id="stop29479-5"
         offset="0"
         style="stop-color:#757574;stop-opacity:0" /><stop
         style="stop-color:#757574;stop-opacity:1;"
         offset="0.26291031"
         id="stop29487-5" /><stop
         style="stop-color:#757574;stop-opacity:1;"
         offset="0.5"
         id="stop29485-0" /><stop
         id="stop29481-3"
         offset="1"
         style="stop-color:#757574;stop-opacity:0" /></linearGradient><linearGradient
       id="linearGradient28469-0"><stop
         style="stop-color:#d2940a;stop-opacity:1"
         offset="0"
         id="stop28479-4" /><stop
         style="stop-color:#d89c08;stop-opacity:1"
         offset="0.75143719"
         id="stop28477-2" /><stop
         id="stop28485-7"
         offset="0.86579126"
         style="stop-color:#b67e07;stop-opacity:1;" /><stop
         id="stop28473-1"
         offset="1"
         style="stop-color:#946106;stop-opacity:1" /></linearGradient><inkscape:path-effect
       is_visible="true"
       id="path-effect28463-4"
       effect="spiro" /><inkscape:path-effect
       is_visible="true"
       id="path-effect28489-4"
       effect="spiro" /><inkscape:path-effect
       is_visible="true"
       id="path-effect28273-54-7"
       effect="spiro" /><linearGradient
       id="linearGradient28275-8"><stop
         id="stop28277-1"
         offset="0"
         style="stop-color:#ad780a;stop-opacity:1" /><stop
         style="stop-color:#d89e08;stop-opacity:1"
         offset="0.11972899"
         id="stop28291-9" /><stop
         style="stop-color:#edb80b;stop-opacity:1"
         offset="0.25514477"
         id="stop28289-6" /><stop
         style="stop-color:#ebc80d;stop-opacity:1"
         offset="0.39194193"
         id="stop28287-6" /><stop
         style="stop-color:#f5d838;stop-opacity:1"
         offset="0.52741116"
         id="stop28285-7" /><stop
         style="stop-color:#f6d811;stop-opacity:1"
         offset="0.76906693"
         id="stop28283-7" /><stop
         id="stop28279-5"
         offset="1"
         style="stop-color:#f5cd31;stop-opacity:1" /></linearGradient><inkscape:path-effect
       is_visible="true"
       id="path-effect28273-44"
       effect="spiro" /><inkscape:path-effect
       is_visible="true"
       id="path-effect28384-7"
       effect="spiro" /><linearGradient
       id="linearGradient29529-6"><stop
         id="stop29531-0"
         offset="0"
         style="stop-color:#3a2903;stop-opacity:1;" /><stop
         style="stop-color:#735208;stop-opacity:1"
         offset="0.55472803"
         id="stop29539-7" /><stop
         id="stop29533-8"
         offset="1"
         style="stop-color:#ac8c04;stop-opacity:1" /></linearGradient><inkscape:path-effect
       is_visible="true"
       id="path-effect29553-7"
       effect="spiro" /><clipPath
       id="clipPath29644-8"
       clipPathUnits="userSpaceOnUse"><path
         sodipodi:nodetypes="zzzzzzz"
         inkscape:connector-curvature="0"
         id="path29646-8"
         d="m 54.232441,122.36218 c -1.780966,0.097 -3.484616,0.91899 -4.787851,2.1367 -1.303235,1.21771 -2.221372,2.81176 -2.786181,4.50357 -1.129618,3.38363 -0.875481,7.05177 -0.618698,10.60973 0.23251,3.22162 0.470404,6.50533 1.676785,9.50158 0.60319,1.49813 1.450247,2.91021 2.580338,4.06395 1.130092,1.15374 2.551736,2.04189 4.118297,2.43447 1.468838,0.36809 3.038161,0.29183 4.482784,-0.16209 1.444623,-0.45391 2.763917,-1.27887 3.846236,-2.33791 1.57904,-1.54507 2.643262,-3.5662 3.253449,-5.68947 0.610186,-2.12328 0.784157,-4.35155 0.752401,-6.56053 -0.03974,-2.76435 -0.400909,-5.53851 -1.265755,-8.16439 -0.864846,-2.62588 -2.245742,-5.10327 -4.172795,-7.08561 -0.933308,-0.96009 -1.997766,-1.80513 -3.198586,-2.39747 -1.200819,-0.59233 -2.54344,-0.92535 -3.880424,-0.85253"
         style="fill:url(#radialGradient29648);fill-opacity:1;stroke:none" /></clipPath><inkscape:path-effect
       is_visible="true"
       id="path-effect29707-7-6"
       effect="spiro" /><clipPath
       clipPathUnits="userSpaceOnUse"
       id="clipPath14656-7"><path
         sodipodi:nodetypes="aaaaassssaaaaaa"
         inkscape:connector-curvature="0"
         d="m 304.84727,225.44951 c 6.01627,4.92338 9.77707,12.317 10.94319,20.00305 1.8254,12.03148 -2.34636,24.07488 -6.44591,35.53273 -0.81749,2.28481 -1.63978,4.59033 -1.96473,6.99513 -0.32495,2.4048 -0.11897,4.94825 1.02948,7.08594 1.30279,2.42497 3.73227,4.12469 6.36677,4.92292 2.58877,0.78438 5.39365,0.76103 8.01466,0.0922 2.62101,-0.66882 5.06097,-1.96774 7.18716,-3.63996 5.48002,-4.30997 8.75799,-10.98552 10.01043,-17.84394 1.25243,-6.85841 0.63908,-13.92879 -0.551,-20.7983 -1.62313,-9.36916 -4.30898,-18.53961 -7.74003,-27.40773 -2.51766,-6.50732 -5.46794,-12.91081 -9.61753,-18.52016 -4.04611,-5.46946 -9.16208,-10.08954 -13.10336,-15.63502 -2.73209,-3.84412 -4.89983,-8.13097 -8.1917,-11.50812 -1.64594,-1.68858 -3.57654,-3.13527 -5.76975,-4.00143 -2.19321,-0.86616 -4.66356,-1.12446 -6.93254,-0.48249 -1.50468,0.42573 -2.89193,1.23739 -4.03791,2.30136 -1.14598,1.06397 -2.05268,2.37637 -2.69275,3.80312 -1.28015,2.85349 -1.47719,6.11241 -0.96512,9.1977 0.66114,3.98343 2.44407,7.69333 4.46569,11.18873 2.27396,3.93169 4.918,7.71926 8.38442,10.65407 3.5985,3.04664 7.96161,5.07413 11.61053,8.0602"
         id="path14658-9"
         style="fill:none;stroke:#c17d11;stroke-width:1px;stroke-linecap:butt;stroke-linejoin:miter;stroke-opacity:1" /></clipPath><inkscape:path-effect
       is_visible="true"
       id="path-effect4500-7"
       effect="spiro" /><inkscape:path-effect
       is_visible="true"
       id="path-effect4582-3"
       effect="spiro" /><inkscape:path-effect
       effect="spiro"
       id="path-effect14300-7"
       is_visible="true" /><clipPath
       clipPathUnits="userSpaceOnUse"
       id="clipPath14489-3"><path
         style="fill:url(#linearGradient14493);fill-opacity:1;stroke:none"
         d="m 516.00562,331.8756 c -0.6714,1.71905 -1.62682,3.32679 -2.81579,4.73826 -2.6238,3.11482 -6.268,5.17039 -9.89648,7.01985 -6.1886,3.15437 -12.60169,5.92177 -18.41964,9.71654 -3.89802,2.54249 -7.4959,5.52671 -10.86016,8.74238 -2.87719,2.75012 -5.60582,5.68745 -8.83247,8.01771 -3.25567,2.35122 -7.01915,4.05426 -10.99061,4.6502 -4.83026,0.72481 -9.82134,-0.21289 -14.29898,-2.16416 -3.13754,-1.36728 -6.15569,-3.3229 -7.96301,-6.22931 -1.81425,-2.91754 -2.22807,-6.48813 -2.23266,-9.92375 -0.008,-6.07666 1.11824,-12.09004 2.17848,-18.07349 0.88097,-4.97177 1.71949,-9.95483 2.26013,-14.97502 0.98337,-9.13118 0.9763,-18.35278 0.3199,-27.51327 -0.10993,-1.53416 -0.23754,-3.0832 -0.008,-4.60412 0.22922,-1.52092 0.85475,-3.0367 2.02069,-4.03986 1.07696,-0.9266 2.52093,-1.33598 3.93947,-1.4145 1.41854,-0.0785 2.83404,0.14655 4.23982,0.35197 3.31254,0.48405 6.65159,0.8649 9.88917,1.71656 2.04284,0.53738 4.03315,1.25925 6.0722,1.81081 3.40258,0.92039 6.96639,1.36144 10.46739,0.95192 3.76917,-0.44089 7.42987,-1.85678 11.22363,-1.76474 1.55658,0.0378 3.1015,0.33171 4.58649,0.79985 1.51539,0.47772 3.00914,1.16182 4.12281,2.29512 0.84639,0.8613 1.43579,1.94539 1.87872,3.06879 0.65982,1.67352 1.01492,3.457 1.16703,5.24945 0.13475,1.58788 0.11343,3.19441 0.41433,4.75933 0.49503,2.57458 1.84746,4.92305 3.52848,6.93494 1.68102,2.01189 3.68982,3.72048 5.69641,5.40783 1.99908,1.68103 4.0106,3.35469 6.16708,4.82839 1.0121,0.69165 2.05642,1.33949 3.01736,2.10062 0.96094,0.76113 1.84466,1.6468 2.44543,2.71535 0.81492,1.44944 1.06377,3.2077 0.68307,4.82635 l 2e-5,0"
         id="path14491-6"
         inkscape:connector-curvature="0"
         sodipodi:nodetypes="aaaaaaaaaaaaaaaaaaaaaaaacscaa" /></clipPath><inkscape:path-effect
       effect="spiro"
       id="path-effect14300-2-7"
       is_visible="true" /><clipPath
       clipPathUnits="userSpaceOnUse"
       id="clipPath14481-1"><path
         style="fill:url(#linearGradient14485);fill-opacity:1;stroke:none"
         d="m 516.00562,331.8756 c -0.6714,1.71905 -1.62682,3.32679 -2.81579,4.73826 -2.6238,3.11482 -6.268,5.17039 -9.89648,7.01985 -6.1886,3.15437 -12.60169,5.92177 -18.41964,9.71654 -3.89802,2.54249 -7.4959,5.52671 -10.86016,8.74238 -2.87719,2.75012 -5.60582,5.68745 -8.83247,8.01771 -3.25567,2.35122 -7.01915,4.05426 -10.99061,4.6502 -4.83026,0.72481 -9.82134,-0.21289 -14.29898,-2.16416 -3.13754,-1.36728 -6.15569,-3.3229 -7.96301,-6.22931 -1.81425,-2.91754 -2.22807,-6.48813 -2.23266,-9.92375 -0.008,-6.07666 1.11824,-12.09004 2.17848,-18.07349 0.88097,-4.97177 1.71949,-9.95483 2.26013,-14.97502 0.98337,-9.13118 0.9763,-18.35278 0.3199,-27.51327 -0.10993,-1.53416 -0.23754,-3.0832 -0.008,-4.60412 0.22922,-1.52092 0.85475,-3.0367 2.02069,-4.03986 1.07696,-0.9266 2.52093,-1.33598 3.93947,-1.4145 1.41854,-0.0785 2.83404,0.14655 4.23982,0.35197 3.31254,0.48405 6.65159,0.8649 9.88917,1.71656 2.04284,0.53738 4.03315,1.25925 6.0722,1.81081 3.40258,0.92039 6.96639,1.36144 10.46739,0.95192 3.76917,-0.44089 7.42987,-1.85678 11.22363,-1.76474 1.55658,0.0378 3.1015,0.33171 4.58649,0.79985 1.51539,0.47772 3.00914,1.16182 4.12281,2.29512 0.84639,0.8613 1.43579,1.94539 1.87872,3.06879 0.65982,1.67352 1.01492,3.457 1.16703,5.24945 0.13475,1.58788 0.11343,3.19441 0.41433,4.75933 0.49503,2.57458 1.84746,4.92305 3.52848,6.93494 1.68102,2.01189 3.68982,3.72048 5.69641,5.40783 1.99908,1.68103 4.0106,3.35469 6.16708,4.82839 1.0121,0.69165 2.05642,1.33949 3.01736,2.10062 0.96094,0.76113 1.84466,1.6468 2.44543,2.71535 0.81492,1.44944 1.06377,3.2077 0.68307,4.82635 l 2e-5,0"
         id="path14483-3"
         inkscape:connector-curvature="0"
         sodipodi:nodetypes="aaaaaaaaaaaaaaaaaaaaaaaacscaa" /></clipPath><inkscape:path-effect
       effect="spiro"
       id="path-effect14300-2-2-0"
       is_visible="true" /><clipPath
       clipPathUnits="userSpaceOnUse"
       id="clipPath14473-5"><path
         style="fill:url(#linearGradient14477);fill-opacity:1;stroke:none"
         d="m 511.82669,331.89986 c -0.60617,1.40358 -1.44178,2.70776 -2.46357,3.84504 -2.32524,2.58805 -5.50706,4.22246 -8.65855,5.69652 -5.42045,2.53534 -11.00071,4.7788 -16.11556,7.88485 -3.38301,2.05437 -6.53696,4.47221 -9.50169,7.09434 -2.52461,2.23286 -4.92977,4.6271 -7.72763,6.50627 -2.88313,1.93644 -6.17534,3.29888 -9.61582,3.77358 -4.21817,0.58201 -8.55335,-0.18335 -12.51035,-1.75619 -2.7091,-1.07682 -5.36625,-2.6185 -6.96693,-5.05501 -1.53813,-2.3413 -1.9333,-5.25173 -1.95338,-8.053 -0.0354,-4.93859 0.96501,-9.81816 1.90598,-14.66641 0.78215,-4.02995 1.52682,-8.0717 1.97741,-12.15204 0.81784,-7.40607 0.66114,-14.88536 0.27989,-22.32668 -0.064,-1.24906 -0.13361,-2.5105 0.0789,-3.74301 0.21256,-1.23251 0.73646,-2.45247 1.68171,-3.27147 0.93914,-0.8137 2.20952,-1.15942 3.45104,-1.2115 1.24152,-0.0521 2.47642,0.16381 3.70512,0.34927 2.88969,0.43617 5.81087,0.7091 8.65215,1.39297 1.78651,0.43 3.53091,1.02011 5.31265,1.46945 2.98632,0.75312 6.09645,1.10709 9.15804,0.77247 3.2941,-0.36004 6.50688,-1.50957 9.81969,-1.43207 1.35838,0.0318 2.70755,0.27142 4.01277,0.64907 1.31265,0.3798 2.61744,0.9202 3.6071,1.86246 0.72535,0.69061 1.25006,1.56936 1.64371,2.49029 0.57625,1.34814 0.88626,2.79994 1.02105,4.25986 0.11897,1.28855 0.10468,2.59405 0.36251,3.86214 0.4369,2.14878 1.63966,4.08139 3.11506,5.70353 1.4754,1.62214 3.22406,2.96752 4.9559,4.31247 1.75634,1.36398 3.50975,2.7398 5.39565,3.91818 0.88228,0.55128 1.79349,1.05932 2.63473,1.67142 0.84123,0.61209 1.61878,1.33907 2.14473,2.23668 0.68386,1.16711 0.90229,2.59857 0.59763,3.91652 l 2e-5,0"
         id="path14475-9"
         inkscape:connector-curvature="0"
         sodipodi:nodetypes="aaaaaaaaaaaaaaaaaaaaaaaacscaa" /></clipPath><linearGradient
       id="linearGradient14518-6"><stop
         id="stop14540-0"
         offset="0"
         style="stop-color:#110800;stop-opacity:1;" /><stop
         style="stop-color:#a65a00;stop-opacity:0.80000001;"
         offset="0.59066743"
         id="stop14542-5" /><stop
         style="stop-color:#ff921e;stop-opacity:0;"
         offset="1"
         id="stop14522-4" /></linearGradient><inkscape:path-effect
       is_visible="true"
       id="path-effect29716-0-0"
       effect="spiro" /><inkscape:path-effect
       is_visible="true"
       id="path-effect29716-0-8-3"
       effect="spiro" /><inkscape:path-effect
       is_visible="true"
       id="path-effect29716-6-1"
       effect="spiro" /><clipPath
       clipPathUnits="userSpaceOnUse"
       id="clipPath14822-9"><path
         sodipodi:nodetypes="aaaasssaccaa"
         inkscape:connector-curvature="0"
         d="m 386.1875,285.32775 c -0.40516,-1.10369 -1.11845,-2.08156 -1.9907,-2.86987 -0.87226,-0.78832 -1.90049,-1.39229 -2.98278,-1.85155 -2.16459,-0.91852 -4.52053,-1.26149 -6.83152,-1.69556 -2.17919,-0.40931 -4.34179,-0.90631 -6.52782,-1.27734 -2.27136,-0.38551 -4.6179,-0.63213 -6.8653,-0.1253 -1.96583,0.44333 -3.7845,1.45879 -5.27172,2.81864 -1.48723,1.35984 -2.64911,3.0564 -3.48499,4.89007 -1.47218,3.22952 -1.93451,6.86503 -1.65394,10.40316 0.20882,2.63325 0.87532,5.34594 2.60877,7.33912 1.40065,1.61052 3.38733,2.61526 5.43398,3.22092 3.52502,1.04316 7.36663,0.98822 10.86038,-0.1553 5.76689,-1.93113 10.87568,-5.77387 14.33034,-10.77903 1.13861,-1.64963 2.11217,-3.44809 2.5532,-5.4034 0.33597,-1.48955 0.34831,-3.08112 -0.1779,-4.51456"
         id="path14824-1"
         style="fill:none;stroke:#ce5c00;stroke-width:1px;stroke-linecap:butt;stroke-linejoin:miter;stroke-opacity:1" /></clipPath><clipPath
       clipPathUnits="userSpaceOnUse"
       id="clipPath14822-2-4"><path
         sodipodi:nodetypes="aaaasssaccaa"
         inkscape:connector-curvature="0"
         d="m 386.1875,285.32775 c -0.40516,-1.10369 -1.11845,-2.08156 -1.9907,-2.86987 -0.87226,-0.78832 -1.90049,-1.39229 -2.98278,-1.85155 -2.16459,-0.91852 -4.52053,-1.26149 -6.83152,-1.69556 -2.17919,-0.40931 -4.34179,-0.90631 -6.52782,-1.27734 -2.27136,-0.38551 -4.6179,-0.63213 -6.8653,-0.1253 -1.96583,0.44333 -3.7845,1.45879 -5.27172,2.81864 -1.48723,1.35984 -2.64911,3.0564 -3.48499,4.89007 -1.47218,3.22952 -1.93451,6.86503 -1.65394,10.40316 0.20882,2.63325 0.87532,5.34594 2.60877,7.33912 1.40065,1.61052 3.38733,2.61526 5.43398,3.22092 3.52502,1.04316 7.36663,0.98822 10.86038,-0.1553 5.76689,-1.93113 10.87568,-5.77387 14.33034,-10.77903 1.13861,-1.64963 2.11217,-3.44809 2.5532,-5.4034 0.33597,-1.48955 0.34831,-3.08112 -0.1779,-4.51456"
         id="path14824-6-5"
         style="fill:none;stroke:#ce5c00;stroke-width:1px;stroke-linecap:butt;stroke-linejoin:miter;stroke-opacity:1" /></clipPath><inkscape:path-effect
       effect="spiro"
       id="path-effect14972-2-2"
       is_visible="true" /><inkscape:path-effect
       effect="spiro"
       id="path-effect15017-9"
       is_visible="true" /><clipPath
       clipPathUnits="userSpaceOnUse"
       id="clipPath15031-3"><path
         style="fill:none;stroke:#729fcf;stroke-width:0.125;stroke-linecap:butt;stroke-linejoin:miter;stroke-miterlimit:4;stroke-dasharray:none;stroke-opacity:1"
         d="m 248.06066,184.61218 c -2.60091,3.4397 -5.23338,6.85555 -7.89695,10.24696 -2.83301,3.60715 -5.70116,7.1866 -8.58729,10.75139 -3.54135,4.37407 -7.15155,8.79286 -9.44912,13.93045 -1.97407,4.41422 -2.91014,9.20748 -4.26498,13.84932 -1.53862,5.27153 -3.62627,10.37023 -5.97071,15.33612 -2.1648,4.58539 -4.54978,9.06293 -6.93891,13.53553 -1.73823,3.25407 -3.50515,6.58104 -4.10782,10.22071 -0.47627,2.87632 -0.19849,5.84423 0.53376,8.66626 0.73224,2.82202 1.90964,5.5106 3.23775,8.10601 5.66724,11.07504 14.17003,20.62168 24.24176,27.92472 4.57063,3.31418 9.46669,6.18109 14.60245,8.52595 2.78247,1.27041 5.71355,2.40436 8.77186,2.45744 1.52915,0.0265 3.0741,-0.22544 4.47434,-0.84055 1.40024,-0.6151 2.65068,-1.60373 3.48254,-2.88709 1.02278,-1.5779 1.36992,-3.53829 1.16461,-5.40743 -0.2053,-1.86914 -0.93484,-3.65294 -1.91324,-5.25873 -2.38997,-3.92251 -6.1652,-6.76055 -9.79642,-9.57343 -7.84055,-6.07358 -15.42466,-12.48038 -22.68212,-19.23996 -2.04911,-1.90854 -4.0984,-3.87759 -5.53019,-6.28412 -1.3943,-2.34352 -2.14763,-5.01375 -2.65783,-7.69253 -1.39963,-7.34872 -1.0404,-15.0827 1.45958,-22.13343 0.97802,-2.75834 2.27066,-5.39225 3.51815,-8.03965 2.1622,-4.58855 4.21133,-9.26299 7.04933,-13.46723 3.53268,-5.23334 8.24484,-9.67275 11.15147,-15.27803 2.45457,-4.7335 3.49353,-10.05742 4.36185,-15.31831 0.66531,-4.03089 1.24751,-8.07549 1.74613,-12.13037"
         id="path15033-2"
         inkscape:connector-curvature="0"
         sodipodi:nodetypes="czzzzzzzzzzzzzzzszzzzzc" /></clipPath><clipPath
       clipPathUnits="userSpaceOnUse"
       id="clipPath14186-9"><path
         sodipodi:nodetypes="ssssssssssssssss"
         inkscape:connector-curvature="0"
         id="path14188-1"
         d="m 137.57703,281.0191 c 1.59929,-0.66295 3.3982,-0.78361 5.10074,-0.46963 1.70253,0.31398 3.31141,1.04948 4.74342,2.02239 2.86402,1.94583 4.98821,4.77774 7.02263,7.57952 4.67189,6.43406 9.16868,13.00227 13.24488,19.8293 3.30635,5.53766 6.34352,11.25685 10.16415,16.45304 2.49398,3.3919 5.3066,6.53947 7.813,9.92221 2.50639,3.38273 4.72794,7.05586 5.83931,11.11662 1.44411,5.27653 0.88463,11.09291 -1.62666,15.95302 -1.76663,3.41896 -4.47646,6.35228 -7.77242,8.33898 -3.29595,1.9867 -7.17064,3.01444 -11.01635,2.87021 -6.11413,-0.2293 -11.69944,-3.28515 -17.38362,-5.54906 -11.58097,-4.6125 -24.15978,-6.0594 -36.09666,-9.65174 -3.66859,-1.10404 -7.27582,-2.4107 -10.96988,-3.42629 -1.64125,-0.45122 -3.30866,-0.8482 -4.85875,-1.55144 -1.55008,-0.70325 -2.999548,-1.7491 -3.86171,-3.21675 -0.666391,-1.13439 -0.948386,-2.47002 -0.930187,-3.78554 0.0182,-1.31552 0.325889,-2.61453 0.773815,-3.85158 0.895851,-2.47409 2.343262,-4.71374 3.320162,-7.15696 1.59511,-3.98935 1.88169,-8.38839 1.66657,-12.67942 -0.21511,-4.29103 -0.91078,-8.54478 -1.20454,-12.83115 -0.13118,-1.91406 -0.18066,-3.85256 0.18479,-5.73598 0.36545,-1.88343 1.17577,-3.72459 2.55771,-5.05541 1.27406,-1.22693 2.96492,-1.95531 4.69643,-2.31651 1.73151,-0.3612 3.51533,-0.37747 5.28367,-0.33762 1.76833,0.0399 3.54067,0.13425 5.30351,-0.0106 1.76284,-0.14488 3.53347,-0.54055 5.06911,-1.41828 1.45996,-0.83447 2.65433,-2.0745 3.64374,-3.43424 0.9894,-1.35974 1.78909,-2.84573 2.60891,-4.31396 0.81983,-1.46823 1.66834,-2.93151 2.74157,-4.22611 1.07324,-1.2946 2.38923,-2.42304 3.94266,-3.06698"
         style="fill:#402c07;fill-opacity:1;stroke:none" /></clipPath><inkscape:path-effect
       is_visible="true"
       id="path-effect4669-1"
       effect="spiro" /><inkscape:path-effect
       is_visible="true"
       id="path-effect4669-4-3"
       effect="spiro" /></defs><g
     inkscape:groupmode="layer"
     id="layer7"
     inkscape:label="SafeArea"
     style="display:none"><rect
       style="fill:#800000;stroke-width:2"
       id="rect1"
       width="512"
       height="512"
       x="0"
       y="0"
       inkscape:label="bg" /><rect
       style="opacity:0.48434;fill:#000000;fill-opacity:1;stroke:none;stroke-width:2.41934;filter:url(#filter3)"
       id="rect2"
       width="416.70514"
       height="416.70514"
       x="47.647438"
       y="47.647438"
       ry="81.419876"
       inkscape:label="shadow" /><rect
       style="fill:#0bc90b;fill-opacity:1;stroke:none;stroke-width:2.41934"
       id="rect3"
       width="416.70514"
       height="416.70514"
       x="47.647438"
       y="47.647438"
       ry="81.419876"
       inkscape:label="bound" /></g><g
     inkscape:groupmode="layer"
     id="layer2"
     inkscape:label="TuxLine"
     style="display:inline"><path
       id="path3"
       style="fill:#ffffff;fill-opacity:1;stroke-width:0.519017"
       d="m 263.16406,47.410156 c -11.84124,0.284093 -23.853,2.122117 -34.6733,7.136743 -8.71927,3.995772 -16.40965,10.284163 -21.83295,18.215871 -6.43813,9.290978 -9.81982,20.354155 -11.44167,31.45095 -2.32006,15.78439 -1.31042,31.79203 -0.24913,47.63587 0.23967,3.76545 0.48934,7.56355 0.54767,11.27108 0.0999,4.55661 -0.47794,9.09346 -1.02795,13.60769 -0.56658,4.31053 -1.42301,8.78542 -2.5004,12.86734 -2.16106,8.26097 -5.59361,16.15985 -9.92774,23.50782 -0.39026,0.65204 -0.92895,1.56843 -1.39739,2.31098 -1.56436,2.45657 -3.08942,4.95675 -4.90383,7.23747 -13.25875,15.90338 -25.37289,32.82426 -35.44352,50.93526 -8.29377,15.0433 -15.26566,30.99521 -18.84901,47.85613 -2.16335,10.2953 -2.97457,20.95816 -1.54296,31.41211 -5.06019,4.85316 -8.54994,11.01924 -13.11044,16.29647 -2.87279,3.29096 -7.162947,4.71731 -11.154928,6.13431 -5.060766,1.70503 -10.231878,3.55493 -14.388934,7.02234 -4.833023,3.98142 -8.181927,9.84884 -8.74807,16.12259 -0.73418,7.1669 1.139271,14.22599 1.913928,21.30609 0.332283,3.33993 0.715322,6.83361 -0.349434,10.08283 -2.261898,6.35423 -4.184325,13.01115 -3.966814,19.82052 0.151566,5.01384 1.969012,10.09703 5.628906,13.6211 4.160251,4.06867 9.88255,5.95211 15.455078,7.1289 8.22475,1.66547 16.606758,2.20045 24.883838,3.36289 9.16658,1.24925 18.43097,3.16331 26.64784,7.58631 10.92861,5.62504 22.91311,9.5788 35.25608,10.15757 8.47207,0.36494 17.2562,-0.92418 24.70156,-5.18188 5.5241,-3.12021 10.12467,-7.87623 12.95013,-13.56551 7.3923,-0.30566 14.59485,-2.15646 21.86048,-3.39625 3.98676,-0.70629 7.96923,-1.31667 11.94925,-1.73471 4.97154,-0.47954 9.98126,-0.96043 14.97385,-0.50116 8.72205,0.73645 17.31905,2.51127 26.04434,3.22594 4.09905,0.36173 8.2462,0.48759 12.34201,0.37298 1.25815,4.0771 3.44467,7.81452 5.95117,11.24414 4.69724,6.28162 11.43199,11.0387 18.99646,13.16932 8.59226,2.5022 17.87917,1.63746 26.25291,-1.2807 11.36456,-3.94535 21.26472,-11.3884 29.23423,-20.29897 1.86113,-2.06256 3.61013,-4.34481 5.70661,-6.23861 7.35867,-6.9666 16.50946,-11.57886 25.53481,-15.98109 6.13955,-3.05334 12.46303,-5.86735 18.04205,-9.90318 4.04741,-2.95123 7.66938,-6.93936 8.87955,-11.92105 1.3076,-5.17831 -0.10557,-10.62947 -2.49852,-15.27156 -2.91417,-5.70216 -7.06967,-10.63497 -11.27581,-15.41562 -2.26343,-3.10953 -3.20481,-6.92559 -4.18448,-10.58375 -1.73118,-6.76921 -2.73329,-13.89694 -6.29133,-20.03065 -2.43549,-4.2495 -6.31159,-7.57308 -10.71093,-9.66602 4.28808,-13.50796 5.1833,-27.9932 3.12917,-41.98927 -2.51692,-17.47899 -9.22785,-34.10355 -17.81079,-49.44509 -8.49497,-15.17354 -18.91798,-29.17898 -30.12386,-42.44529 -8.02857,-10.1601 -16.30593,-20.33742 -21.87536,-32.11702 -1.1122,-2.33645 -2.15249,-4.89318 -2.96174,-7.23966 -1.52959,-4.42283 -2.58898,-9.01015 -3.10938,-13.66211 -0.0775,-0.65923 -0.18086,-1.74084 -0.22501,-2.41044 -0.12864,-1.72667 -0.18498,-3.30362 -0.18023,-5.05869 0.21247,-16.49272 0.59312,-33.05793 -1.43748,-49.46417 -1.51419,-12.0888 -4.24159,-24.199512 -9.75048,-35.139647 -4.50187,-9.014133 -11.16965,-17.064973 -19.7006,-22.517878 -9.41565,-6.109419 -20.63142,-8.905818 -31.74972,-9.504838 -2.49294,-0.147943 -4.99099,-0.174911 -7.48773,-0.134801 z" /></g><g
     inkscape:groupmode="layer"
     id="layer1"
     inkscape:label="Tux"
     style="display:inline"><path
       fill="#000000"
       d="m 426.53559,400.63103 c -0.005,-0.005 -0.0109,-0.0109 -0.0109,-0.0156 -3.14991,-3.55527 -4.65039,-10.14679 -6.26401,-17.16909 -1.60948,-7.01711 -3.40995,-14.58438 -9.17104,-19.48909 -0.0109,-0.0109 -0.0265,-0.0208 -0.0363,-0.0317 -1.14184,-0.99652 -2.31482,-1.83681 -3.49298,-2.538 -1.18284,-0.70067 -2.38229,-1.27159 -3.5807,-1.72314 8.00843,-23.75022 4.86838,-47.40131 -3.21791,-68.76977 -9.91842,-26.23113 -27.23802,-49.08293 -40.46777,-64.71573 -14.80756,-18.67943 -29.28866,-36.40905 -29.00268,-62.59866 0.44065,-39.96951 4.39556,-114.090353 -65.94165,-114.188966 -2.85978,-0.0052 -5.84413,0.114184 -8.95304,0.363312 -78.59996,6.326819 -57.75104,89.369564 -58.91883,117.173314 -1.43768,20.33509 -5.55867,36.36234 -19.54619,56.2407 -16.42689,19.53581 -39.56467,51.15952 -50.52113,84.08078 -5.16941,15.53418 -7.62955,31.36888 -5.36144,46.35809 -0.71106,0.6384 -1.38578,1.30845 -2.03455,1.99355 -4.82167,5.15384 -8.38732,11.39191 -12.3578,15.59076 -3.71097,3.7063 -8.994565,5.11283 -14.807558,7.19357 -5.812992,2.08697 -12.191713,5.15903 -16.063581,12.59136 0,0 0,0.006 -0.0052,0.006 -0.0052,0.0104 -0.01038,0.0259 -0.02076,0.0358 -1.82175,3.39956 -2.413429,7.06901 -2.413429,10.79037 0,3.44108 0.508636,6.9294 1.022463,10.28692 1.069176,6.98597 2.153922,13.59254 0.716244,18.06699 -4.598492,12.57578 -5.190171,21.26932 -1.951504,27.58109 3.249047,6.32163 9.918418,9.10875 17.459737,10.68656 15.082638,3.14524 35.505958,2.36672 51.600678,10.89936 l 1.38578,-2.61066 -1.3702,2.61585 c 17.23137,9.01014 34.70148,12.2078 48.63709,9.02571 10.11046,-2.30392 18.31093,-8.32452 22.52535,-17.5843 10.89936,-0.0519 22.8627,-4.67116 42.02482,-5.72424 13.00138,-1.04894 29.24142,4.61873 47.92085,3.5807 0.48788,2.02416 1.19426,3.97567 2.15911,5.82856 0.0109,0.0151 0.0208,0.0358 0.0317,0.0519 7.23977,14.48058 20.6927,21.10324 35.03366,19.97178 14.3555,-1.13198 29.61979,-9.59663 41.96254,-24.27962 l -2.26292,-1.8996 2.27901,1.87884 c 11.76093,-14.26259 31.28116,-20.1742 44.23064,-27.98022 6.47215,-3.90301 11.71941,-8.79163 12.12943,-15.8923 0.4038,-7.09497 -3.76391,-15.04631 -13.34497,-25.68097 z"
       id="path1"
       style="fill:#141414;fill-opacity:1;stroke-width:0.519017" /><path
       fill="#D6A312"
       d="m 433.97311,425.97464 c -0.24913,4.37998 -3.42032,7.63474 -9.28003,11.16406 -11.70954,7.06382 -32.46504,13.20898 -45.71503,29.26218 -11.51232,13.69687 -25.54654,21.21742 -37.90382,22.19318 -12.35728,0.97575 -23.01841,-4.15214 -29.3089,-16.76945 l -0.0109,-0.026 -0.0151,-0.0317 c -3.90353,-7.42194 -2.27901,-19.12578 1.00637,-31.47787 3.28538,-12.34742 8.00844,-25.0322 8.64164,-35.33469 v -0.0317 c 0.66382,-13.20328 1.40653,-24.73636 3.62222,-33.6375 2.22139,-8.90115 5.71438,-14.92174 11.90158,-18.31093 0.29065,-0.1557 0.57559,-0.30622 0.86105,-0.44635 0.70119,11.43395 6.36367,23.10197 16.3698,25.62388 10.95178,2.88625 26.73509,-6.50848 33.39927,-14.17436 1.33336,-0.0524 2.6309,-0.11938 3.89263,-0.15052 5.84933,-0.14065 10.74885,0.19723 15.76255,4.57773 l 0.0151,0.0151 0.0156,0.0109 c 3.8511,3.26462 5.68323,9.43055 7.27143,16.33347 1.58871,6.90864 2.85459,14.42868 7.61969,19.79013 l 0.005,0.005 0.005,0.0109 c 9.15598,10.15716 12.09881,17.01857 11.84449,21.40427 z"
       id="path2"
       style="fill:#f8bf11;fill-opacity:1;stroke-width:0.519017" /><path
       fill="#D6A312"
       d="m 211.4445,458.35093 -0.005,0.0311 v 0.0363 c -1.05879,13.87852 -8.88557,21.43541 -20.90601,24.18101 -12.01006,2.7456 -28.30201,0.0109 -44.568,-8.49631 -0.005,0 -0.0104,-0.005 -0.0156,-0.005 -17.99952,-9.53435 -39.40898,-8.58455 -53.147359,-11.45471 -6.866597,-1.43249 -11.350905,-3.5916 -13.406213,-7.59841 -2.055308,-4.01201 -2.10202,-11.00317 2.268105,-22.92499 l 0.02076,-0.0524 0.01557,-0.0519 c 2.164301,-6.66937 0.560538,-13.96676 -0.487876,-20.81778 -1.048415,-6.84532 -1.562242,-13.07872 0.778525,-17.41822 l 0.02076,-0.0415 c 2.994729,-5.77147 7.385614,-7.83716 12.835294,-9.78866 5.454874,-1.9567 11.916634,-3.49247 17.018574,-8.6105 l 0.0311,-0.026 0.0259,-0.0259 c 4.71787,-4.97737 8.26275,-11.22115 12.4097,-15.64837 3.49818,-3.73692 7.00154,-6.21263 12.27995,-6.24896 0.0623,0.006 0.11937,0.006 0.18165,0 0.92385,0.006 1.9048,0.083 2.94283,0.24445 7.00673,1.0588 13.11556,5.9578 19.00122,13.94029 l 16.99262,30.96975 0.005,0.0156 0.0104,0.0104 c 4.52064,9.44092 14.07056,19.82646 22.16203,30.4196 8.09148,10.58847 14.35083,21.22313 13.53597,29.36132 z"
       id="path4"
       style="fill:#f8bf11;fill-opacity:1;stroke-width:0.519017" /><path
       d="m 296.18962,169.64244 c -1.36501,-2.67294 -4.15213,-5.21612 -8.89595,-7.16244 l -0.0104,-0.005 -0.0156,-0.005 c -9.86652,-4.2248 -14.14841,-4.52583 -19.65518,-8.10704 -8.96343,-5.76109 -16.3698,-7.78007 -22.52535,-7.75412 -3.22309,0.0104 -6.10364,0.5813 -8.68315,1.47401 -7.4998,2.57951 -12.47718,7.96172 -15.59647,10.91493 l -0.005,0.005 c 0,0.005 -0.005,0.005 -0.005,0.0104 -0.61244,0.5813 -1.40135,1.1107 -3.31133,2.51204 -1.92555,1.40654 -4.81129,3.52413 -8.96343,6.63823 -3.69021,2.76636 -4.88914,6.36834 -3.61235,10.58795 1.27159,4.21961 5.34068,9.08799 12.78339,13.29722 l 0.0104,0.0104 0.0156,0.005 c 4.61925,2.71446 7.77488,6.37353 11.39762,9.28522 1.81137,1.45325 3.71616,2.75079 6.01021,3.73173 2.29406,0.98095 4.97219,1.64529 8.32504,1.84251 7.8683,0.45674 13.66053,-1.90479 18.77285,-4.83205 5.1227,-2.92206 9.46116,-6.49809 14.43906,-8.11223 l 0.0104,-0.005 0.0109,-0.005 c 10.20336,-3.18677 17.4805,-9.60701 19.75846,-15.70546 1.14184,-3.05182 1.10551,-5.94794 -0.25432,-8.62088 z"
       id="path6"
       style="fill:#f8bf11;fill-opacity:1;stroke-width:0.519017"
       fill="#D6A312" /><path
       d="m 270.30105,184.70432 c -8.11782,4.23139 -17.59987,9.36307 -27.68957,9.36307 -10.0845,0 -18.05141,-4.66078 -23.78136,-9.20218 -2.86498,-2.2681 -5.19018,-4.52583 -6.94445,-6.16592 -3.0437,-2.40255 -2.67911,-5.77234 -1.42858,-5.67286 2.09612,0.26168 2.41305,3.02155 3.73301,4.25594 1.78542,1.67124 4.02239,3.83554 6.73165,5.98427 5.41854,4.29227 12.64326,8.47036 21.68973,8.47036 9.0309,0 19.57304,-5.30185 26.00795,-8.91152 3.64569,-2.04506 8.28468,-5.7108 12.07057,-8.48978 2.89649,-2.12614 2.79087,-4.68632 5.18243,-4.40758 2.39156,0.27874 0.62239,2.83375 -2.7268,5.75669 -3.34919,2.92295 -8.58879,6.80119 -12.84458,9.01951 z"
       id="path8"
       inkscape:connector-curvature="0"
       style="fill:#141414;fill-opacity:1;stroke-width:0.519017"
       sodipodi:nodetypes="sscccccssszzs" /><path
       fill="#ffffff"
       d="m 394.60566,357.93149 c -1.12627,-0.0415 -2.23697,-0.0358 -3.31652,-0.0104 -0.0986,0.005 -0.19723,0.005 -0.30103,0.005 2.78712,-8.80253 -3.3788,-15.29544 -19.81089,-22.72777 -17.03933,-7.49408 -30.61682,-6.75241 -32.91088,8.45479 -0.14532,0.7941 -0.26469,1.60896 -0.35293,2.429 -1.27678,0.44636 -2.55356,1.0069 -3.84072,1.70757 -7.99806,4.38051 -12.36818,12.32147 -14.79718,22.06913 -2.42381,9.73676 -3.12449,21.50288 -3.78883,34.73263 0,0.005 0,0.005 0,0.0104 -0.41002,6.64913 -3.15043,15.64837 -5.92198,25.17804 -27.91275,19.91417 -66.65219,28.54023 -99.5475,6.08755 -2.22658,-3.52412 -4.78533,-7.01711 -7.41675,-10.46338 -1.68162,-2.20012 -3.40994,-4.3857 -5.1227,-6.54429 3.37361,0.005 6.24378,-0.55068 8.56378,-1.59857 2.88574,-1.31312 4.90991,-3.40995 5.9168,-6.10936 2.0034,-5.39258 -0.0104,-13.00137 -6.43062,-21.69491 -6.42025,-8.68835 -17.29366,-18.49258 -33.269,-28.29163 0,0 0,0 0,-0.005 -11.74017,-7.30257 -18.30055,-16.25094 -21.37313,-25.96643 -3.07777,-9.72119 -2.64699,-20.23129 -0.27508,-30.60644 4.54659,-19.91469 16.22448,-39.28441 23.67756,-51.43979 2.00341,-1.47401 0.71625,2.74041 -7.54651,18.08256 -7.40118,14.02436 -21.24337,46.38975 -2.29405,71.65603 0.50863,-17.97928 4.80091,-36.31615 12.01005,-53.46967 10.49972,-23.79694 32.45934,-65.07437 34.20324,-97.96968 0.90309,0.65396 3.99124,2.74041 5.36663,3.52413 0.005,0.005 0.005,0.005 0.0104,0.005 4.02758,2.37191 7.05345,5.83894 10.97203,8.98937 3.92896,3.15563 8.83367,5.88047 16.24523,6.31125 0.71106,0.0415 1.40654,0.0623 2.08645,0.0623 7.63993,0 13.59825,-2.49129 18.56006,-5.33031 5.3931,-3.08296 9.70043,-6.4981 13.78561,-7.82678 0.005,-0.005 0.0104,-0.005 0.0156,-0.005 8.63126,-2.69889 15.48747,-7.47385 19.38996,-13.03771 6.7057,26.42835 22.29698,64.60207 32.31972,83.22959 5.33031,9.88209 15.92812,30.88152 20.50637,56.18361 2.9013,-0.0888 6.09845,0.33217 9.51877,1.20879 11.97373,-31.04242 -10.15197,-64.47231 -20.27281,-73.78348 -4.08466,-3.96529 -4.28189,-5.74033 -2.25253,-5.65729 10.97202,9.71081 25.38461,29.23105 30.6272,51.26852 2.39215,10.04765 2.90131,20.61536 0.33684,31.04241 1.25083,0.51902 2.52762,1.08475 3.81997,1.69771 19.21921,9.35736 26.32455,17.49555 22.90942,28.60252 z"
       id="path10"
       style="stroke-width:0.519017" /><path
       d="m 297.09271,139.19689 c 0.0415,5.23689 -0.86157,9.69524 -2.8494,14.24703 -1.13146,2.59508 -2.43367,4.77495 -3.99591,6.66418 -0.52992,-0.25432 -1.07956,-0.49826 -1.651,-0.73182 -1.97745,-0.846 -3.72654,-1.54148 -5.29345,-2.13316 -1.56795,-0.59168 -2.79123,-0.99597 -4.05296,-1.43194 0.91399,-1.10551 2.71446,-2.40824 3.38451,-4.04315 1.01727,-2.46533 1.51553,-4.87357 1.60895,-7.74373 0,-0.11418 0.0363,-0.2128 0.0363,-0.34774 0.0571,-2.75079 -0.30622,-5.10194 -1.11069,-7.51018 -0.84081,-2.52761 -1.91051,-4.34417 -3.45666,-5.85451 -1.55186,-1.51034 -3.09853,-2.19545 -4.95661,-2.25773 -0.0882,-0.005 -0.17128,-0.005 -0.25951,-0.005 -1.7439,0.005 -3.25943,0.60725 -4.82738,1.91517 -1.64528,1.3754 -2.86497,3.13487 -3.88173,5.58463 -1.01208,2.44976 -1.51034,4.87876 -1.60947,7.7645 -0.0151,0.11418 -0.0151,0.21279 -0.0151,0.32698 -0.0363,1.58819 0.0675,3.04144 0.31141,4.45316 -3.57084,-1.78023 -8.13928,-3.07831 -11.2949,-3.83089 -0.18166,-1.36501 -0.28546,-2.77155 -0.3166,-4.24556 v -0.39964 c -0.0571,-5.22131 0.79929,-9.70043 2.80788,-14.24702 2.0086,-4.55178 4.49469,-7.82159 7.99235,-10.48415 3.50336,-2.65737 6.94497,-3.87706 11.01873,-3.91858 h 0.19204 c 3.98605,0 7.39599,1.17298 10.89936,3.71097 3.55527,2.58471 6.11921,5.813 8.1849,10.32845 2.02417,4.40126 2.99992,8.70391 3.09905,13.80585 -5.2e-4,0.13495 -5.2e-4,0.24913 0.0358,0.38407 z"
       id="path12"
       inkscape:connector-curvature="0"
       style="fill:#ffffff;stroke-width:0.519017"
       sodipodi:nodetypes="ccccccccccccccccccccccccscccc" /><path
       d="m 236.8452,144.41302 c -0.52421,0.15051 -1.03284,0.31141 -1.53629,0.48268 -2.85459,0.98614 -5.12107,2.07444 -7.31132,3.5225 0.2128,-1.51553 0.24394,-3.05182 0.0778,-4.76977 -0.0156,-0.0934 -0.0156,-0.17127 -0.0156,-0.2647 -0.22837,-2.27848 -0.71105,-4.18847 -1.51553,-6.11921 -0.85638,-2.0086 -1.81656,-3.42551 -3.07777,-4.51545 -1.14184,-0.98613 -2.22139,-1.44287 -3.41513,-1.43249 -0.11938,0 -0.24394,0.005 -0.36851,0.0156 -1.33906,0.11419 -2.44976,0.76815 -3.50336,2.05012 -1.04842,1.27678 -1.73871,2.86498 -2.23697,4.97219 -0.49825,2.10202 -0.62801,4.1677 -0.4204,6.53961 0,0.0934 0.0208,0.17128 0.0208,0.2647 0.22837,2.29925 0.69029,4.20923 1.51034,6.13997 0.84081,1.98784 1.81656,3.40476 3.07777,4.49469 0.2128,0.18166 0.42041,0.34774 0.62801,0.49307 -1.30792,1.01208 -2.18669,1.72996 -3.26624,2.51886 -0.6903,0.50345 -1.51034,1.10551 -2.46534,1.81137 -2.08126,-1.9515 -3.70578,-4.40126 -5.12789,-7.63474 -1.68161,-3.81997 -2.57951,-7.64512 -2.8494,-12.16057 v -0.0363 c -0.24913,-4.51545 0.19204,-8.3977 1.43249,-12.41489 1.24564,-4.0172 2.90649,-6.92369 5.31992,-9.31117 2.40824,-2.39267 4.83724,-3.59679 7.7645,-3.74731 0.22837,-0.0104 0.45154,-0.0156 0.67472,-0.0156 2.65218,0.005 5.0189,0.88752 7.46866,2.84422 2.65737,2.12278 4.66596,4.83724 6.34758,8.66239 1.6868,3.82516 2.5847,7.65032 2.83383,12.16577 v 0.0363 c 0.11938,1.89441 0.10381,3.67983 -0.0467,5.40816 z"
       id="path14"
       inkscape:connector-curvature="0"
       style="fill:#ffffff;stroke-width:0.519017"
       sodipodi:nodetypes="cccccccccccccccccccccccccccccc" /><path
       sodipodi:nodetypes="aaaaaaa"
       inkscape:connector-curvature="0"
       id="path16"
       d="m 250.16142,155.2136 c 0.33572,1.07761 2.07244,0.899 3.07585,1.41584 0.88047,0.45351 1.58864,1.44749 2.57863,1.47607 0.94483,0.0273 2.41529,-0.3272 2.5382,-1.2644 0.16238,-1.23818 -1.64571,-2.02502 -2.8092,-2.47863 -1.49721,-0.58375 -3.41543,-0.87991 -4.8199,-0.099 -0.32185,0.17894 -0.67311,0.59857 -0.56358,0.95013 z"
       style="fill:#141414;fill-opacity:1;stroke:none;stroke-width:0.519017" /><path
       style="fill:#141414;fill-opacity:1;stroke:none;stroke-width:0.519017"
       d="m 239.90339,155.2136 c -0.33573,1.07761 -2.07245,0.899 -3.07585,1.41584 -0.88047,0.45351 -1.58864,1.44749 -2.57863,1.47607 -0.94483,0.0273 -2.41529,-0.3272 -2.53821,-1.2644 -0.16238,-1.23818 1.64572,-2.02502 2.80921,-2.47863 1.4972,-0.58375 3.41542,-0.87991 4.8199,-0.099 0.32184,0.17894 0.67311,0.59857 0.56358,0.95013 z"
       id="path18"
       inkscape:connector-curvature="0"
       sodipodi:nodetypes="aaaaaaa" /></g></svg>
