<?xml version="1.0" encoding="UTF-8" standalone="no"?>
<!-- Created with Inkscape (http://www.inkscape.org/) -->

<svg
   width="512"
   height="512"
   viewBox="0 0 512 512"
   version="1.1"
   id="svg1"
   sodipodi:docname="macos_logo.svg"
   inkscape:version="1.3.2 (091e20e, 2023-11-25)"
   xml:space="preserve"
   inkscape:export-filename="../macos_logo.png"
   inkscape:export-xdpi="78.75"
   inkscape:export-ydpi="78.75"
   xmlns:inkscape="http://www.inkscape.org/namespaces/inkscape"
   xmlns:sodipodi="http://sodipodi.sourceforge.net/DTD/sodipodi-0.dtd"
   xmlns="http://www.w3.org/2000/svg"
   xmlns:svg="http://www.w3.org/2000/svg"><sodipodi:namedview
     id="namedview1"
     pagecolor="#505050"
     bordercolor="#ffffff"
     borderopacity="1"
     inkscape:showpageshadow="0"
     inkscape:pageopacity="0"
     inkscape:pagecheckerboard="1"
     inkscape:deskcolor="#505050"
     inkscape:zoom="1.5546875"
     inkscape:cx="236.70352"
     inkscape:cy="285.26633"
     inkscape:window-width="1920"
     inkscape:window-height="1011"
     inkscape:window-x="0"
     inkscape:window-y="0"
     inkscape:window-maximized="1"
     inkscape:current-layer="layer1" /><defs
     id="defs1"><filter
       style="color-interpolation-filters:sRGB"
       id="filter3"
       x="-0.058823884"
       y="-0.058823884"
       width="1.1176478"
       height="1.1176478"><feGaussianBlur
         stdDeviation="10.213423"
         id="feGaussianBlur3" /></filter><linearGradient
       id="linearGradient29561"
       inkscape:swatch="solid"><stop
         style="stop-color:#f0db4f;stop-opacity:1;"
         offset="0"
         id="stop29559" /></linearGradient><style
       id="style2">
      .cls-1 {
        fill: #393939;
      }

      .cls-2 {
        fill: #654ff0;
      }
    </style><inkscape:path-effect
       effect="fillet_chamfer"
       id="path-effect2522"
       is_visible="false"
       lpeversion="1"
       satellites_param="F,0,0,1,0,23,0,1 @ F,0,0,1,0,23,0,1 @ F,0,0,1,0,23,0,1 @ F,0,0,1,0,23,0,1 @ F,0,0,1,0,23,0,1 @ F,0,0,1,0,23,0,1 @ F,0,0,1,0,23,0,1 @ F,0,0,1,0,23,0,1 @ F,0,0,1,0,23,0,1 @ F,0,0,1,0,23,0,1 @ F,0,0,1,0,23,0,1 @ F,0,0,1,0,23,0,1"
       unit="px"
       method="auto"
       mode="F"
       radius="23"
       chamfer_steps="1"
       flexible="false"
       use_knot_distance="true"
       apply_no_radius="true"
       apply_with_radius="true"
       only_selected="false"
       hide_knots="false"
       nodesatellites_param="F,0,0,1,0,23,0,1 @ F,0,0,1,0,23,0,1 @ F,0,0,1,0,23,0,1 @ F,0,0,1,0,23,0,1 @ F,0,0,1,0,23,0,1 @ F,0,0,1,0,23,0,1 @ F,0,0,1,0,23,0,1 @ F,0,0,1,0,23,0,1 @ F,0,0,1,0,23,0,1 @ F,0,0,1,0,23,0,1 @ F,0,0,1,0,23,0,1 @ F,0,0,1,0,23,0,1" /><inkscape:path-effect
       effect="fillet_chamfer"
       id="path-effect2128"
       is_visible="true"
       lpeversion="1"
       satellites_param="F,0,0,1,0,25,0,1 @ F,0,0,1,0,25,0,1 @ F,0,0,1,0,25,0,1 @ F,0,0,1,0,25,0,1 @ F,0,0,1,0,25,0,1 @ F,0,0,1,0,25,0,1"
       unit="px"
       method="auto"
       mode="F"
       radius="25"
       chamfer_steps="1"
       flexible="false"
       use_knot_distance="true"
       apply_no_radius="true"
       apply_with_radius="true"
       only_selected="false"
       hide_knots="false"
       nodesatellites_param="F,0,0,1,0,25,0,1 @ F,0,0,1,0,25,0,1 @ F,0,0,1,0,25,0,1 @ F,0,0,1,0,25,0,1 @ F,0,0,1,0,25,0,1 @ F,0,0,1,0,25,0,1" /><inkscape:path-effect
       effect="bspline"
       id="path-effect2088"
       is_visible="true"
       lpeversion="1"
       weight="2"
       steps="10"
       helper_size="2"
       apply_no_weight="true"
       apply_with_weight="true"
       only_selected="false" /><mask
       maskUnits="userSpaceOnUse"
       id="mask19989"><path
         id="path19991"
         d="M 236.08144,500.49998 165.0674,459.4999 a 20833883,20833883 0 0 0 -39.83717,-23 L 54.216096,395.49998 A 39.837067,39.837067 0 0 1 34.297524,361.00001 L 34.297612,279 a 20833883,20833883 0 0 0 -10e-7,-46 l -9.3e-5,-81.99999 A 39.837067,39.837067 0 0 1 54.216089,116.50003 L 125.23023,75.5001 a 20833883,20833883 0 0 0 39.83717,-23 l 71.01403,-41.000079 a 39.837067,39.837067 0 0 1 39.83714,0 L 346.93262,52.5001 a 20833883,20833883 0 0 0 39.83717,23 l 71.01412,40.99992 a 39.837067,39.837067 0 0 1 19.91858,34.49997 L 477.7024,233 a 20833883,20833883 0 0 0 0,46 l 9e-5,81.99999 a 39.837067,39.837067 0 0 1 -19.91857,34.49998 l -71.01413,40.99993 a 20833883,20833883 0 0 0 -39.83717,23 l -71.01403,41.00008 a 39.837067,39.837067 0 0 1 -39.83715,0 z"
         style="font-variation-settings:'wght' 800;opacity:1;fill:#ffffff;fill-opacity:1"
         inkscape:label="gmask" /></mask><filter
       style="color-interpolation-filters:sRGB"
       id="filter3-3"
       x="-0.058823884"
       y="-0.058823884"
       width="1.1176478"
       height="1.1176478"><feGaussianBlur
         stdDeviation="10.213423"
         id="feGaussianBlur3-6" /></filter></defs><g
     inkscape:groupmode="layer"
     id="layer7"
     inkscape:label="SafeArea"
     style="display:none"><rect
       style="fill:#800000;stroke-width:2"
       id="rect1"
       width="512"
       height="512"
       x="0"
       y="0"
       inkscape:label="bg" /><rect
       style="opacity:0.48434;fill:#000000;fill-opacity:1;stroke:none;stroke-width:2.41934;filter:url(#filter3)"
       id="rect2"
       width="416.70514"
       height="416.70514"
       x="47.647438"
       y="47.647438"
       ry="81.419876"
       inkscape:label="shadow" /><rect
       style="fill:#0bc90b;fill-opacity:1;stroke:none;stroke-width:2.41934"
       id="rect3"
       width="416.70514"
       height="416.70514"
       x="47.647438"
       y="47.647438"
       ry="81.419876"
       inkscape:label="bound" /></g><g
     inkscape:groupmode="layer"
     id="layer1"
     inkscape:label="MacOS"><path
       id="path6"
       style="fill:#f1f1f3;fill-opacity:1;stroke-width:5;stroke:#000000;stroke-opacity:1;stroke-dasharray:none;paint-order:stroke fill markers"
       d="M 256,52.695312 C 142.50826,52.695313 52.695312,142.50826 52.695312,256 52.695313,369.49174 142.50826,459.30469 256,459.30469 369.49174,459.30469 459.30469,369.49174 459.30469,256 459.30469,142.50826 369.49174,52.695312 256,52.695312 Z" /><path
       id="rect5"
       style="display:inline;fill:#1d1d1f;fill-opacity:1"
       d="m 190.94342,150.16141 c -6.81668,0 -11.96064,3.34754 -14.11328,9.08789 h -0.7168 v -8.13086 l -9.6875,0.11914 v 50.70703 h 10.04688 v -31.09375 c 0,-6.5775 4.66258,-11.83984 10.76172,-11.83984 5.97954,0 9.80664,3.58777 9.80664,9.32812 v 33.60547 h 9.80664 v -32.05078 c 0,-6.09914 4.18616,-10.88281 10.76367,-10.88281 6.5775,0 9.80664,3.34843 9.80664,10.4043 v 32.52929 h 10.04492 V 166.9036 c 0,-10.52399 -5.97886,-16.74219 -16.26367,-16.74219 -7.05586,0 -12.91633,3.58672 -15.42774,9.08789 h -0.83593 c -2.27223,-5.50117 -7.05593,-9.08789 -13.99219,-9.08789 z m 80.60352,0.11914 c -11.60032,0 -19.73228,5.62037 -20.8086,14.11133 h 9.6875 c 1.07632,-3.70733 5.0218,-5.74024 10.64258,-5.74024 6.81668,0 10.4043,3.10969 10.4043,8.73047 v 4.42578 l -13.75196,0.83594 c -12.07867,0.71754 -18.89648,5.98096 -18.89648,15.18945 -0.11959,9.08892 7.05683,14.94727 16.86328,14.94727 6.6971,0 12.19728,-2.86931 15.30664,-8.01172 h 0.83789 v 7.17578 h 9.68555 v -34.68164 c 0,-10.64358 -7.17449,-16.98242 -19.9707,-16.98242 z m 55.49023,0 c -14.82928,-0.11959 -23.91797,9.92554 -23.91797,26.07031 0,16.50354 9.08869,26.55078 23.91797,26.55078 12.55704,0 20.45013,-7.05593 21.76562,-17.10156 h -9.80664 c -1.31549,5.5012 -5.62067,8.49024 -11.95898,8.49024 -8.37136,0 -13.51367,-6.81751 -13.51367,-17.93946 0,-11.00236 5.14231,-17.57812 13.51367,-17.57812 6.69709,0 10.88266,3.8253 11.95898,8.72851 h 9.80664 c -1.31549,-9.80645 -8.9694,-17.2207 -21.76562,-17.2207 z m -45.68359,28.58203 v 4.30664 c 0,6.57751 -5.62007,11.48047 -13.1543,11.48047 -5.50118,0 -9.44922,-2.63238 -9.44922,-7.41601 0,-4.54446 3.11015,-7.05485 10.16602,-7.53321 z m -85.98633,48.79297 c -39.46499,0 -64.10156,27.74596 -64.10157,71.875 0,44.12904 24.63658,71.75391 64.10157,71.75391 39.46499,0 64.10156,-27.74447 64.10156,-71.75391 0,-44.12904 -24.63657,-71.875 -64.10156,-71.875 z m 128.91992,0.12109 c -28.82139,0 -49.0332,16.14447 -49.0332,38.98633 0,19.7325 12.07867,32.40867 39.94336,38.50781 l 15.42773,3.34766 c 19.25412,4.18568 27.02734,11.96024 27.02734,23.56055 0,13.63335 -13.75352,23.55859 -32.52929,23.55859 -19.97168,0 -33.84391,-9.08825 -35.87696,-24.03711 h -17.33984 c 1.67427,24.03777 21.88369,39.58399 52.25977,39.58399 30.97402,0 51.18554,-16.14344 51.18554,-41.85547 0,-19.7325 -11.48088,-31.21441 -40.42187,-37.55274 l -15.42774,-3.34765 c -19.01494,-4.18569 -26.42968,-11.72074 -26.42968,-22.60352 0,-14.1117 13.39565,-22.60156 30.73632,-22.60156 18.17783,0 30.13672,9.32714 31.69141,24.63476 h 17.33984 c -0.83714,-23.55939 -20.80764,-40.18164 -48.55273,-40.18164 z m -128.91992,15.9043 c 28.46263,0 46.28125,21.52702 46.28125,55.84961 0,34.203 -17.81862,55.72852 -46.28125,55.72852 -28.46262,0 -46.28125,-21.64512 -46.28125,-55.72852 0,-34.32259 17.81863,-55.84961 46.28125,-55.84961 z"
       sodipodi:nodetypes="sccccccsssccsssccssccssccsscccsccccsscssccsssccccsssccsssssssccssccssccssccssssss" /></g></svg>
