<?xml version="1.0" encoding="UTF-8" standalone="no"?>
<!-- Created with Inkscape (http://www.inkscape.org/) -->

<svg
   width="512"
   height="512"
   viewBox="0 0 512 512"
   version="1.1"
   id="svg1"
   sodipodi:docname="windows_logo.svg"
   inkscape:version="1.3.2 (091e20e, 2023-11-25)"
   xml:space="preserve"
   inkscape:export-filename="../windows_logo.png"
   inkscape:export-xdpi="78.75"
   inkscape:export-ydpi="78.75"
   xmlns:inkscape="http://www.inkscape.org/namespaces/inkscape"
   xmlns:sodipodi="http://sodipodi.sourceforge.net/DTD/sodipodi-0.dtd"
   xmlns="http://www.w3.org/2000/svg"
   xmlns:svg="http://www.w3.org/2000/svg"><sodipodi:namedview
     id="namedview1"
     pagecolor="#505050"
     bordercolor="#ffffff"
     borderopacity="1"
     inkscape:showpageshadow="0"
     inkscape:pageopacity="0"
     inkscape:pagecheckerboard="1"
     inkscape:deskcolor="#505050"
     inkscape:zoom="1.1117597"
     inkscape:cx="192.48764"
     inkscape:cy="219.92163"
     inkscape:window-width="1920"
     inkscape:window-height="1011"
     inkscape:window-x="0"
     inkscape:window-y="0"
     inkscape:window-maximized="1"
     inkscape:current-layer="layer1" /><defs
     id="defs1"><filter
       style="color-interpolation-filters:sRGB"
       id="filter3"
       x="-0.058823884"
       y="-0.058823884"
       width="1.1176478"
       height="1.1176478"><feGaussianBlur
         stdDeviation="10.213423"
         id="feGaussianBlur3" /></filter><linearGradient
       id="linearGradient29561"
       inkscape:swatch="solid"><stop
         style="stop-color:#f0db4f;stop-opacity:1;"
         offset="0"
         id="stop29559" /></linearGradient><style
       id="style2">
      .cls-1 {
        fill: #393939;
      }

      .cls-2 {
        fill: #654ff0;
      }
    </style><inkscape:path-effect
       effect="fillet_chamfer"
       id="path-effect2522"
       is_visible="false"
       lpeversion="1"
       satellites_param="F,0,0,1,0,23,0,1 @ F,0,0,1,0,23,0,1 @ F,0,0,1,0,23,0,1 @ F,0,0,1,0,23,0,1 @ F,0,0,1,0,23,0,1 @ F,0,0,1,0,23,0,1 @ F,0,0,1,0,23,0,1 @ F,0,0,1,0,23,0,1 @ F,0,0,1,0,23,0,1 @ F,0,0,1,0,23,0,1 @ F,0,0,1,0,23,0,1 @ F,0,0,1,0,23,0,1"
       unit="px"
       method="auto"
       mode="F"
       radius="23"
       chamfer_steps="1"
       flexible="false"
       use_knot_distance="true"
       apply_no_radius="true"
       apply_with_radius="true"
       only_selected="false"
       hide_knots="false"
       nodesatellites_param="F,0,0,1,0,23,0,1 @ F,0,0,1,0,23,0,1 @ F,0,0,1,0,23,0,1 @ F,0,0,1,0,23,0,1 @ F,0,0,1,0,23,0,1 @ F,0,0,1,0,23,0,1 @ F,0,0,1,0,23,0,1 @ F,0,0,1,0,23,0,1 @ F,0,0,1,0,23,0,1 @ F,0,0,1,0,23,0,1 @ F,0,0,1,0,23,0,1 @ F,0,0,1,0,23,0,1" /><inkscape:path-effect
       effect="fillet_chamfer"
       id="path-effect2128"
       is_visible="true"
       lpeversion="1"
       satellites_param="F,0,0,1,0,25,0,1 @ F,0,0,1,0,25,0,1 @ F,0,0,1,0,25,0,1 @ F,0,0,1,0,25,0,1 @ F,0,0,1,0,25,0,1 @ F,0,0,1,0,25,0,1"
       unit="px"
       method="auto"
       mode="F"
       radius="25"
       chamfer_steps="1"
       flexible="false"
       use_knot_distance="true"
       apply_no_radius="true"
       apply_with_radius="true"
       only_selected="false"
       hide_knots="false"
       nodesatellites_param="F,0,0,1,0,25,0,1 @ F,0,0,1,0,25,0,1 @ F,0,0,1,0,25,0,1 @ F,0,0,1,0,25,0,1 @ F,0,0,1,0,25,0,1 @ F,0,0,1,0,25,0,1" /><inkscape:path-effect
       effect="bspline"
       id="path-effect2088"
       is_visible="true"
       lpeversion="1"
       weight="2"
       steps="10"
       helper_size="2"
       apply_no_weight="true"
       apply_with_weight="true"
       only_selected="false" /><mask
       maskUnits="userSpaceOnUse"
       id="mask19989"><path
         id="path19991"
         d="M 236.08144,500.49998 165.0674,459.4999 a 20833883,20833883 0 0 0 -39.83717,-23 L 54.216096,395.49998 A 39.837067,39.837067 0 0 1 34.297524,361.00001 L 34.297612,279 a 20833883,20833883 0 0 0 -10e-7,-46 l -9.3e-5,-81.99999 A 39.837067,39.837067 0 0 1 54.216089,116.50003 L 125.23023,75.5001 a 20833883,20833883 0 0 0 39.83717,-23 l 71.01403,-41.000079 a 39.837067,39.837067 0 0 1 39.83714,0 L 346.93262,52.5001 a 20833883,20833883 0 0 0 39.83717,23 l 71.01412,40.99992 a 39.837067,39.837067 0 0 1 19.91858,34.49997 L 477.7024,233 a 20833883,20833883 0 0 0 0,46 l 9e-5,81.99999 a 39.837067,39.837067 0 0 1 -19.91857,34.49998 l -71.01413,40.99993 a 20833883,20833883 0 0 0 -39.83717,23 l -71.01403,41.00008 a 39.837067,39.837067 0 0 1 -39.83715,0 z"
         style="font-variation-settings:'wght' 800;opacity:1;fill:#ffffff;fill-opacity:1"
         inkscape:label="gmask" /></mask><filter
       style="color-interpolation-filters:sRGB"
       id="filter3-3"
       x="-0.058823884"
       y="-0.058823884"
       width="1.1176478"
       height="1.1176478"><feGaussianBlur
         stdDeviation="10.213423"
         id="feGaussianBlur3-6" /></filter><filter
       style="color-interpolation-filters:sRGB"
       id="filter3-5"
       x="-0.058823884"
       y="-0.058823884"
       width="1.1176478"
       height="1.1176478"><feGaussianBlur
         stdDeviation="10.213423"
         id="feGaussianBlur3-9" /></filter><filter
       style="color-interpolation-filters:sRGB"
       id="filter3-5-7"
       x="-0.058823884"
       y="-0.058823884"
       width="1.1176478"
       height="1.1176478"><feGaussianBlur
         stdDeviation="10.213423"
         id="feGaussianBlur3-9-3" /></filter><style
       id="style2-2">
      .cls-1 {
        fill: #393939;
      }

      .cls-2 {
        fill: #654ff0;
      }
    </style><inkscape:path-effect
       effect="fillet_chamfer"
       id="path-effect2522-9"
       is_visible="false"
       lpeversion="1"
       satellites_param="F,0,0,1,0,23,0,1 @ F,0,0,1,0,23,0,1 @ F,0,0,1,0,23,0,1 @ F,0,0,1,0,23,0,1 @ F,0,0,1,0,23,0,1 @ F,0,0,1,0,23,0,1 @ F,0,0,1,0,23,0,1 @ F,0,0,1,0,23,0,1 @ F,0,0,1,0,23,0,1 @ F,0,0,1,0,23,0,1 @ F,0,0,1,0,23,0,1 @ F,0,0,1,0,23,0,1"
       unit="px"
       method="auto"
       mode="F"
       radius="23"
       chamfer_steps="1"
       flexible="false"
       use_knot_distance="true"
       apply_no_radius="true"
       apply_with_radius="true"
       only_selected="false"
       hide_knots="false"
       nodesatellites_param="F,0,0,1,0,23,0,1 @ F,0,0,1,0,23,0,1 @ F,0,0,1,0,23,0,1 @ F,0,0,1,0,23,0,1 @ F,0,0,1,0,23,0,1 @ F,0,0,1,0,23,0,1 @ F,0,0,1,0,23,0,1 @ F,0,0,1,0,23,0,1 @ F,0,0,1,0,23,0,1 @ F,0,0,1,0,23,0,1 @ F,0,0,1,0,23,0,1 @ F,0,0,1,0,23,0,1" /><inkscape:path-effect
       effect="fillet_chamfer"
       id="path-effect2128-1"
       is_visible="true"
       lpeversion="1"
       satellites_param="F,0,0,1,0,25,0,1 @ F,0,0,1,0,25,0,1 @ F,0,0,1,0,25,0,1 @ F,0,0,1,0,25,0,1 @ F,0,0,1,0,25,0,1 @ F,0,0,1,0,25,0,1"
       unit="px"
       method="auto"
       mode="F"
       radius="25"
       chamfer_steps="1"
       flexible="false"
       use_knot_distance="true"
       apply_no_radius="true"
       apply_with_radius="true"
       only_selected="false"
       hide_knots="false"
       nodesatellites_param="F,0,0,1,0,25,0,1 @ F,0,0,1,0,25,0,1 @ F,0,0,1,0,25,0,1 @ F,0,0,1,0,25,0,1 @ F,0,0,1,0,25,0,1 @ F,0,0,1,0,25,0,1" /><inkscape:path-effect
       effect="bspline"
       id="path-effect2088-2"
       is_visible="true"
       lpeversion="1"
       weight="2"
       steps="10"
       helper_size="2"
       apply_no_weight="true"
       apply_with_weight="true"
       only_selected="false" /><mask
       maskUnits="userSpaceOnUse"
       id="mask19989-7"><path
         id="path19991-0"
         d="M 236.08144,500.49998 165.0674,459.4999 a 20833883,20833883 0 0 0 -39.83717,-23 L 54.216096,395.49998 A 39.837067,39.837067 0 0 1 34.297524,361.00001 L 34.297612,279 a 20833883,20833883 0 0 0 -10e-7,-46 l -9.3e-5,-81.99999 A 39.837067,39.837067 0 0 1 54.216089,116.50003 L 125.23023,75.5001 a 20833883,20833883 0 0 0 39.83717,-23 l 71.01403,-41.000079 a 39.837067,39.837067 0 0 1 39.83714,0 L 346.93262,52.5001 a 20833883,20833883 0 0 0 39.83717,23 l 71.01412,40.99992 a 39.837067,39.837067 0 0 1 19.91858,34.49997 L 477.7024,233 a 20833883,20833883 0 0 0 0,46 l 9e-5,81.99999 a 39.837067,39.837067 0 0 1 -19.91857,34.49998 l -71.01413,40.99993 a 20833883,20833883 0 0 0 -39.83717,23 l -71.01403,41.00008 a 39.837067,39.837067 0 0 1 -39.83715,0 z"
         style="font-variation-settings:'wght' 800;opacity:1;fill:#ffffff;fill-opacity:1"
         inkscape:label="gmask" /></mask><filter
       style="color-interpolation-filters:sRGB"
       id="filter3-9"
       x="-0.058823884"
       y="-0.058823884"
       width="1.1176478"
       height="1.1176478"><feGaussianBlur
         stdDeviation="10.213423"
         id="feGaussianBlur3-3" /></filter></defs><g
     inkscape:groupmode="layer"
     id="layer7"
     inkscape:label="SafeArea"
     style="display:none"><rect
       style="fill:#800000;stroke-width:2"
       id="rect1"
       width="512"
       height="512"
       x="0"
       y="0"
       inkscape:label="bg" /><rect
       style="opacity:0.48434;fill:#000000;fill-opacity:1;stroke:none;stroke-width:2.41934;filter:url(#filter3)"
       id="rect2"
       width="416.70514"
       height="416.70514"
       x="47.647438"
       y="47.647438"
       ry="81.419876"
       inkscape:label="shadow" /><rect
       style="fill:#0bc90b;fill-opacity:1;stroke:none;stroke-width:2.41934"
       id="rect3"
       width="416.70514"
       height="416.70514"
       x="47.647438"
       y="47.647438"
       ry="81.419876"
       inkscape:label="bound" /></g><g
     inkscape:groupmode="layer"
     id="layer1"
     inkscape:label="Windows"><path
       id="rect1-6"
       style="display:inline;fill:#0077d3;fill-opacity:1"
       inkscape:label="rect1"
       d="M 52.695321,52.695307 V 247.08203 H 247.08203 V 52.695307 Z m 212.222649,0 V 247.08203 H 459.30469 V 52.695307 Z M 52.695321,264.91797 V 459.30469 H 247.08203 V 264.91797 Z m 212.222649,0 V 459.30469 H 459.30469 V 264.91797 Z" /></g></svg>
