<?xml version="1.0" encoding="UTF-8" standalone="no"?>
<!-- Created with Inkscape (http://www.inkscape.org/) -->

<svg
   width="512"
   height="512"
   viewBox="0 0 512 512"
   version="1.1"
   id="svg1"
   sodipodi:docname="construct_logo.svg"
   inkscape:version="1.3.2 (091e20e, 2023-11-25)"
   xml:space="preserve"
   inkscape:export-filename="../construct_logo.png"
   inkscape:export-xdpi="78.75"
   inkscape:export-ydpi="78.75"
   xmlns:inkscape="http://www.inkscape.org/namespaces/inkscape"
   xmlns:sodipodi="http://sodipodi.sourceforge.net/DTD/sodipodi-0.dtd"
   xmlns="http://www.w3.org/2000/svg"
   xmlns:svg="http://www.w3.org/2000/svg"><sodipodi:namedview
     id="namedview1"
     pagecolor="#505050"
     bordercolor="#ffffff"
     borderopacity="1"
     inkscape:showpageshadow="0"
     inkscape:pageopacity="0"
     inkscape:pagecheckerboard="1"
     inkscape:deskcolor="#505050"
     inkscape:zoom="1.1117597"
     inkscape:cx="232.96401"
     inkscape:cy="259.49852"
     inkscape:window-width="1920"
     inkscape:window-height="1011"
     inkscape:window-x="0"
     inkscape:window-y="0"
     inkscape:window-maximized="1"
     inkscape:current-layer="layer1" /><defs
     id="defs1"><filter
       style="color-interpolation-filters:sRGB"
       id="filter3"
       x="-0.058823884"
       y="-0.058823884"
       width="1.1176478"
       height="1.1176478"><feGaussianBlur
         stdDeviation="10.213423"
         id="feGaussianBlur3" /></filter></defs><g
     inkscape:groupmode="layer"
     id="layer7"
     inkscape:label="SafeArea"
     style="display:none"><rect
       style="fill:#800000;stroke-width:2"
       id="rect1"
       width="512"
       height="512"
       x="0"
       y="0"
       inkscape:label="bg" /><rect
       style="opacity:0.48434;fill:#000000;fill-opacity:1;stroke:none;stroke-width:2.41934;filter:url(#filter3)"
       id="rect2"
       width="416.70514"
       height="416.70514"
       x="47.647438"
       y="47.647438"
       ry="81.419876"
       inkscape:label="shadow" /><rect
       style="fill:#0bc90b;fill-opacity:1;stroke:none;stroke-width:2.41934"
       id="rect3"
       width="416.70514"
       height="416.70514"
       x="47.647438"
       y="47.647438"
       ry="81.419876"
       inkscape:label="bound" /></g><g
     inkscape:groupmode="layer"
     id="layer1"
     inkscape:label="C"><g
       id="g1"
       transform="matrix(0.61251754,0,0,0.61251754,-260.11242,-187.83505)"
       style="stroke-width:4.02425"><g
         id="bg"
         style="stroke-width:4.02425">
	<g
   id="g3"
   style="stroke-width:4.02425">
		<g
   id="g2"
   style="stroke-width:4.02425">
			<path
   fill-rule="evenodd"
   clip-rule="evenodd"
   fill="#d2e1f0"
   d="m 850.39453,860.66992 c -50.35645,0 -94.3252,-27.35645 -117.85254,-68.02051 l -80.03027,46.2041 c -4.6543,2.68945 -6.13086,8.71875 -3.24805,13.25586 42.23731,66.48633 116.53223,110.60743 201.13086,110.60743 88.12598,0 165.07127,-47.875 206.24317,-119.03613 l -80.48634,-46.46973 c -4.31445,-2.49023 -9.80273,-1.20508 -12.57129,2.93555 -24.40527,36.49414 -65.98925,60.52343 -113.18554,60.52343 z M 1136.7207,559.2959 c 4.6143,-2.66309 6.1104,-8.61914 3.3125,-13.15137 -59.915,-97.03027 -167.22461,-161.69434 -289.63867,-161.69434 -125.89355,0 -235.81348,68.39258 -294.63379,170.0498 l 80.37695,46.40625 c 4.39844,2.53906 10.00195,1.14941 12.71094,-3.14551 42.16406,-66.85156 116.66992,-111.26367 201.5459,-111.26367 88.12598,0 165.07127,47.87598 206.24317,119.03613 z"
   id="path1"
   style="stroke-width:4.02425" />
			<path
   fill-rule="evenodd"
   clip-rule="evenodd"
   fill="#96aab9"
   d="m 850.39453,962.7168 c -84.59863,0 -158.89355,-44.12109 -201.13086,-110.60742 -2.87695,-4.53027 -1.40039,-10.57031 3.24805,-13.25586 l 80.03027,-46.2041 c -11.58105,-20.0166 -18.20996,-43.25488 -18.20996,-68.04199 0,-74.78516 60.55762,-136.0625 136.0625,-136.0625 47.19629,0 88.78027,24.0293 113.18555,60.52246 2.76465,4.13379 8.26367,5.42188 12.57129,2.93555 l 80.48633,-46.46973 C 1015.4658,534.37305 938.52051,486.49708 850.39454,486.49708 c -84.87598,0 -159.38184,44.41211 -201.5459,111.26367 -2.70605,4.29102 -8.31836,5.68164 -12.71094,3.14551 L 555.76074,554.5 c -28.95215,50.04004 -45.52344,108.13965 -45.52344,170.10742 0,186.96484 151.39453,340.15818 340.15723,340.15818 122.41406,0 229.72367,-64.664 289.63867,-161.69529 2.7959,-4.52734 1.2949,-10.49023 -3.3125,-13.15234 l -80.083,-46.2373 C 1015.4658,914.8418 938.52051,962.7168 850.39453,962.7168 Z"
   id="path2"
   style="stroke-width:4.02425" />
		</g>
		<path
   fill-rule="evenodd"
   clip-rule="evenodd"
   fill="#00e1c8"
   d="m 1137.1846,761.19141 v -73.16797 l -63.3653,36.58398 z m -110.6094,-52.94922 120.0586,-69.31641 c 12.5684,-7.25586 28.3457,1.85254 28.3457,16.36621 v 138.63086 c 0,14.5127 -15.7773,23.62207 -28.3457,16.36621 l -120.0586,-69.31641 c -12.5479,-7.24511 -12.5479,-25.48535 0,-32.73046 z"
   id="path3"
   style="stroke-width:4.02425" />
	</g>
</g><g
         id="logo"
         style="stroke-width:4.02425">
</g></g></g></svg>
