<?xml version="1.0" encoding="UTF-8" standalone="no"?>
<!-- Created with Inkscape (http://www.inkscape.org/) -->

<svg
   width="512"
   height="512"
   viewBox="0 0 512 512"
   version="1.1"
   id="svg1"
   sodipodi:docname="cryengine_logo.svg"
   inkscape:version="1.3.2 (091e20e, 2023-11-25)"
   xml:space="preserve"
   inkscape:export-filename="../cryengine_logo_line.png"
   inkscape:export-xdpi="78.75"
   inkscape:export-ydpi="78.75"
   xmlns:inkscape="http://www.inkscape.org/namespaces/inkscape"
   xmlns:sodipodi="http://sodipodi.sourceforge.net/DTD/sodipodi-0.dtd"
   xmlns="http://www.w3.org/2000/svg"
   xmlns:svg="http://www.w3.org/2000/svg"><sodipodi:namedview
     id="namedview1"
     pagecolor="#505050"
     bordercolor="#ffffff"
     borderopacity="1"
     inkscape:showpageshadow="0"
     inkscape:pageopacity="0"
     inkscape:pagecheckerboard="1"
     inkscape:deskcolor="#505050"
     inkscape:zoom="2.2235193"
     inkscape:cx="228.01691"
     inkscape:cy="264.67051"
     inkscape:window-width="1920"
     inkscape:window-height="1011"
     inkscape:window-x="0"
     inkscape:window-y="0"
     inkscape:window-maximized="1"
     inkscape:current-layer="layer1" /><defs
     id="defs1"><filter
       style="color-interpolation-filters:sRGB"
       id="filter3"
       x="-0.058823884"
       y="-0.058823884"
       width="1.1176478"
       height="1.1176478"><feGaussianBlur
         stdDeviation="10.213423"
         id="feGaussianBlur3" /></filter></defs><g
     inkscape:groupmode="layer"
     id="layer7"
     inkscape:label="SafeArea"
     style="display:none"><rect
       style="fill:#800000;stroke-width:2"
       id="rect1"
       width="512"
       height="512"
       x="0"
       y="0"
       inkscape:label="bg" /><rect
       style="opacity:0.48434;fill:#000000;fill-opacity:1;stroke:none;stroke-width:2.41934;filter:url(#filter3)"
       id="rect2"
       width="416.70514"
       height="416.70514"
       x="47.647438"
       y="47.647438"
       ry="81.419876"
       inkscape:label="shadow" /><rect
       style="fill:#0bc90b;fill-opacity:1;stroke:none;stroke-width:2.41934"
       id="rect3"
       width="416.70514"
       height="416.70514"
       x="47.647438"
       y="47.647438"
       ry="81.419876"
       inkscape:label="bound" /></g><g
     inkscape:groupmode="layer"
     id="layer1"
     inkscape:label="Eye"><path
       style="color:#000000;fill:#ffffff;fill-rule:evenodd;stroke-linecap:round;stroke-linejoin:round;-inkscape-stroke:none;paint-order:markers stroke fill"
       d="m 271.87109,143.54492 a 2.0002,2.0002 0 0 0 -0.59375,3.94922 c 60.75775,11.99815 105.78775,38.99636 135.6211,64.32422 14.91667,12.66393 26.03122,24.91273 33.38476,34.62109 3.67677,4.85419 6.41317,9.076 8.20313,12.35938 1.78995,3.28337 2.5332,5.8619 2.5332,6.32031 a 2.0002,2.0002 0 0 0 0.006,0.13672 c 0.0372,0.54074 -0.33684,1.57148 -0.68555,2.25 -1.32661,2.47221 -4.88145,7.05512 -10.41015,12.4668 -46.88933,38.57747 -95.99565,44.92297 -115.03321,45.89453 14.57536,-16.85832 24.04688,-39.41878 24.04688,-62.83789 0,-51.38976 -41.68792,-93.44141 -93.56836,-93.44141 -51.40107,0 -93.30469,41.8369 -93.30469,93.22461 0,26.12763 8.09914,46.80214 21.62696,62.52148 13.52781,15.71935 32.40131,26.47745 53.86718,33.18946 46.53175,14.54963 105.35815,10.24416 150.21094,-4.5 35.27412,-11.59853 64.65132,-29.96621 85.40234,-47.00977 10.37552,-8.52178 18.59237,-16.70883 24.33204,-23.60156 2.86983,-3.44637 5.12168,-6.56734 6.72265,-9.2832 1.60097,-2.71587 2.59481,-4.97389 2.78906,-7.07227 l -1.23632,1.12695 a 2.0002,2.0002 0 0 0 1.30273,-1.28711 l 0.004,-0.26367 a 2.0002,2.0002 0 0 0 0,-0.004 c 0.007,-0.73101 0.0155,-1.10925 0.0215,-1.25586 2.2e-4,-8e-5 0.0195,-0.006 0.0195,-0.006 2e-5,-1.9e-4 0.008,-0.13909 0.008,-0.15625 5.6e-4,-0.0343 0.002,-0.0334 0.002,-0.0352 a 2.0002,2.0002 0 0 0 -0.004,-0.0723 2.0002,2.0002 0 0 0 0.002,-0.004 c -1.8e-4,-0.006 -0.004,-0.0136 -0.004,-0.0195 a 2.0002,2.0002 0 0 0 -0.002,-0.0254 h -0.004 c -7.6e-4,-0.0226 -0.0128,-0.0516 -0.0137,-0.0742 l 0.0117,-0.002 c 0.002,0.0122 0.003,0.0207 0.004,0.0293 a 2.0002,2.0002 0 0 0 -0.002,-0.0293 h 0.002 l -0.004,-0.043 a 2.0002,2.0002 0 0 0 -0.002,-0.008 2.0002,2.0002 0 0 0 -0.01,-0.0976 c -0.005,-0.0353 -0.0121,-0.0771 -0.0312,-0.16211 -0.01,-0.0425 -0.0213,-0.0965 -0.0488,-0.18164 -0.005,-0.0164 -0.0237,-0.051 -0.0371,-0.082 -0.53388,-7.19257 -6.20651,-16.93209 -16.4707,-28.50977 -10.57344,-11.92648 -26.06695,-25.49523 -46.14649,-38.5293 -40.14018,-26.05587 -98.62076,-49.94999 -172.51172,-53.82031 z m -41.28711,0.55469 -4.03711,0.31445 a 2.0002,2.0002 0 0 0 -0.0117,0 c -66.75484,5.6025 -122.01907,30.25106 -160.632816,55.97852 -19.306876,12.86373 -34.453454,25.99275 -44.826172,37.20703 -5.186359,5.60714 -9.179154,10.73207 -11.9160157,15.15625 -2.5673151,4.15011 -4.0519269,7.60342 -4.2324219,10.64844 -5.667e-4,0.002 -0.0014,0.008 -0.00195,0.01 -0.040105,0.16472 -0.035895,0.1948 -0.039063,0.23242 -4.013e-4,0.005 -0.00532,0.0245 -0.00586,0.0293 -0.00461,0.0408 -0.0042,0.0487 -0.00586,0.0703 a 2.0002,2.0002 0 0 0 -0.00195,0.002 l -0.00195,0.0137 a 2.0002,2.0002 0 0 0 0.00195,0.002 c -6.95e-5,10e-4 6.56e-5,0.003 0,0.004 -6.87e-5,0.001 -0.00189,0.003 -0.00195,0.004 -8.127e-4,0.0129 -0.00323,0.0398 -0.00391,0.0508 l -0.00391,0.043 h 0.00195 c -8.334e-4,0.0157 -0.00279,0.0423 -0.00391,0.0977 l 0.00195,-0.002 c -1.085e-4,0.0188 -0.00586,0.0398 -0.00586,0.0586 a 2.0002,2.0002 0 0 0 1.0664062,1.10547 2.0002,2.0002 0 0 0 0.2910156,0.36133 l -0.3164062,0.14453 c -0.0082,-0.007 -0.5938382,-0.50402 -0.59375,-0.50391 1.776e-4,2.3e-4 -0.3087737,-0.54931 -0.3085938,-0.54883 1.8e-4,4.9e-4 -0.055984,-0.17463 -0.068359,-0.22656 -0.02475,-0.10386 -0.030207,-0.1513 -0.035156,-0.1875 -0.0099,-0.0724 -0.010793,-0.0924 -0.011719,-0.10547 -0.00185,-0.0261 -0.00117,-0.006 0,0.0293 0.00469,0.14299 0.01246,0.59013 0.017578,1.50391 a 2.0002,2.0002 0 0 0 2,1.98828 H 5.3769531 c 1.2913807,5.79719 5.9408529,13.46471 14.2773439,22.54687 8.836338,9.62673 21.737667,20.58017 38.974609,31.24024 34.473884,21.32014 86.288054,41.44551 157.417964,47.0957 a 2.0002,2.0002 0 0 0 0.67969,-3.92578 C 155.14725,347.96382 116.52271,325.76445 93.058594,306.36328 81.326537,296.6627 73.38085,287.65817 68.255859,280.41211 c -5.12137,-7.24094 -7.415096,-12.86803 -7.855468,-15.19336 v 0.0684 c -4.61e-4,-0.043 -0.0015,-0.0315 -0.002,-0.0723 -1.55e-4,-8.2e-4 -0.0018,-0.003 -0.002,-0.004 a 2.0002,2.0002 0 0 0 -0.455078,-0.37696 c 0.0043,-0.006 0.0285,-0.0484 0.05078,-0.082 -0.01528,0.0229 -0.03469,0.051 -0.05469,0.0781 a 2.0002,2.0002 0 0 0 -1.505859,-1.25 h 1.892578 v 0.0449 c 0,-0.004 0.01346,-0.0407 0.01367,-0.0449 h 0.01172 c -5.95e-4,-0.006 6.14e-4,-0.0249 0,-0.0312 0.03055,-0.39626 0.802414,-2.84094 2.664063,-5.96289 1.898949,-3.1845 4.783307,-7.28614 8.59375,-12.00391 7.620885,-9.43553 18.950639,-21.35549 33.644525,-33.72851 29.38779,-24.74604 72.22936,-51.30867 125.93946,-63.8125 a 2.0002,2.0002 0 0 0 -0.60743,-3.94141 z m 66.97852,5.69336 c 60.97243,7.36071 109.85247,28.34276 144.64258,50.92578 19.80376,12.85506 35.04508,26.22699 45.33008,37.82812 10.20388,11.50965 15.34289,21.49633 15.57421,26.5293 l 0.002,-0.20312 h 0.0371 c -0.0115,0.0956 -0.0263,0.20867 -0.0254,0.26172 9.5e-4,0.0238 0.0188,0.0643 0.0195,0.0879 h 0.002 l -0.002,-0.0469 c 0,0.002 -5.3e-4,0.003 0,-0.0293 2.6e-4,-0.0162 0.008,-0.15253 0.008,-0.15234 0,2e-5 0.0173,-0.0761 0.0273,-0.12109 h 0.31836 a 2.0002,2.0002 0 0 0 -0.29882,0.3457 l 1.55664,-0.0937 a 2.0002,2.0002 0 0 0 -0.17774,0.16211 l -1.3789,0.125 a 2.0002,2.0002 0 0 0 0.48242,0.69336 2.0002,2.0002 0 0 0 -0.15039,0.13672 c 0.0112,0.0222 0.0154,0.033 0.0254,0.0527 -0.0162,-0.0194 -0.0216,-0.0267 -0.0352,-0.043 a 2.0002,2.0002 0 0 0 -0.48047,0.4375 c -0.0896,0.96785 -0.80502,2.95366 -2.25195,5.40821 -1.44693,2.45454 -3.58252,5.43092 -6.34961,8.7539 -5.53418,6.64597 -13.59448,14.68912 -23.79883,23.07031 -20.4087,16.7624 -49.40231,34.88807 -84.11133,46.30079 -44.08138,14.49058 -102.37559,18.67628 -147.76953,4.48242 -20.94098,-6.54788 -39.11143,-16.97215 -52.02734,-31.98047 -12.91592,-15.00832 -20.66016,-34.60583 -20.66016,-59.91211 0,-49.21483 40.07246,-89.22461 89.30469,-89.22461 49.72128,0 89.56836,40.21253 89.56836,89.44141 0,23.93804 -10.3783,47.24651 -26.06641,63.66992 a 2.0002,2.0002 0 0 0 1.48242,3.38086 c 15.27619,-0.26477 70.27291,-4.32529 122.18555,-47.07422 a 2.0002,2.0002 0 0 0 0.12695,-0.11328 c 5.75956,-5.62852 9.47911,-10.29142 11.20508,-13.51563 a 2.0002,2.0002 0 0 0 0.0137,-0.0273 c 0.42331,-0.82035 1.22348,-2.34226 1.11524,-4.29297 -0.0187,-2.24964 -1.10512,-4.6817 -3.00781,-8.17187 -1.91915,-3.52036 -4.754,-7.87964 -8.52735,-12.86133 -7.54669,-9.96338 -18.84524,-22.40307 -33.98437,-35.25586 -25.91464,-22.00096 -63.18392,-45.12821 -111.92383,-58.97461 z m -90.96875,1.05664 c -43.40912,14.09765 -78.6151,36.63898 -103.91797,57.94531 -14.886859,12.53551 -26.376298,24.6139 -34.179686,34.27539 -3.901694,4.83075 -6.881612,9.05187 -8.917969,12.4668 -1.804703,3.02645 -2.817736,5.17726 -3.058594,7.25976 -2.07e-4,0.002 2.06e-4,0.004 0,0.006 -0.03051,0.2655 -0.195312,0.55839 -0.195312,0.82227 a 2.0002,2.0002 0 0 0 0.002,0.0762 l 0.002,0.0234 a 2.0002,2.0002 0 0 0 0.02539,0.25586 c 0.0029,0.017 0.01034,0.0408 0.01758,0.0723 1.96e-4,0.0371 0.01941,0.35222 0.0293,1.27539 l 0.0039,0.27344 a 2.0002,2.0002 0 0 0 1.859375,1.83985 l -1.798828,-1.49024 c 0.657842,3.48746 3.177536,9.21033 8.52539,16.77149 5.347855,7.56115 13.532215,16.81457 25.517578,26.72461 C 111.57663,326.868 144.41776,346.30068 194.17782,362.09001 135.0217,354.46075 90.958371,336.65983 60.732422,317.9668 43.779089,307.48212 31.145826,296.73253 22.599609,287.42187 14.056683,278.11481 9.6664676,270.06442 9.0058594,265.87305 c -2.544e-4,-0.002 -0.0017,-0.004 -0.00195,-0.006 l -0.070312,-0.54297 a 2.0002,2.0002 0 0 0 -0.039063,-0.0332 c -0.00455,-0.63332 -0.00888,-1.12815 -0.015625,-1.33399 -2.434e-4,-0.007 2.392e-4,-0.0144 0,-0.0215 0.026255,-1.71987 1.1664976,-5.00725 3.6835936,-9.07618 2.546276,-4.11609 6.395738,-9.07737 11.451172,-14.54296 C 34.124539,229.38522 49.054709,216.4229 68.119141,203.7207 102.25408,180.97738 149.71156,159.1649 206.59375,150.84961 Z m 48.7207,58.14258 c -29.72388,0 -53.85351,24.12506 -53.85351,53.8457 0,29.71289 24.12926,53.84375 53.85351,53.84375 29.71088,0 53.84766,-24.13059 53.84766,-53.84375 0,-29.72091 -24.13715,-53.8457 -53.84766,-53.8457 z m 0,4 c 27.54916,0 49.84766,22.28645 49.84766,49.8457 0,27.55089 -22.29887,49.84375 -49.84766,49.84375 -27.5632,0 -49.85351,-22.29259 -49.85351,-49.84375 0,-27.55952 22.28993,-49.8457 49.85351,-49.8457 z M 58.785156,261.70508 c -1e-5,0 0.07696,0.0386 0.09766,0.0488 -0.101169,-0.0199 -0.12109,-0.0242 -0.236328,-0.0469 0.03392,-4.8e-4 0.138684,-0.002 0.138672,-0.002 z m -0.851562,0.0117 c -0.119644,0.0289 -0.14994,0.0358 -0.244141,0.0586 0.04001,-0.0184 0.125018,-0.0566 0.125,-0.0566 -1.1e-5,0 0.09351,-0.002 0.119141,-0.002 z m -0.681641,0.25976 c -0.04783,0.0314 -0.05584,0.0363 -0.0957,0.0625 0.0053,-0.005 0.03712,-0.0352 0.03711,-0.0351 -8e-6,0 0.04854,-0.0227 0.05859,-0.0274 z m -0.648437,0.66797 c -0.01386,0.0248 -0.03151,0.0534 -0.04102,0.0723 0.0093,-0.0178 0.0059,-0.0145 0.01953,-0.0391 0.0042,-0.008 0.01403,-0.0212 0.02148,-0.0332 z M 8.8613281,264.0449 c -7.208e-4,0.0357 -5.659e-4,0.0382 0,0.0274 a 2.0002,2.0002 0 0 0 -0.00195,-0.004 2.0002,2.0002 0 0 0 -0.00586,-0.0117 2.0002,2.0002 0 0 0 0.00781,-0.0117 z m -0.064453,0.15625 0.013672,0.002 -0.017578,0.0234 a 2.0002,2.0002 0 0 0 0.025391,-0.0234 l 0.021484,0.002 c -6.311e-4,0.007 -0.00456,0.0258 -0.00586,0.0351 l -0.046875,-0.006 h -0.00195 l -0.087891,0.11329 -0.023437,0.01 a 2.0002,2.0002 0 0 0 0.066406,-0.084 2.0002,2.0002 0 0 0 0.044922,-0.0391 l -0.013672,-0.002 a 2.0002,2.0002 0 0 0 0.025391,-0.0312 z m 0.033203,0.0664 c -0.00127,0.007 -0.00216,0.0124 -0.00391,0.0215 l -0.0625,0.0274 a 2.0002,2.0002 0 0 0 0.066406,-0.0488 z m -0.00781,0.0371 c -0.00566,0.0275 7.26e-4,0.0136 -0.00977,0.0566 -0.010962,0.045 -0.024628,0.10093 -0.056641,0.1914 -0.031158,0.0881 -0.2035611,0.41031 -0.2128906,0.42774 A 2.0002,2.0002 0 0 0 8.3769531,264.83398 2.0002,2.0002 0 0 0 8.59375,264.48047 l -0.2519531,0.32226 a 2.0002,2.0002 0 0 0 -0.00781,-0.006 2.0002,2.0002 0 0 0 0.2265625,-0.29101 2.0002,2.0002 0 0 0 0.033203,-0.0254 2.0002,2.0002 0 0 0 0,-0.002 2.0002,2.0002 0 0 0 0.039063,-0.0625 2.0002,2.0002 0 0 0 0.027344,-0.0215 l -0.066406,0.084 a 2.0002,2.0002 0 0 0 0.2285156,-0.17383 z m 51.2871089,0.25195 c -0.01575,0.0315 -0.03869,0.0729 -0.07031,0.125 0.01575,-0.0247 0.02965,-0.0452 0.03711,-0.0586 0.0227,-0.0408 0.02138,-0.0424 0.0332,-0.0664 z m 446.972653,0.25781 c 3.3e-4,3e-5 0.0254,0.002 0.0254,0.002 -3e-5,-1.5e-4 0.008,0.0518 0.0137,0.0996 a 2.0002,2.0002 0 0 0 -0.0215,-0.0156 c -10e-4,-0.0264 -0.0163,-0.0595 -0.0176,-0.0859 z m -447.171872,0.0547 c -0.007,0.009 -0.0099,0.014 -0.01758,0.0234 -0.056,0.0693 -0.238632,0.2464 -0.238281,0.24609 6.4e-5,-5e-5 -0.05907,0.0384 -0.08398,0.0547 0.120478,-0.11606 0.307253,-0.29277 0.339844,-0.32422 z m -51.667968,0.0488 0.00586,0.004 -0.625,0.79883 H 7.6211 a 2.0002,2.0002 0 0 0 0.6210938,-0.80273 z m 0.050781,0.0508 0.140625,0.13867 c -0.1114428,0.12393 -0.2871733,0.31646 -0.2871094,0.31641 2.41e-5,-2e-5 -0.1112379,0.0719 -0.2207032,0.14258 a 2.0002,2.0002 0 0 0 0.3671876,-0.59766 z m 494.855469,0.30664 a 2.0002,2.0002 0 0 0 -0.004,0.004 c 4.1e-4,0.007 9.8e-4,0.0145 0.002,0.0293 7e-5,9.8e-4 0.002,0.013 0.002,0.0156 l 0.002,0.0215 a 2.0002,2.0002 0 0 0 0.002,0.002 z m -445.798829,0.0664 c 0.128146,0.0636 0.16178,0.0794 0.277344,0.13672 -0.02077,-0.004 -0.101607,-0.0196 -0.101562,-0.0195 1.17e-4,6e-5 -0.101176,-0.0669 -0.175782,-0.11718 z m 449.759759,0.0332 c 0.009,-0.0677 0.0385,-0.17894 -0.0195,0.11719 -0.008,0.0432 -0.0195,0.0975 -0.0488,0.19336 -0.0147,0.0479 -0.0333,0.10653 -0.0664,0.18554 -0.0331,0.079 -0.16819,0.3187 -0.16797,0.31836 2.2e-4,-3.4e-4 -0.52561,0.54508 -0.52539,0.54492 a 2.0002,2.0002 0 0 0 0.68945,-1.3125 c 0.0124,-0.004 0.13681,-0.0462 0.13867,-0.0469 z m -447.818352,0.002 c -0.03271,0.0215 -0.09773,0.0645 -0.09766,0.0645 4e-5,-2e-5 -0.06926,0.0175 -0.08594,0.0215 0.09024,-0.0415 0.110483,-0.0523 0.183594,-0.0859 z m 443.869142,0.041 c 0.008,0.0614 0.0156,0.12677 0.0156,0.12695 0,0 0.0165,0.031 0.0176,0.0332 -0.002,-0.009 -0.008,-0.0255 -0.01,-0.0332 -0.0163,-0.0724 -0.0199,-0.10224 -0.0234,-0.12695 z m -444.58008,0.17187 c -0.0619,0.0149 -0.177818,0.043 -0.177734,0.043 8.1e-5,0 -0.126069,-0.0242 -0.191407,-0.0371 0.168337,-0.002 0.224509,-0.004 0.369141,-0.006 z m -52.5058591,0.10743 a 2.0002,2.0002 0 0 0 0.3222657,0.0137 2.0002,2.0002 0 0 0 0.109375,0.13281 c -0.00308,-9e-5 -0.033205,0 -0.033203,0 3.08e-5,1e-5 -0.2310617,-0.0848 -0.3984375,-0.14648 z m 1.015625,0.041 a 2.0002,2.0002 0 0 0 0.4160157,0.0176 c -0.1695303,0.0521 -0.3515885,0.10742 -0.3515625,0.10742 1.27e-5,0 -0.1159984,-0.003 -0.1972657,-0.006 a 2.0002,2.0002 0 0 0 0.1328125,-0.11914 z m 496.8378841,0.72656 a 2.0002,2.0002 0 0 0 0.28125,0.4043 c -0.0472,-0.032 -0.40635,-0.27743 -0.40625,-0.27734 3e-5,2e-5 -0.0415,-0.0486 -0.0547,-0.0645 0.007,-0.002 0.156,-0.0544 0.17968,-0.0625 z m 2.11914,0.38282 c -0.16752,0.0809 -0.34967,0.16798 -0.3496,0.16796 10e-5,-3e-5 -0.7755,0.0703 -0.7754,0.0703 8e-5,10e-6 -0.28371,-0.082 -0.48437,-0.14063 a 2.0002,2.0002 0 0 0 1.60937,-0.0976 z"
       id="path3"
       inkscape:label="l" /><path
       style="color:#000000;fill:#000000;fill-rule:evenodd;stroke-linecap:round;stroke-linejoin:round;-inkscape-stroke:none;paint-order:markers stroke fill"
       d="m 6.8633545,263.94777 -0.0015,0.0149 0.0029,-0.0193 c -8.8e-5,10e-4 -1.91e-4,0.003 -2.779e-4,0.004 z M 271.66482,145.53154 c 147.13137,7.66749 232.72133,95.15035 233.4768,119.63036 l -0.004,-0.0433 c -0.0117,-0.0802 -0.0312,-0.008 -0.046,1.49118 l -0.003,0.26325 h -0.0586 c -1.13543,12.26492 -47.89565,62.23879 -117.87885,85.25006 -44.46713,14.61739 -103.02653,18.86354 -148.98942,4.49178 -42.40689,-13.2599 -74.09095,-42.36835 -74.09095,-93.80231 0,-50.30132 40.98707,-91.22466 91.30377,-91.22466 50.80091,0 91.56822,41.13285 91.56822,91.44222 0,24.51373 -10.58373,48.26339 -26.61904,65.05028 15.00389,-0.26005 69.52536,-4.27071 120.9504,-46.61811 5.66692,-5.538 9.31278,-10.17717 10.83939,-13.02895 0.38971,-0.75525 0.99405,-2.04671 0.90688,-3.31401 0,-10.89727 -59.09033,-95.44336 -181.35636,-119.58787 z m -16.34956,65.46123 c -28.64376,0 -51.85429,23.20467 -51.85429,51.84478 0,28.63205 23.21053,51.84478 51.85429,51.84478 28.62986,0 51.84625,-23.21273 51.84625,-51.84478 0,-28.64011 -23.21639,-51.84478 -51.84625,-51.84478 z m 249.82541,54.17426 c 10e-4,0.0177 10e-4,0.0151 10e-4,0.008 z m -498.2802606,-1.16432 -0.0015,0.0107 0.0044,-0.0454 c -6.879e-4,0.0132 -0.00129,0.0252 -0.0015,0.0356 z M 226.70287,146.40758 230.73855,146.0934 C 122.5578,171.27813 58.325049,253.01419 58.325049,263.62577 l 8.79e-4,0.0232 c 0.0073,0.0434 0.0526,-0.42076 0.07486,1.65859 l 0.0029,0.27338 h 0.0271 C 60.622588,277.20046 92.586947,333.198 216.20598,366.4685 74.54042,355.21533 10.195796,286.34857 7.0281315,266.17713 l -0.077351,-0.59625 h -0.052011 c -0.010304,-1.8398 -0.02681,-1.76997 -0.034871,-1.63757 l -0.0059,0.0765 c 0,-19.55839 87.1261545,-106.47368 219.8446115,-117.61228 z"
       id="path4"
       inkscape:label="o" /></g></svg>
