<?xml version="1.0" encoding="UTF-8" standalone="no"?>
<!-- Created with Inkscape (http://www.inkscape.org/) -->

<svg
   width="512"
   height="512"
   viewBox="0 0 512 512"
   version="1.1"
   id="svg1"
   sodipodi:docname="game_maker_logo.svg"
   inkscape:version="1.3.2 (091e20e, 2023-11-25)"
   xml:space="preserve"
   xmlns:inkscape="http://www.inkscape.org/namespaces/inkscape"
   xmlns:sodipodi="http://sodipodi.sourceforge.net/DTD/sodipodi-0.dtd"
   xmlns="http://www.w3.org/2000/svg"
   xmlns:svg="http://www.w3.org/2000/svg"><sodipodi:namedview
     id="namedview1"
     pagecolor="#505050"
     bordercolor="#ffffff"
     borderopacity="1"
     inkscape:showpageshadow="0"
     inkscape:pageopacity="0"
     inkscape:pagecheckerboard="1"
     inkscape:deskcolor="#505050"
     inkscape:zoom="1.1117597"
     inkscape:cx="214.97451"
     inkscape:cy="255.00115"
     inkscape:window-width="1920"
     inkscape:window-height="1011"
     inkscape:window-x="0"
     inkscape:window-y="0"
     inkscape:window-maximized="1"
     inkscape:current-layer="layer2"><inkscape:page
       x="0"
       y="0"
       width="512"
       height="512"
       id="page2"
       margin="0"
       bleed="0"
       inkscape:export-filename="../game_maker_logo_line.png"
       inkscape:export-xdpi="78.75"
       inkscape:export-ydpi="78.75" /></sodipodi:namedview><defs
     id="defs1"><filter
       style="color-interpolation-filters:sRGB"
       id="filter3"
       x="-0.058823884"
       y="-0.058823884"
       width="1.1176478"
       height="1.1176478"><feGaussianBlur
         stdDeviation="10.213423"
         id="feGaussianBlur3" /></filter></defs><g
     inkscape:groupmode="layer"
     id="layer7"
     inkscape:label="SafeArea"
     style="display:none"><rect
       style="fill:#800000;stroke-width:2"
       id="rect1"
       width="512"
       height="512"
       x="0"
       y="0"
       inkscape:label="bg" /><rect
       style="opacity:0.48434;fill:#000000;fill-opacity:1;stroke:none;stroke-width:2.41934;filter:url(#filter3)"
       id="rect2"
       width="416.70514"
       height="416.70514"
       x="47.647438"
       y="47.647438"
       ry="81.419876"
       inkscape:label="shadow" /><rect
       style="fill:#0bc90b;fill-opacity:1;stroke:none;stroke-width:2.41934"
       id="rect3"
       width="416.70514"
       height="416.70514"
       x="47.647438"
       y="47.647438"
       ry="81.419876"
       inkscape:label="bound" /></g><g
     inkscape:groupmode="layer"
     id="layer2"
     inkscape:label="Line"
     style="display:inline"><path
       id="path3-1"
       style="fill:#ffffff;fill-opacity:1;fill-rule:nonzero;stroke:none;stroke-width:0.133333"
       d="m 42.34375,256.18945 c 71.27604,71.34701 142.55208,142.69401 213.82813,214.04102 31.14192,-30.77669 62.28385,-61.55339 93.42578,-92.33008 -6.4e-4,-39.16732 -0.001,-78.33463 -0.002,-117.50195 41.40756,0 82.81511,0 124.22266,0 C 401.27734,187.71224 328.73633,115.02604 256.19531,42.339844 184.91146,113.62305 113.6276,184.90625 42.34375,256.18945 Z m 215.05664,-82.13086 c 26.17445,26.11332 52.34916,52.22637 78.52344,78.33985 -27.91081,0 -55.82162,0 -83.73242,0 0,27.92122 0,55.84245 0,83.76367 -26.65051,-26.58908 -53.30012,-53.17905 -79.95118,-79.76758 27.91537,-27.91536 55.83073,-55.83073 83.7461,-83.74609 0.47135,0.47005 0.94271,0.9401 1.41406,1.41015 z" /></g><g
     inkscape:groupmode="layer"
     id="layer1"
     inkscape:label="GameMaker"><path
       id="path3"
       d="M 47.855532,255.83721 256.04602,47.64744 464.02968,256.04573 H 345.45339 l -89.61589,-89.40257 -89.40257,89.40257 89.61109,89.40523 V 256.04573 H 345.451 l 0.002,119.82957 -89.40737,88.36261 -208.190492,-208.4007"
       style="fill:#231f20;fill-opacity:1;fill-rule:nonzero;stroke:none;stroke-width:0.133333" /></g></svg>
