<?xml version="1.0" encoding="UTF-8" standalone="no"?>
<!-- Created with Inkscape (http://www.inkscape.org/) -->

<svg
   width="512"
   height="512"
   viewBox="0 0 512 512"
   version="1.1"
   id="svg1"
   sodipodi:docname="unity_logo.svg"
   inkscape:version="1.3.2 (091e20e, 2023-11-25)"
   xml:space="preserve"
   inkscape:export-filename="../unity_logo.png"
   inkscape:export-xdpi="78.75"
   inkscape:export-ydpi="78.75"
   xmlns:inkscape="http://www.inkscape.org/namespaces/inkscape"
   xmlns:sodipodi="http://sodipodi.sourceforge.net/DTD/sodipodi-0.dtd"
   xmlns="http://www.w3.org/2000/svg"
   xmlns:svg="http://www.w3.org/2000/svg"><sodipodi:namedview
     id="namedview1"
     pagecolor="#505050"
     bordercolor="#ffffff"
     borderopacity="1"
     inkscape:showpageshadow="0"
     inkscape:pageopacity="0"
     inkscape:pagecheckerboard="1"
     inkscape:deskcolor="#505050"
     inkscape:zoom="1.1117597"
     inkscape:cx="249.15456"
     inkscape:cy="227.11742"
     inkscape:window-width="1920"
     inkscape:window-height="1011"
     inkscape:window-x="0"
     inkscape:window-y="0"
     inkscape:window-maximized="1"
     inkscape:current-layer="layer1" /><defs
     id="defs1"><filter
       style="color-interpolation-filters:sRGB"
       id="filter3"
       x="-0.058823884"
       y="-0.058823884"
       width="1.1176478"
       height="1.1176478"><feGaussianBlur
         stdDeviation="10.213423"
         id="feGaussianBlur3" /></filter></defs><g
     inkscape:groupmode="layer"
     id="layer7"
     inkscape:label="SafeArea"
     style="display:none"><rect
       style="fill:#800000;stroke-width:2"
       id="rect1"
       width="512"
       height="512"
       x="0"
       y="0"
       inkscape:label="bg" /><rect
       style="opacity:0.48434;fill:#000000;fill-opacity:1;stroke:none;stroke-width:2.41934;filter:url(#filter3)"
       id="rect2"
       width="416.70514"
       height="416.70514"
       x="47.647438"
       y="47.647438"
       ry="81.419876"
       inkscape:label="shadow" /><rect
       style="fill:#0bc90b;fill-opacity:1;stroke:none;stroke-width:2.41934"
       id="rect3"
       width="416.70514"
       height="416.70514"
       x="47.647438"
       y="47.647438"
       ry="81.419876"
       inkscape:label="bound" /></g><g
     inkscape:groupmode="layer"
     id="layer1"
     inkscape:label="Cube"><g
       id="g1"
       transform="matrix(0.63976499,0,0,0.63976499,577.50097,68.690189)"
       style="stroke-width:1.56307"><path
         class="st0"
         d="M -176.85931,439.90552 V 96.610504 l -297.318,-171.647502 V 56.763765 l 116.47509,67.432955 c 4.5977,3.06513 4.5977,9.1954 0,10.72796 l -137.93102,79.69349 c -4.59771,3.06513 -9.1954,1.53256 -12.26054,0 l -137.93103,-79.69349 c -4.59771,-1.53256 -4.59771,-9.1954 0,-10.72796 L -529.34972,56.763765 V -75.036998 L -828.20029,96.610504 v 343.295016 -1.53257 1.53257 l 113.40996,-65.90038 V 239.13923 c 0,-4.59769 6.13027,-7.66282 9.1954,-6.13026 l 137.93103,79.69349 c 4.5977,3.06513 6.13027,6.13027 6.13027,10.72796 v 159.38697 c 0,4.5977 -6.13027,7.66284 -9.1954,6.13028 l -116.47509,-67.43296 -113.40996,65.90038 297.318,173.18008 297.318,-171.6475 -113.40996,-65.90039 -116.4751,67.43295 c -4.59769,3.06513 -9.1954,0 -9.1954,-6.13027 V 324.96299 c 0,-4.5977 3.06513,-9.1954 6.13027,-10.72797 l 137.93103,-79.69348 c 4.5977,-3.06513 9.1954,0 9.1954,6.13027 V 375.5377 Z"
         id="path6"
         style="stroke-width:11.9777" /><path
         d="m -503.29608,660.59517 297.318,-171.6475 -113.40996,-65.90039 -116.4751,67.43295 c -4.59769,3.06513 -9.1954,0 -9.1954,-6.13027 V 324.96299 c 0,-4.5977 3.06513,-9.1954 6.13027,-10.72797 l 137.93103,-79.69348 c 4.5977,-3.06513 9.1954,0 9.1954,6.13027 V 375.5377 l 113.40996,65.90038 V 96.610504 l -324.9042,188.505746 z"
         id="path8"
         style="stroke-width:11.9777" /><path
         d="M -474.17731,-75.036998 V 56.763765 l 116.47509,67.432955 c 4.5977,3.06513 4.5977,9.1954 0,10.72796 l -137.93102,79.69349 c -4.59771,3.06513 -9.1954,1.53256 -12.26054,0 l -137.93103,-79.69349 c -4.59771,-1.53256 -4.59771,-9.1954 0,-10.72796 L -529.34972,56.763765 V -75.036998 L -828.20029,96.610504 -503.29608,285.11625 -178.39188,96.610504 Z"
         fill="#808080"
         id="path10"
         style="stroke-width:11.9777" /><path
         class="st0"
         d="m -569.19647,490.48023 -116.47509,-67.43295 -113.40996,65.90039 297.31801,171.6475 V 285.11625 L -828.20029,96.610504 v 343.295016 -1.53257 1.53257 l 113.40996,-65.90038 V 239.13923 c 0,-4.59769 6.13027,-7.66282 9.1954,-6.13026 l 137.93103,79.69349 c 4.5977,3.06513 6.13027,6.13027 6.13027,10.72796 v 159.38697 c 1.53257,6.13028 -3.06513,10.72797 -7.66284,7.66284 z"
         id="path12"
         style="stroke-width:11.9777" /></g></g><style
     id="style2">.st0{fill:#4c4c4c}</style></svg>
