<?xml version="1.0" encoding="UTF-8" standalone="no"?>
<!-- Created with Inkscape (http://www.inkscape.org/) -->

<svg
   width="512"
   height="512"
   viewBox="0 0 512 512"
   version="1.1"
   id="svg1"
   sodipodi:docname="unreal_logo.svg"
   inkscape:version="1.3.2 (091e20e, 2023-11-25)"
   xml:space="preserve"
   inkscape:export-filename="../unreal_logo_orange.png"
   inkscape:export-xdpi="78.75"
   inkscape:export-ydpi="78.75"
   xmlns:inkscape="http://www.inkscape.org/namespaces/inkscape"
   xmlns:sodipodi="http://sodipodi.sourceforge.net/DTD/sodipodi-0.dtd"
   xmlns="http://www.w3.org/2000/svg"
   xmlns:svg="http://www.w3.org/2000/svg"><sodipodi:namedview
     id="namedview1"
     pagecolor="#505050"
     bordercolor="#ffffff"
     borderopacity="1"
     inkscape:showpageshadow="0"
     inkscape:pageopacity="0"
     inkscape:pagecheckerboard="1"
     inkscape:deskcolor="#505050"
     inkscape:zoom="1.1117597"
     inkscape:cx="226.66769"
     inkscape:cy="316.16544"
     inkscape:window-width="1920"
     inkscape:window-height="1011"
     inkscape:window-x="0"
     inkscape:window-y="0"
     inkscape:window-maximized="1"
     inkscape:current-layer="layer1" /><defs
     id="defs1"><filter
   style="color-interpolation-filters:sRGB"
   id="filter3"
   x="-0.058823884"
   y="-0.058823884"
   width="1.1176478"
   height="1.1176478"><feGaussianBlur
     stdDeviation="10.213423"
     id="feGaussianBlur3" /></filter>
	
	
	
	
	
	
	
	
	
	
	
	
	
	
<filter
   style="color-interpolation-filters:sRGB;"
   inkscape:label="Invert"
   id="filter5"
   x="0"
   y="0"
   width="1"
   height="1"><feColorMatrix
     type="hueRotate"
     values="180"
     result="color1"
     id="feColorMatrix4" /><feColorMatrix
     values="1 0 0 0 0 0 1 0 0 0 0 0 1 0 0 -0.21 -0.72 -0.07 2 0 "
     result="color2"
     id="feColorMatrix5" /></filter></defs><g
     inkscape:groupmode="layer"
     id="layer7"
     inkscape:label="SafeArea"
     style="display:none"><rect
       style="fill:#800000;stroke-width:2"
       id="rect1"
       width="416.70514"
       height="416.70514"
       x="47.647438"
       y="47.647438"
       inkscape:label="bg" /><rect
       style="opacity:0.48434;fill:#000000;fill-opacity:1;stroke:none;stroke-width:2.41934;filter:url(#filter3)"
       id="rect2"
       width="416.70514"
       height="416.70514"
       x="47.647438"
       y="47.647438"
       ry="81.419876"
       inkscape:label="shadow" /><rect
       style="fill:#0bc90b;fill-opacity:1;stroke:none;stroke-width:2.41934"
       id="rect3"
       width="416.70514"
       height="416.70514"
       x="47.647438"
       y="47.647438"
       ry="81.419876"
       inkscape:label="bound" /></g><g
     inkscape:groupmode="layer"
     id="layer1"
     inkscape:label="Unreal"><circle
       style="display:inline;fill:#000000;stroke-width:5"
       id="path2"
       cx="256"
       cy="256"
       r="208.35257"
       inkscape:label="black" /><circle
       style="display:none;fill:#26bbff;fill-opacity:1;stroke-width:5"
       id="circle2"
       cx="256"
       cy="256"
       r="208.35257"
       inkscape:label="blue" /><circle
       style="display:none;fill:#ff952e;fill-opacity:1;stroke-width:5"
       id="circle3"
       cx="256"
       cy="256"
       r="208.35257"
       inkscape:label="orange" /><path
       id="path1"
       class="st0"
       d="M 255.98089,53.282614 C 144.02381,53.291953 53.273294,144.05296 53.282623,256.01002 c 0,111.9664 90.770347,202.7167 202.727417,202.70737 111.95706,-0.01 202.71669,-90.77034 202.70736,-202.7274 0,-111.95707 -90.75962,-202.707376 -202.70736,-202.707376 z m -0.0182,8.088834 c 107.47878,-0.0093 194.61832,87.121522 194.62765,194.600312 v 0.01 c 0,107.47878 -87.12153,194.60942 -194.60032,194.60942 C 148.50188,450.60895 61.362346,363.47789 61.362346,255.99909 61.353016,148.52031 148.47455,61.380777 255.96266,61.371448 Z m -18.3607,71.952172 c -17.17607,2.65897 -39.79234,9.44961 -62.93946,29.06076 -27.43882,23.70691 -43.06554,58.29387 -42.71101,94.55862 -0.01,-0.01 12.42792,-38.81197 27.96196,-42.3666 1.43678,-0.38252 2.92817,-0.56074 4.41159,-0.50476 8.2755,0.28923 14.75036,7.23159 14.46114,15.50709 v 91.05814 c 0,9.27378 -5.95196,11.28924 -11.44718,11.18662 -3.73191,-0.26124 -7.41652,-0.95252 -10.98981,-2.06276 23.02584,31.16138 59.29077,49.76533 98.03725,50.2878 l 33.5671,-33.76391 19.89136,22.37139 c 49.55966,-23.41769 65.11338,-66.66097 68.61203,-83.51051 -18.12771,18.65018 -38.17711,37.4216 -51.7146,24.41593 0,0 -0.73799,-69.5057 -0.73799,-98.0081 0,-38.28932 36.38609,-66.88639 36.38609,-66.88639 -19.99367,3.55463 -43.99913,10.64659 -69.43204,35.63168 -2.30445,2.28579 -4.48741,4.68238 -6.53995,7.20141 -10.94381,-8.3408 -25.08833,-5.85844 -25.08832,-5.85844 7.64107,4.17973 15.28295,16.42127 15.28295,26.55339 v 99.5752 c 0,0 -16.67267,14.66705 -29.52907,14.66705 -5.88707,0.0559 -11.42824,-2.7437 -14.88025,-7.51119 -1.0076,-1.33416 -1.84743,-2.78814 -2.48185,-4.33688 V 187.63123 c -3.80655,3.13479 -16.63505,5.64383 -16.63505,-15.60003 0,-13.24825 9.54429,-29.04196 26.51511,-38.70758 z"
       style="stroke-width:0.999999"
       inkscape:label="u" /></g><style
     type="text/css"
     id="style1">
	.st0{fill:#FFFFFF;}
</style></svg>
