<?xml version="1.0" encoding="UTF-8" standalone="no"?>
<!-- Created with Inkscape (http://www.inkscape.org/) -->

<svg
   width="512"
   height="512"
   viewBox="0 0 512 512"
   version="1.1"
   id="svg1"
   sodipodi:docname="react_logo.svg"
   inkscape:version="1.3.2 (091e20e, 2023-11-25)"
   xml:space="preserve"
   inkscape:export-filename="../react_logo.png"
   inkscape:export-xdpi="78.75"
   inkscape:export-ydpi="78.75"
   xmlns:inkscape="http://www.inkscape.org/namespaces/inkscape"
   xmlns:sodipodi="http://sodipodi.sourceforge.net/DTD/sodipodi-0.dtd"
   xmlns="http://www.w3.org/2000/svg"
   xmlns:svg="http://www.w3.org/2000/svg"><sodipodi:namedview
     id="namedview1"
     pagecolor="#505050"
     bordercolor="#ffffff"
     borderopacity="1"
     inkscape:showpageshadow="0"
     inkscape:pageopacity="0"
     inkscape:pagecheckerboard="1"
     inkscape:deskcolor="#505050"
     inkscape:zoom="1.1117597"
     inkscape:cx="166.40287"
     inkscape:cy="260.398"
     inkscape:window-width="1920"
     inkscape:window-height="1011"
     inkscape:window-x="0"
     inkscape:window-y="0"
     inkscape:window-maximized="1"
     inkscape:current-layer="layer1" /><defs
     id="defs1"><filter
       style="color-interpolation-filters:sRGB"
       id="filter3"
       x="-0.058823884"
       y="-0.058823884"
       width="1.1176478"
       height="1.1176478"><feGaussianBlur
         stdDeviation="10.213423"
         id="feGaussianBlur3" /></filter></defs><g
     inkscape:groupmode="layer"
     id="layer7"
     inkscape:label="SafeArea"
     style="display:none"><rect
       style="fill:#800000;stroke-width:2"
       id="rect1"
       width="512"
       height="512"
       x="0"
       y="0"
       inkscape:label="bg" /><rect
       style="opacity:0.48434;fill:#000000;fill-opacity:1;stroke:none;stroke-width:2.41934;filter:url(#filter3)"
       id="rect2"
       width="416.70514"
       height="416.70514"
       x="47.647438"
       y="47.647438"
       ry="81.419876"
       inkscape:label="shadow" /><rect
       style="fill:#0bc90b;fill-opacity:1;stroke:none;stroke-width:2.41934"
       id="rect3"
       width="416.70514"
       height="416.70514"
       x="47.647438"
       y="47.647438"
       ry="81.419876"
       inkscape:label="bound" /></g><g
     inkscape:groupmode="layer"
     id="layer1"
     inkscape:label="React"><path
       id="circle1"
       inkscape:label="Atom"
       d="m 159.22614,43.849087 c -7.88345,0.266879 -15.4034,2.187158 -22.18335,6.101574 -13.55966,7.828623 -21.6173,22.190996 -25.25409,39.194426 -3.63699,17.003433 -3.30225,37.213523 0.32274,59.842083 1.39645,8.71635 3.41396,17.90109 5.77822,27.2745 -9.30307,2.63754 -18.257553,5.45693 -26.506771,8.60671 -21.410015,8.17473 -39.096362,17.96667 -52.00332,29.61806 -12.907165,11.65139 -21.29437,25.8402 -21.29437,41.49765 0,15.65745 8.387205,29.84625 21.29437,41.49764 12.906958,11.65139 30.593305,21.44333 52.00332,29.61806 8.263491,3.15516 17.226241,6.00579 26.547111,8.64705 -2.35908,9.35935 -4.42376,18.52836 -5.81856,27.23416 -3.62519,22.62877 -4.00069,42.879 -0.36411,59.88263 3.63698,17.00344 11.73517,31.36581 25.29464,39.19444 13.55967,7.82861 30.04507,7.65525 46.5888,2.30321 16.54416,-5.35204 33.85521,-15.85089 51.63983,-30.30512 6.84842,-5.56595 13.75559,-11.93772 20.68821,-18.6678 6.95331,6.75347 13.9002,13.08529 20.76889,18.6678 17.78462,14.45423 35.13622,24.91253 51.68017,30.26457 16.54394,5.35204 32.98879,5.52561 46.54846,-2.30321 13.55967,-7.82863 21.65766,-22.191 25.29464,-39.19443 3.63678,-17.00344 3.22137,-37.21353 -0.40342,-59.84209 -1.39439,-8.7058 -3.41914,-17.87481 -5.77801,-27.23416 9.32087,-2.64126 18.28362,-5.49189 26.54711,-8.64705 21.41001,-8.17473 39.09636,-17.96667 52.00332,-29.61806 12.90717,-11.65139 21.29437,-25.84019 21.29437,-41.49764 0,-15.65745 -8.3872,-29.84626 -21.29437,-41.49765 -12.90696,-11.65139 -30.59331,-21.44333 -52.00332,-29.61806 -8.26349,-3.15516 -17.22624,-6.00579 -26.54711,-8.64705 2.36259,-9.36886 4.3826,-18.52194 5.77801,-27.23416 3.62561,-22.62876 4.04124,-42.83865 0.40342,-59.842083 C 396.61399,72.14145 388.516,57.779284 374.95633,49.950661 361.39686,42.122037 344.91126,42.295196 328.36753,47.647442 311.82337,52.999481 294.51252,63.417648 276.7277,77.871465 269.87246,83.443206 262.93983,89.799455 255.99916,96.539468 249.05847,89.799455 242.12584,83.443206 235.2706,77.871465 217.48598,63.417441 200.17472,52.999481 183.63077,47.647442 175.35879,44.971423 167.10855,43.581797 159.22531,43.849087 Z m 0.97027,20.607523 c 4.94366,-0.144818 10.60354,0.769601 17.09197,2.868833 12.9773,4.198258 28.50836,13.279554 44.93231,26.628001 6.31838,5.135222 12.80207,11.080396 19.3143,17.415326 -13.61594,14.7176 -27.13878,31.47069 -40.20463,49.94257 -22.54746,2.07399 -43.79073,5.42859 -63.35763,9.85917 -2.23226,-8.81421 -4.12543,-17.41078 -5.41452,-25.45622 -3.34818,-20.89777 -3.41831,-38.90809 -0.56478,-52.245781 2.8529,-13.337485 8.17514,-21.449326 15.39492,-25.617792 3.60988,-2.08413 7.86523,-3.254462 12.80889,-3.394107 z m 191.64871,0 c 4.94387,0.144817 9.15867,1.350939 12.76856,3.434449 7.21977,4.168466 12.54223,12.23976 15.39491,25.57745 2.85291,13.337691 2.78236,31.348011 -0.56478,52.245781 -1.28887,8.04544 -3.18226,16.64201 -5.41452,25.45622 -19.5787,-4.43327 -40.83561,-7.78539 -63.39818,-9.85917 -13.0739,-18.48304 -26.58,-35.21877 -40.20442,-49.94257 6.51927,-6.34301 12.98909,-12.274726 19.3143,-17.415326 16.42395,-13.348447 32.0359,-22.429743 45.01299,-26.628001 6.48864,-2.099025 12.14832,-3.008685 17.09198,-2.868833 z m -95.84514,61.78181 c 9.25424,10.07226 18.52794,21.14563 27.67855,33.21409 -9.09082,-0.40963 -18.29976,-0.68685 -27.67855,-0.68685 -9.37879,0 -18.58773,0.27722 -27.67855,0.68685 9.15061,-12.06868 18.4243,-23.14183 27.67855,-33.21409 z m 0,53.21545 c 14.82434,0 29.27236,0.56064 43.27559,1.61574 7.91075,11.59367 15.62373,23.81771 23.03177,36.64874 7.40182,12.82048 14.12197,25.62752 20.20326,38.26512 -6.08522,12.64814 -12.83558,25.43387 -20.24382,38.26511 -7.40265,12.82234 -15.12659,25.0621 -23.03176,36.64874 -13.99081,1.05303 -28.42456,1.61575 -43.23504,1.61575 -14.82435,0 -29.27237,-0.56065 -43.27559,-1.61575 -7.90476,-11.58622 -15.62911,-23.78647 -23.03177,-36.6084 -7.40803,-12.83124 -14.11804,-25.65731 -20.20327,-38.30545 6.08482,-12.64733 12.79565,-25.4347 20.20327,-38.26512 7.40804,-12.83103 15.12101,-25.05507 23.03177,-36.64874 14.00322,-1.0551 28.45124,-1.61574 43.27559,-1.61574 z m -69.8227,4.32362 c -4.89462,7.65671 -9.70215,15.48678 -14.38471,23.59738 -4.68464,8.11392 -9.06889,16.21521 -13.25349,24.28444 -5.86986,-13.94448 -10.77669,-27.48987 -14.86964,-40.52799 13.32238,-2.9702 27.51614,-5.46665 42.50784,-7.35383 z m 139.64539,0 c 14.99171,1.88676 29.18547,4.38363 42.50785,7.35383 -4.09296,13.03812 -9.04012,26.58351 -14.91019,40.52799 -4.18399,-8.0684 -8.52872,-16.17136 -13.21294,-24.28444 -4.68195,-8.10956 -9.49072,-15.94171 -14.38472,-23.59738 z m 62.63023,12.40486 c 8.76207,2.47617 17.14763,5.13067 24.76937,8.04088 19.77192,7.54933 35.41387,16.47836 45.53826,25.61779 10.1244,9.13943 14.46561,17.80633 14.46561,26.14307 0,8.33673 -4.34121,17.00364 -14.46561,26.14307 -10.12439,9.13943 -25.76634,18.06845 -45.53826,25.61779 -7.61863,2.90896 -16.01122,5.52499 -24.76937,8.00053 -5.93648,-19.15231 -13.68731,-39.20725 -23.153,-59.76139 9.469,-20.55952 17.21321,-40.64406 23.153,-59.80174 z m -264.90585,0.0413 c 5.94021,19.15852 13.68359,39.20147 23.153,59.76141 -9.46692,20.55601 -17.21611,40.60742 -23.153,59.7614 -8.75814,-2.47556 -17.15073,-5.09158 -24.769369,-8.00055 -19.771918,-7.54933 -35.413861,-16.47836 -45.538256,-25.61779 -10.124393,-9.14046 -14.465606,-17.80737 -14.465606,-26.1441 0,-8.33673 4.341213,-17.00364 14.465606,-26.14307 10.124395,-9.13943 25.766338,-18.06845 45.538256,-25.61779 7.618639,-2.90896 16.011229,-5.52499 24.769369,-8.00054 z m 132.45293,17.33342 a 42.410822,42.410822 0 0 0 -42.42696,42.42695 42.410822,42.410822 0 0 0 42.42696,42.42696 42.410822,42.410822 0 0 0 42.42695,-42.42696 42.410822,42.410822 0 0 0 -42.42695,-42.42695 z m -97.4609,66.75173 c 4.19143,8.08371 8.56098,16.19741 13.25349,24.32478 4.68195,8.10957 9.49154,15.90261 14.38471,23.55703 -15.00618,-1.88882 -29.21485,-4.37969 -42.54819,-7.35382 4.09131,-13.02985 9.04405,-26.59345 14.90999,-40.52799 z m 194.9218,0 c 5.8653,13.9333 10.77834,27.49939 14.86964,40.52799 -13.33603,2.97331 -27.53972,5.50637 -42.54819,7.39437 4.90021,-7.66456 9.73648,-15.51718 14.42506,-23.63792 4.6925,-8.12737 9.06205,-16.20052 13.25349,-24.28444 z m -215.48877,60.48884 c 19.56691,4.43057 40.81018,7.78518 63.35763,9.85917 13.07143,18.48056 26.58248,35.22187 40.20463,49.94257 -6.52258,6.34652 -12.9862,12.31257 -19.3143,17.45566 -16.42396,13.34865 -31.99555,22.42975 -44.97265,26.62801 -12.97708,4.19824 -22.64075,3.60264 -29.86052,-0.56479 -7.21956,-4.16826 -12.54202,-12.23998 -15.39492,-25.57745 -2.8527,-13.33769 -2.82291,-31.38836 0.52548,-52.28614 1.29095,-8.05826 3.21743,-16.62669 5.45486,-25.45621 z m 236.05573,0 c 2.23681,8.82806 4.12358,17.39918 5.41453,25.45621 3.34817,20.89777 3.45885,38.90809 0.60616,52.24578 -2.85291,13.33749 -8.21549,21.44953 -15.43527,25.61779 -7.21977,4.16827 -16.88343,4.72333 -29.86052,0.52549 -12.9771,-4.19826 -28.54869,-13.23901 -44.97265,-26.58766 -6.33162,-5.14598 -12.82834,-11.10501 -19.35464,-17.45567 13.6238,-14.72007 27.13113,-31.46138 40.20443,-49.94257 22.56255,-2.07378 43.81948,-5.4259 63.39817,-9.85917 z m -145.70641,11.71799 c 9.09082,0.40963 18.29976,0.68686 27.67855,0.68686 9.36472,0 18.56042,-0.27723 27.6382,-0.68686 -9.15163,12.07012 -18.42326,23.14059 -27.67855,33.21409 -9.247,-10.06626 -18.49505,-21.15493 -27.6382,-33.21409 z"
       style="fill:#61dafb;fill-opacity:1;stroke-width:1" /></g></svg>
