<?xml version="1.0" encoding="UTF-8" standalone="no"?>
<!-- Created with Inkscape (http://www.inkscape.org/) -->

<svg
   width="512"
   height="512"
   viewBox="0 0 512 512"
   version="1.1"
   id="svg1"
   sodipodi:docname="game.svg"
   inkscape:version="1.3.2 (091e20e, 2023-11-25)"
   xml:space="preserve"
   inkscape:export-filename="../game_dev.png"
   inkscape:export-xdpi="78.75"
   inkscape:export-ydpi="78.75"
   xmlns:inkscape="http://www.inkscape.org/namespaces/inkscape"
   xmlns:sodipodi="http://sodipodi.sourceforge.net/DTD/sodipodi-0.dtd"
   xmlns="http://www.w3.org/2000/svg"
   xmlns:svg="http://www.w3.org/2000/svg"><sodipodi:namedview
     id="namedview1"
     pagecolor="#505050"
     bordercolor="#ffffff"
     borderopacity="1"
     inkscape:showpageshadow="0"
     inkscape:pageopacity="0"
     inkscape:pagecheckerboard="1"
     inkscape:deskcolor="#505050"
     inkscape:zoom="0.78613282"
     inkscape:cx="225.78882"
     inkscape:cy="280.48695"
     inkscape:window-width="1920"
     inkscape:window-height="1011"
     inkscape:window-x="0"
     inkscape:window-y="0"
     inkscape:window-maximized="1"
     inkscape:current-layer="layer2" /><defs
     id="defs1"><filter
       style="color-interpolation-filters:sRGB"
       id="filter3"
       x="-0.058823884"
       y="-0.058823884"
       width="1.1176478"
       height="1.1176478"><feGaussianBlur
         stdDeviation="10.213423"
         id="feGaussianBlur3" /></filter></defs><g
     inkscape:groupmode="layer"
     id="layer7"
     inkscape:label="SafeArea"
     style="display:none"><rect
       style="fill:#800000;stroke-width:2"
       id="rect1"
       width="512"
       height="512"
       x="0"
       y="0"
       inkscape:label="bg" /><rect
       style="opacity:0.48434;fill:#000000;fill-opacity:1;stroke:none;stroke-width:2.41934;filter:url(#filter3)"
       id="rect2"
       width="416.70514"
       height="416.70514"
       x="47.647438"
       y="47.647438"
       ry="81.419876"
       inkscape:label="shadow" /><rect
       style="fill:#0bc90b;fill-opacity:1;stroke:none;stroke-width:2.41934"
       id="rect3"
       width="416.70514"
       height="416.70514"
       x="47.647438"
       y="47.647438"
       ry="81.419876"
       inkscape:label="bound" /></g><g
     inkscape:groupmode="layer"
     id="layer1"
     inkscape:label="Game"><g
       id="g1"
       transform="matrix(12.627428,0,0,12.627428,29.021991,7.151278)"
       style="stroke-width:0.0791927"><path
         fill="#31373d"
         d="M 2.13,14.856 2.126,14.854 c 0,0 -2.051,12.417 -2.051,14.207 0,1.824 1.343,3.302 3,3.302 0.68,0 1.3,-0.258 1.803,-0.678 l 10.166,-8.938 z m 31.69,0 0.004,-0.002 c 0,0 2.051,12.417 2.051,14.207 0,1.824 -1.343,3.302 -3,3.302 -0.68,0 -1.3,-0.258 -1.803,-0.678 L 20.906,22.747 Z"
         id="path1"
         style="stroke-width:0.0791927" /><g
         fill="#14171a"
         id="g2"
         style="stroke-width:0.0791927"><circle
           cx="25.975"
           cy="15.551"
           r="8.5"
           id="circle1"
           style="stroke-width:0.0791927" /><circle
           cx="9.9750004"
           cy="15.551"
           r="8.5"
           id="circle2"
           style="stroke-width:0.0791927" /><path
           d="m 9.975,7.051 h 16 v 16.87 h -16 z"
           id="path2"
           style="stroke-width:0.0791927" /></g><circle
         fill="#14171a"
         cx="13.075"
         cy="23.301001"
         r="5"
         id="circle3"
         style="stroke-width:0.0791927" /><circle
         fill="#14171a"
         cx="22.875"
         cy="23.301001"
         r="5"
         id="circle4"
         style="stroke-width:0.0791927" /><circle
         fill="#67757f"
         cx="22.875"
         cy="23.301001"
         r="3"
         id="circle5"
         style="stroke-width:0.0791927" /><circle
         fill="#67757f"
         cx="13.075"
         cy="23.301001"
         r="3"
         id="circle6"
         style="stroke-width:0.0791927" /><circle
         fill="#ffcc4d"
         cx="25.735001"
         cy="11.133"
         r="1.603"
         id="circle7"
         style="stroke-width:0.0791927" /><circle
         fill="#77b255"
         cx="25.735001"
         cy="17.607"
         r="1.603"
         id="circle8"
         style="stroke-width:0.0791927" /><circle
         fill="#50a5e6"
         cx="22.497999"
         cy="14.37"
         r="1.603"
         id="circle9"
         style="stroke-width:0.0791927" /><circle
         fill="#dd2e44"
         cx="28.972"
         cy="14.37"
         r="1.603"
         id="circle10"
         style="stroke-width:0.0791927" /><path
         d="m 11.148,12.514 v -2.168 c 0,-0.279 -0.226,-0.505 -0.505,-0.505 H 9.085 c -0.279,0 -0.505,0.226 -0.505,0.505 v 2.168 l 1.284,1.285 z m -2.569,3.63 v 2.168 c 0,0.279 0.226,0.505 0.505,0.505 h 1.558 c 0.279,0 0.505,-0.226 0.505,-0.505 V 16.144 L 9.863,14.859 Z m 5.269,-3.1 H 11.68 l -1.285,1.285 1.285,1.285 h 2.168 c 0.279,0 0.505,-0.227 0.505,-0.505 V 13.55 c 0,-0.279 -0.226,-0.506 -0.505,-0.506 z m -5.799,0 H 5.88 c -0.279,0 -0.505,0.227 -0.505,0.505 v 1.558 c 0,0.279 0.226,0.505 0.505,0.505 h 2.168 l 1.285,-1.285 z"
         fill="#8899a6"
         id="path10"
         style="stroke-width:0.0791927" /></g></g><g
     inkscape:groupmode="layer"
     id="layer2"
     inkscape:label="Hammer"><g
       id="g3"
       transform="matrix(11.585296,0,0,11.585296,-6.4362756,-24.415293)"
       style="stroke-width:0.0863164"><path
         fill="#f4900c"
         d="M 29.879,33.879 C 31.045,35.045 32.9,35.1 34,34 35.1,32.9 35.045,31.045 33.879,29.879 L 12.121,8.121 C 10.955,6.955 9.1,6.9 8,8 6.9,9.1 6.955,10.955 8.121,12.121 Z"
         id="path1-3"
         style="stroke-width:0.0863164" /><path
         fill="#66757f"
         d="M 22,3 C 22,3 16,0 11,5 l -7,7 c 0,0 -1,-1 -2,0 l -1,1 c 0,0 -1,1 0,2 l 4,4 c 0,0 1,1 2,0 l 1,-1 c 0,0 1,-1 0,-2 L 7.922,15.922 C 8.692,15.179 9.845,14.422 11,15 l 4,-4 c 0,0 -1,-3 1,-5 2,-2 3,-2 5,-2 2,0 1,-1 1,-1 z"
         id="path2-6"
         style="stroke-width:0.0863164" /></g></g></svg>
