<?xml version="1.0" encoding="UTF-8" standalone="no"?>
<!-- Created with Inkscape (http://www.inkscape.org/) -->

<svg
   width="512"
   height="512"
   viewBox="0 0 512 512"
   version="1.1"
   id="svg1"
   sodipodi:docname="wave.svg"
   inkscape:version="1.3.2 (091e20e, 2023-11-25)"
   xml:space="preserve"
   inkscape:export-filename="./wave.png"
   inkscape:export-xdpi="96"
   inkscape:export-ydpi="96"
   xmlns:inkscape="http://www.inkscape.org/namespaces/inkscape"
   xmlns:sodipodi="http://sodipodi.sourceforge.net/DTD/sodipodi-0.dtd"
   xmlns="http://www.w3.org/2000/svg"
   xmlns:svg="http://www.w3.org/2000/svg"><sodipodi:namedview
     id="namedview1"
     pagecolor="#505050"
     bordercolor="#ffffff"
     borderopacity="1"
     inkscape:showpageshadow="0"
     inkscape:pageopacity="0"
     inkscape:pagecheckerboard="1"
     inkscape:deskcolor="#505050"
     inkscape:zoom="1.1117597"
     inkscape:cx="171.79972"
     inkscape:cy="292.7791"
     inkscape:window-width="1920"
     inkscape:window-height="1011"
     inkscape:window-x="0"
     inkscape:window-y="0"
     inkscape:window-maximized="1"
     inkscape:current-layer="layer1" /><defs
     id="defs1"><filter
       style="color-interpolation-filters:sRGB"
       id="filter3"
       x="-0.058823884"
       y="-0.058823884"
       width="1.1176478"
       height="1.1176478"><feGaussianBlur
         stdDeviation="10.213423"
         id="feGaussianBlur3" /></filter></defs><g
     inkscape:groupmode="layer"
     id="layer7"
     inkscape:label="SafeArea"
     style="display:none"><rect
       style="fill:#800000;stroke-width:2"
       id="rect1"
       width="512"
       height="512"
       x="0"
       y="0"
       inkscape:label="bg" /><rect
       style="opacity:0.48434;fill:#000000;fill-opacity:1;stroke:none;stroke-width:2.41934;filter:url(#filter3)"
       id="rect2"
       width="416.70514"
       height="416.70514"
       x="47.647438"
       y="47.647438"
       ry="81.419876"
       inkscape:label="shadow" /><rect
       style="fill:#0bc90b;fill-opacity:1;stroke:none;stroke-width:2.41934"
       id="rect3"
       width="416.70514"
       height="416.70514"
       x="47.647438"
       y="47.647438"
       ry="81.419876"
       inkscape:label="bound" /></g><g
     inkscape:groupmode="layer"
     id="layer1"
     inkscape:label="Wave"><path
       fill="#ef9645"
       d="m 95.423703,137.37414 c 11.506457,-8.04228 28.851837,-6.49992 39.183167,2.03199 l -11.84921,-17.22296 c -9.53567,-13.59965 -6.12045,-28.313232 7.49144,-37.861144 13.6119,-9.511189 52.18301,16.060074 52.18301,16.060074 -9.62135,-13.7343 -7.82194,-31.140879 5.91236,-40.774477 13.73431,-9.596876 32.68324,-6.279588 42.3046,7.479198 L 358.19938,247.27306 341.94345,404.87482 206.27741,355.39704 87.944505,179.94804 c -9.707044,-13.81999 -6.353034,-32.87909 7.479198,-42.5739 z"
       id="path1"
       style="stroke-width:1" /><path
       fill="#ffdc5d"
       d="m 68.909886,237.61498 c 0,0 -13.856714,-20.19751 6.353033,-34.04198 20.185266,-13.84447 34.029741,6.34079 34.029741,6.34079 l 64.27703,93.74092 c 2.21561,-3.69676 4.63931,-7.34455 7.34455,-10.94338 L 91.702466,162.62715 c 0,0 -13.844473,-20.18527 6.353033,-34.02974 20.185261,-13.84447 34.029741,6.34079 34.029741,6.34079 l 83.91146,122.37241 c 3.12143,-2.54611 6.31631,-5.10446 9.60911,-7.61385 L 128.32728,107.81234 c 0,0 -13.84448,-20.185267 6.35303,-34.02974 20.18527,-13.844472 34.02974,6.340793 34.02974,6.340793 l 97.27853,141.859937 c 3.57435,-2.19112 7.11198,-4.08846 10.66184,-6.09597 L 185.72492,83.29379 c 0,0 -13.84447,-20.185266 6.34079,-34.029739 20.18527,-13.844472 34.02974,6.340793 34.02974,6.340793 l 96.14013,140.207416 14.61565,21.32367 c -60.56804,41.54566 -66.33351,119.70389 -31.72845,170.17317 6.91612,10.09876 17.01487,3.18264 17.01487,3.18264 -41.53342,-60.58028 -28.85183,-128.65199 31.72845,-170.18541 l -17.85949,-89.38315 c 0,0 -6.6713,-23.55151 16.86798,-30.23505 23.55151,-6.671301 30.23505,16.88022 30.23505,16.88022 l 20.62594,61.25352 c 8.17693,24.28598 16.88022,48.48626 28.39892,71.37677 32.5241,64.63202 13.09777,144.95689 -48.2292,187.02891 -66.89659,45.8667 -158.34845,28.81511 -204.22739,-38.06924 z"
       id="path2"
       style="stroke-width:1" /><path
       d="m 182.81158,417.62985 c -48.96365,0 -98.441421,-49.47777 -98.441421,-98.44143 0,-6.76922 -4.95757,-12.24091 -11.726795,-12.24091 -6.769225,0 -12.755031,5.47169 -12.755031,12.24091 0,73.44548 49.477767,122.92325 122.923247,122.92325 6.76923,0 12.24091,-5.9858 12.24091,-12.75503 0,-6.76922 -5.47168,-11.72679 -12.24091,-11.72679 z"
       id="path3"
       style="fill:#5dadec;stroke-width:1" /><path
       d="m 121.60702,441.59755 c -36.722743,0 -61.204569,-24.48182 -61.204569,-61.20456 0,-6.76923 -5.471688,-12.24091 -12.240913,-12.24091 -6.769225,0 -12.240913,5.47168 -12.240913,12.24091 0,48.96365 36.722739,85.68639 85.686395,85.68639 6.76922,0 12.24091,-5.47169 12.24091,-12.24091 0,-6.76923 -5.47169,-12.24092 -12.24091,-12.24092 z M 329.70254,49.888338 c -6.75699,0 -12.24092,5.483929 -12.24092,12.240913 0,6.756984 5.48393,12.240913 12.24092,12.240913 48.96365,0 97.9273,43.932636 97.9273,97.927306 0,6.75698 5.48393,12.24091 12.24091,12.24091 6.75699,0 12.24092,-5.48393 12.24092,-12.24091 0,-67.4964 -48.96366,-122.409132 -122.40913,-122.409132 z"
       id="path4"
       style="fill:#5dadec;stroke-width:1" /><path
       d="m 390.9071,25.92063 c -6.75698,0 -12.24091,4.969811 -12.24091,11.726795 0,6.756984 5.48393,12.755031 12.24091,12.755031 36.72274,0 60.69045,27.236032 60.69045,60.690444 0,6.75699 5.98581,12.24092 12.75503,12.24092 6.76922,0 11.72679,-5.48393 11.72679,-12.24092 0,-46.96838 -36.20862,-85.17227 -85.17227,-85.17227 z"
       id="path5"
       style="fill:#5dadec;stroke-width:1" /></g></svg>
